<svg xmlns="http://www.w3.org/2000/svg" viewBox="0 0 110 110"><title>01_</title><polygon points="73.383 81.222 73.383 79.178 71.914 81.222 73.383 81.222" style="fill:#515151"/><path d="M93.51733,15.30242H16.48267a5.63791,5.63791,0,0,0-5.63175,5.63175V89.06583a5.63791,5.63791,0,0,0,5.63175,5.63175H93.51733a5.63791,5.63791,0,0,0,5.63175-5.63175V20.93417A5.63791,5.63791,0,0,0,93.51733,15.30242ZM73.70209,23.36579h5.59068a1.12635,1.12635,0,1,1,0,2.2527H73.70209a1.12635,1.12635,0,0,1,0-2.2527Zm.69884,25.72931v2.2527a1.12641,1.12641,0,0,1-1.12635,1.12635H24.964a1.12641,1.12641,0,0,1-1.12635-1.12635V49.0951A1.1264,1.1264,0,0,1,24.964,47.96875H73.27458A1.1264,1.1264,0,0,1,74.40093,49.0951Zm-57.05517-24.603a1.12641,1.12641,0,0,1,1.12635-1.12635H29.65347a1.12635,1.12635,0,1,1,0,2.2527H18.47211A1.1264,1.1264,0,0,1,17.34576,24.49214ZM48.38123,65.65705H24.964a1.12635,1.12635,0,1,1,0-2.2527H48.38123a1.12635,1.12635,0,1,1,0,2.2527ZM60.1705,59.25314H24.964a1.12635,1.12635,0,0,1,0-2.2527H60.1705a1.12635,1.12635,0,1,1,0,2.2527ZM75.13129,82.802v1.75186a.37523.37523,0,0,1-.37545.37545h-.99728a.37523.37523,0,0,1-.37545-.37545V82.802H70.12872a.37523.37523,0,0,1-.37545-.37545v-.69737a.37606.37606,0,0,1,.06746-.21522L73.30611,76.526a.37629.37629,0,0,1,.308-.16023h1.14174a.37523.37523,0,0,1,.37545.37545v4.48047h.71864a.37523.37523,0,0,1,.37545.37545v.82936a.37523.37523,0,0,1-.37545.37545Zm3.434.33585A15.02633,15.02633,0,0,1,77.384,86.15206a.37552.37552,0,0,1-.28672.1815l-.7575.07223c-.01246.0011-.0242.00183-.03593.00183a.376.376,0,0,1-.352-.50671,16.9046,16.9046,0,0,0,.7025-2.79754.376.376,0,0,1,.33292-.31752L78.165,82.666a.38455.38455,0,0,1,.32412.13053A.37614.37614,0,0,1,78.56534,83.13783Zm2.48515,1.92382a4.16429,4.16429,0,0,1-2.15077-.54081.37543.37543,0,0,1-.15326-.433l.26473-.80516a.37445.37445,0,0,1,.22439-.23429.37966.37966,0,0,1,.32338.0286,3.10552,3.10552,0,0,0,1.47907.38022,1.351,1.351,0,0,0,1.4754-1.31921c-.01027-.89793-.64017-1.35551-1.87212-1.35551a7.30344,7.30344,0,0,0-.96722.073.44309.44309,0,0,1-.34759-.10413.3921.3921,0,0,1-.13859-.31019l.50524-3.7501a.37517.37517,0,0,1,.37179-.32522h3.73763a.37524.37524,0,0,1,.37545.37545v.8895a.37524.37524,0,0,1-.37545.37545H81.14509L80.964,79.218c.0594-.0022.12393-.00367.19433-.00367a3.64113,3.64113,0,0,1,1.87578.47444,2.59388,2.59388,0,0,1,1.30014,2.329A3.10081,3.10081,0,0,1,81.05049,85.06165Zm5.04511,0a1.079,1.079,0,0,1-1.08455-1.12085,1.09069,1.09069,0,0,1,1.097-1.13259,1.12733,1.12733,0,0,1-.01247,2.25344Zm0-4.24288a1.079,1.079,0,0,1-1.08455-1.12085,1.09068,1.09068,0,0,1,1.097-1.13258,1.12732,1.12732,0,0,1-.01247,2.25343Zm1.92491-9.37158a1.12635,1.12635,0,1,1-2.2527,0V65.64935H64.80936l1.53186,1.75076a1.12639,1.12639,0,0,1-1.69539,1.48346l-3.16639-3.61883a1.126,1.126,0,0,1,0-1.48347l3.16639-3.6192a1.12639,1.12639,0,0,1,1.69539,1.48346l-1.532,1.75113H86.89416A1.1264,1.1264,0,0,1,88.02051,64.523Zm3.46118,13.10665a.37524.37524,0,0,1-.37545.37545H90.08475a.37524.37524,0,0,1-.37545-.37545V78.34315l-.82863.44731a.37466.37466,0,0,1-.5419-.23832l-.20386-.80516a.3752.3752,0,0,1,.18626-.42312l1.70639-.91369a.381.381,0,0,1,.17745-.04437h.90123a.37524.37524,0,0,1,.37545.37545Zm.0462-58.93535H85.93721a1.12635,1.12635,0,1,1,0-2.2527h5.59068a1.12635,1.12635,0,1,1,0,2.2527Z" style="fill:#515151"/></svg>