<svg xmlns="http://www.w3.org/2000/svg" viewBox="0 0 110 110"><path d="M34.57172,46.013H17.97125a.7509.7509,0,0,1,0-1.5018H34.57172a.7509.7509,0,1,1,0,1.5018Z" style="fill:#a56140"/><path d="M34.57172,50.6013H17.97125a.7509.7509,0,0,1,0-1.5018H34.57172a.7509.7509,0,0,1,0,1.5018Z" style="fill:#a56140"/><path d="M34.57172,55.18919H17.97125a.7509.7509,0,0,1,0-1.5018H34.57172a.7509.7509,0,0,1,0,1.5018Z" style="fill:#a56140"/><path d="M34.57172,59.77745H17.97125a.7509.7509,0,1,1,0-1.5018H34.57172a.7509.7509,0,0,1,0,1.5018Z" style="fill:#a56140"/><path d="M34.57172,64.36534H17.97125a.7509.7509,0,1,1,0-1.50179H34.57172a.7509.7509,0,1,1,0,1.50179Z" style="fill:#a56140"/><path d="M34.57172,68.95324H17.97125a.7509.7509,0,0,1,0-1.5018H34.57172a.7509.7509,0,0,1,0,1.5018Z" style="fill:#a56140"/><path d="M34.57172,73.5415H17.97125a.7509.7509,0,1,1,0-1.5018H34.57172a.7509.7509,0,0,1,0,1.5018Z" style="fill:#a56140"/><path d="M34.57172,78.12939H17.97125a.7509.7509,0,1,1,0-1.5018H34.57172a.7509.7509,0,0,1,0,1.5018Z" style="fill:#a56140"/><path d="M34.57172,82.71765H17.97125a.7509.7509,0,1,1,0-1.5018H34.57172a.7509.7509,0,0,1,0,1.5018Z" style="fill:#a56140"/><path d="M93.51733,15.30242H16.48267a5.63791,5.63791,0,0,0-5.63175,5.63175V89.06583a5.63791,5.63791,0,0,0,5.63175,5.63175H93.51733a5.63791,5.63791,0,0,0,5.63175-5.63175V20.93417A5.63791,5.63791,0,0,0,93.51733,15.30242Zm-7.58012,8.06337h5.59068a1.12635,1.12635,0,1,1,0,2.2527H85.93721a1.12635,1.12635,0,1,1,0-2.2527Zm-12.23512,0h5.59068a1.12635,1.12635,0,1,1,0,2.2527H73.70209a1.12635,1.12635,0,0,1,0-2.2527Zm-55.23,0H29.65347a1.12635,1.12635,0,1,1,0,2.2527H18.47211a1.12635,1.12635,0,1,1,0-2.2527ZM96.89638,32.888v6.18841H13.10362V32.888ZM13.10362,41.32908H39.43937V85.66075H13.10362ZM96.89638,89.06583a3.38274,3.38274,0,0,1-3.379,3.379H16.48267a3.38274,3.38274,0,0,1-3.379-3.379V87.91345H41.69207V41.32908H96.89638Z" style="fill:#a56140"/><path d="M39.25427,37.12193l.95529-1.6546a.5.5,0,0,0-.433-.75H37.866a.5.5,0,0,0-.433.75l.95529,1.6546A.5.5,0,0,0,39.25427,37.12193Z" style="fill:#a56140"/><path d="M62.4936,58.943H61.15972a.37485.37485,0,0,0-.352.24565l-1.4446,3.92316c-.20239.57417-.37032,1.07282-.51038,1.52123-.13493-.45025-.29479-.94852-.48764-1.52123l-1.38228-3.91839a.37563.37563,0,0,0-.35418-.25042H55.29405a.37569.37569,0,0,0-.37471.34941l-.56464,8.10114a.37644.37644,0,0,0,.37471.40148h.99729a.37585.37585,0,0,0,.37472-.352l.21632-3.47475c.02567-.42861.04913-.86749.0704-1.29977.09606.30138.20166.62184.31752.96539l1.30967,3.85826a.376.376,0,0,0,.35565.25482h.79343a.37562.37562,0,0,0,.35272-.24712l1.43067-3.92976c.13493-.36995.26179-.726.38058-1.07062.02127.47738.0462.95036.06967,1.38227v.00184l.20385,3.5576a.37538.37538,0,0,0,.37472.35382h1.02222a.37572.37572,0,0,0,.37472-.39891l-.50525-8.10114A.37584.37584,0,0,0,62.4936,58.943Z" style="fill:#a56140"/><path d="M69.40348,63.84983c0-1.60592-.75089-2.56-2.12657-2.72824a.37035.37035,0,0,0,.077-.06893l1.4666-1.71849a.37524.37524,0,0,0-.28525-.61927H67.36931a.37479.37479,0,0,0-.31972.17856L65.99217,60.612a.37536.37536,0,0,0,.15473.53421,3.73012,3.73012,0,0,0-1.44607.52577.37538.37538,0,0,0-.15033.43742l.24053.697a.37549.37549,0,0,0,.55877.19286,2.54035,2.54035,0,0,1,1.31041-.37252c.56684,0,.86236.22476.93056.7212a4.15214,4.15214,0,0,0-2.84888.95366,2.144,2.144,0,0,0-.63283,1.57953,2.0326,2.0326,0,0,0,2.15443,2.04627,2.65264,2.65264,0,0,0,1.526-.46968v.00477a.37588.37588,0,0,0,.37325.33255h.96136a.37584.37584,0,0,0,.36958-.44255,7.76178,7.76178,0,0,1-.0902-1.32727ZM66.54,66.39512a.56826.56826,0,0,1-.62184-.6343.67305.67305,0,0,1,.19946-.51551,2.22809,2.22809,0,0,1,1.51353-.418v.63321a.73108.73108,0,0,1-.0396.21486A1.0695,1.0695,0,0,1,66.54,66.39512Z" style="fill:#a56140"/><path d="M73.98954,64.41888l1.83252-2.60029a.375.375,0,0,0-.30652-.59177H74.37379a.37452.37452,0,0,0-.31312.16866l-.82349,1.24808-.12393.20019c-.05206.08359-.10413.16756-.15619.25262-.09166-.14886-.18626-.29772-.28892-.45171l-.82937-1.24991a.37564.37564,0,0,0-.31311-.16793H70.34724a.37526.37526,0,0,0-.30872.58921l1.82372,2.634-1.919,2.755a.37524.37524,0,0,0,.308.58994h1.16595a.37585.37585,0,0,0,.31605-.17233l.99362-1.55313c.05353-.08542.10633-.16975.15839-.25408.10267.16719.20753.33218.32119.499l.85283,1.31a.37514.37514,0,0,0,.31458.17049h1.20188a.375.375,0,0,0,.31019-.58664Z" style="fill:#a56140"/><path d="M77.36419,65.66182a1.1336,1.1336,0,0,0-.01173,2.26553,1.13357,1.13357,0,0,0,.01173-2.26553Z" style="fill:#a56140"/><path d="M84.81379,59.09952a3.06613,3.06613,0,0,0-3.04393,3.15172A2.63682,2.63682,0,0,0,84.453,65.01872a2.83574,2.83574,0,0,0,1.20114-.25263,2.66573,2.66573,0,0,1-.61744.8422,2.55178,2.55178,0,0,1-1.41453.6563,4.15151,4.15151,0,0,1-.77657.03667.37477.37477,0,0,0-.41431.37325v.86529a.37578.37578,0,0,0,.35712.37509c.05866.00256.12759.00476.20459.00476a5.35463,5.35463,0,0,0,.82936-.0671,4.24477,4.24477,0,0,0,2.49029-1.14908,5.24072,5.24072,0,0,0,1.46073-3.93525C87.77339,60.53972,86.61184,59.09952,84.81379,59.09952ZM83.56645,62.179c0-.89683.47811-1.52343,1.163-1.52343,1.10362,0,1.22315,1.38484,1.22315,1.98028a.33037.33037,0,0,1-.044.194,1.37359,1.37359,0,0,1-1.21508.63248A1.13576,1.13576,0,0,1,83.56645,62.179Z" style="fill:#a56140"/><path d="M50.11329,44.51124H45.94741a.7509.7509,0,0,0,0,1.5018h3.415V81.21585h-3.415a.7509.7509,0,0,0,0,1.5018h4.16588a.75071.75071,0,0,0,.7509-.7509V45.26214A.75071.75071,0,0,0,50.11329,44.51124Z" style="fill:#a56140"/><path d="M31.45373,36.89885H21.08926a.7509.7509,0,0,1,0-1.5018H31.45373a.7509.7509,0,0,1,0,1.5018Z" style="fill:#a56140"/><path d="M60.18223,36.89885H49.81777a.7509.7509,0,0,1,0-1.5018H60.18223a.7509.7509,0,0,1,0,1.5018Z" style="fill:#a56140"/><path d="M88.91074,36.89885H78.54627a.7509.7509,0,0,1,0-1.5018H88.91074a.7509.7509,0,0,1,0,1.5018Z" style="fill:#a56140"/></svg>