<svg xmlns="http://www.w3.org/2000/svg" viewBox="0 0 110 110"><path d="M93.51733,15.30242H16.48267a5.63791,5.63791,0,0,0-5.63175,5.63175V89.06583a5.63791,5.63791,0,0,0,5.63175,5.63175H93.51733a5.63791,5.63791,0,0,0,5.63175-5.63175V20.93417A5.63791,5.63791,0,0,0,93.51733,15.30242Zm-7.58012,8.06337h5.59068a1.12635,1.12635,0,1,1,0,2.2527H85.93721a1.12635,1.12635,0,1,1,0-2.2527Zm-12.23512,0h5.59068a1.12635,1.12635,0,1,1,0,2.2527H73.70209a1.12635,1.12635,0,0,1,0-2.2527Zm-55.23,0H29.65347a1.12635,1.12635,0,1,1,0,2.2527H18.47211a1.12635,1.12635,0,1,1,0-2.2527Zm78.42427,65.7a3.38274,3.38274,0,0,1-3.379,3.379H16.48267a3.38274,3.38274,0,0,1-3.379-3.379V32.888H96.89638Z" style="fill:#a56140"/><path d="M44.85626,44.79723H28.06368a.7509.7509,0,1,1,0-1.5018H44.85626a.7509.7509,0,0,1,0,1.5018Z" style="fill:#a56140"/><path d="M44.85626,49.38512H28.06368a.7509.7509,0,0,1,0-1.5018H44.85626a.7509.7509,0,0,1,0,1.5018Z" style="fill:#a56140"/><path d="M24.88262,42.79165a1.25468,1.25468,0,1,0,1.25468,1.25468A1.25566,1.25566,0,0,0,24.88262,42.79165Z" style="fill:#a56140"/><path d="M24.88262,47.37954a1.25468,1.25468,0,1,0,1.25468,1.25468A1.25566,1.25566,0,0,0,24.88262,47.37954Z" style="fill:#a56140"/><path d="M44.85626,53.97338H28.06368a.7509.7509,0,1,1,0-1.5018H44.85626a.7509.7509,0,0,1,0,1.5018Z" style="fill:#a56140"/><path d="M24.88262,51.9678a1.25468,1.25468,0,1,0,1.25468,1.25468A1.25566,1.25566,0,0,0,24.88262,51.9678Z" style="fill:#a56140"/><rect x="23.83767" y="63.11873" width="62.32466" height="4.5054" rx="1.12635" style="fill:#a56140"/><path d="M85.036,73.77909H24.964a1.12635,1.12635,0,1,1,0-2.2527H85.036a1.12635,1.12635,0,1,1,0,2.2527Z" style="fill:#a56140"/><path d="M85.036,78.71383H24.964a1.12635,1.12635,0,0,1,0-2.2527H85.036a1.12635,1.12635,0,0,1,0,2.2527Z" style="fill:#a56140"/><path d="M70.16538,83.64858H24.964a1.12635,1.12635,0,1,1,0-2.2527H70.16538a1.12635,1.12635,0,1,1,0,2.2527Z" style="fill:#a56140"/></svg>