<svg xmlns="http://www.w3.org/2000/svg" viewBox="0 0 110 110"><title>01_</title><path d="M93.51733,15.30242H16.48267a5.63791,5.63791,0,0,0-5.63175,5.63175V89.06583a5.63791,5.63791,0,0,0,5.63175,5.63175H93.51733a5.63791,5.63791,0,0,0,5.63175-5.63175V20.93417A5.63791,5.63791,0,0,0,93.51733,15.30242Zm-7.58012,8.06337h5.59068a1.12635,1.12635,0,1,1,0,2.2527H85.93721a1.12635,1.12635,0,1,1,0-2.2527Zm-12.23512,0h5.59068a1.12635,1.12635,0,1,1,0,2.2527H73.70209a1.12635,1.12635,0,0,1,0-2.2527Zm-55.23,0H29.65347a1.12635,1.12635,0,1,1,0,2.2527H18.47211a1.12635,1.12635,0,1,1,0-2.2527Zm78.42427,65.7a3.38274,3.38274,0,0,1-3.379,3.379H16.48267a3.38274,3.38274,0,0,1-3.379-3.379V32.888H96.89638Z" style="fill:#515151"/><path d="M46.89483,47.43637H24.964a1.12635,1.12635,0,1,1,0-2.25269H46.89483a1.12635,1.12635,0,1,1,0,2.25269Z" style="fill:#515151"/><path d="M85.036,68.08134H24.964A1.1264,1.1264,0,0,1,23.83767,66.955V52.03233A1.12641,1.12641,0,0,1,24.964,50.906H85.036a1.12641,1.12641,0,0,1,1.12635,1.12635V66.955A1.1264,1.1264,0,0,1,85.036,68.08134ZM26.09037,65.82865H83.90963v-12.67H26.09037Z" style="fill:#515151"/><path d="M35.96719,62.89728l-2.24537-6.57954a.37626.37626,0,0,0-.35565-.25409H32.341a.376.376,0,0,0-.35565.25482L29.75027,62.898a.37586.37586,0,0,0,.35565.49608h.87849a.37485.37485,0,0,0,.35639-.25776l.59837-1.81161h1.79292l.616,1.81455a.376.376,0,0,0,.35565.25482h.90783a.37614.37614,0,0,0,.35565-.49681Zm-3.6005-2.98747.46564-1.376.46858,1.376Z" style="fill:#515151"/><path d="M42.24644,59.44307a1.81619,1.81619,0,0,0,.68124-1.41271,1.73623,1.73623,0,0,0-.68637-1.45376,3.0767,3.0767,0,0,0-2.04224-.56171,8.65157,8.65157,0,0,0-1.62866.14446.37582.37582,0,0,0-.29846.36738v6.47248a.37511.37511,0,0,0,.32412.37178,10.22841,10.22841,0,0,0,1.36907.08176,3.60208,3.60208,0,0,0,2.53649-.7212,2.1399,2.1399,0,0,0,.67024-1.58723A1.96649,1.96649,0,0,0,42.24644,59.44307ZM41.31735,58.118c0,.44878-.40185.7278-1.04935.7278h-.396V57.43162c.10927-.0077.23539-.01173.37619-.01173C41.31735,57.41989,41.31735,57.909,41.31735,58.118ZM39.872,60.2409h.32706c.49424,0,1.3236.11623,1.3236.89352,0,.59948-.44218.90343-1.31334.90343-.12906,0-.24125-.00183-.33732-.00587Z" style="fill:#515151"/><path d="M50.79232,62.03528a.37534.37534,0,0,0-.52724-.24272,3.057,3.057,0,0,1-1.22168.23576,2.015,2.015,0,0,1-2.153-2.2703,2.084,2.084,0,0,1,2.19184-2.33813,2.68633,2.68633,0,0,1,1.16448.23576.37587.37587,0,0,0,.52357-.23173l.20459-.693a.37524.37524,0,0,0-.18625-.43888,3.78792,3.78792,0,0,0-1.73573-.33586,3.65607,3.65607,0,0,0-3.81169,3.83113,3.43521,3.43521,0,0,0,3.62617,3.70427,4.57406,4.57406,0,0,0,1.90585-.352.37523.37523,0,0,0,.19505-.43081Z" style="fill:#515151"/><path d="M54.2491,64.63969a.72829.72829,0,0,1-.7509-.70378V55.05105a.75248.75248,0,0,1,1.5018,0v8.88486A.72829.72829,0,0,1,54.2491,64.63969Z" style="fill:#515151"/><path d="M85.2919,76.87435H66.232a.7507.7507,0,0,0-.7509.7509v8.764a.7507.7507,0,0,0,.7509.7509H85.2919a.7507.7507,0,0,0,.7509-.7509v-8.764A.7507.7507,0,0,0,85.2919,76.87435Zm-1.24514,7.4298H80.39712l.26326.301a.751.751,0,0,1-1.13075.98849l-1.35221-1.54617a.75167.75167,0,0,1,0-.98849l1.35221-1.54579a.75095.75095,0,0,1,1.13075.98848l-.26307.30066h3.64945a.7509.7509,0,1,1,0,1.5018Z" style="fill:#515151"/></svg>