<svg xmlns="http://www.w3.org/2000/svg" viewBox="0 0 110 110"><title>01_</title><path d="M62.32047,56.60517H24.88329a.7509.7509,0,1,1,0-1.5018H62.32047a.7509.7509,0,0,1,0,1.5018Z" style="fill:#515151"/><path d="M53.24954,61.2345H24.88329a.7509.7509,0,0,1,0-1.5018H53.24954a.7509.7509,0,1,1,0,1.5018Z" style="fill:#515151"/><path d="M48.91281,65.86382H24.88329a.7509.7509,0,1,1,0-1.5018H48.91281a.7509.7509,0,0,1,0,1.5018Z" style="fill:#515151"/><path d="M53.24954,70.49315H24.88329a.7509.7509,0,1,1,0-1.5018H53.24954a.7509.7509,0,1,1,0,1.5018Z" style="fill:#515151"/><path d="M62.32047,42.7172H24.88329a.7509.7509,0,1,1,0-1.5018H62.32047a.7509.7509,0,0,1,0,1.5018Z" style="fill:#515151"/><path d="M53.24954,47.34652H24.88329a.7509.7509,0,1,1,0-1.5018H53.24954a.7509.7509,0,0,1,0,1.5018Z" style="fill:#515151"/><path d="M48.91281,51.97585H24.88329a.7509.7509,0,1,1,0-1.5018H48.91281a.7509.7509,0,0,1,0,1.5018Z" style="fill:#515151"/><path d="M48.91281,75.12247H24.88329a.7509.7509,0,1,1,0-1.5018H48.91281a.7509.7509,0,0,1,0,1.5018Z" style="fill:#515151"/><path d="M53.24954,79.7518H24.88329a.7509.7509,0,1,1,0-1.5018H53.24954a.7509.7509,0,0,1,0,1.5018Z" style="fill:#515151"/><path d="M48.91281,84.38185H24.88329a.7509.7509,0,1,1,0-1.5018H48.91281a.7509.7509,0,0,1,0,1.5018Z" style="fill:#515151"/><path d="M93.51733,14.8824H16.48267a5.6379,5.6379,0,0,0-5.63175,5.63174V88.64581a5.6379,5.6379,0,0,0,5.63175,5.63174H93.51733a5.6379,5.6379,0,0,0,5.63175-5.63174V20.51414A5.6379,5.6379,0,0,0,93.51733,14.8824Zm-7.58012,8.06337h5.59068a1.12635,1.12635,0,1,1,0,2.2527H85.93721a1.12635,1.12635,0,0,1,0-2.2527Zm-12.23512,0h5.59068a1.12635,1.12635,0,1,1,0,2.2527H73.70209a1.12635,1.12635,0,0,1,0-2.2527Zm-55.23,0H29.65347a1.12635,1.12635,0,0,1,0,2.2527H18.47211a1.12635,1.12635,0,0,1,0-2.2527Zm78.42427,65.7a3.38275,3.38275,0,0,1-3.379,3.37905H16.48267a3.38275,3.38275,0,0,1-3.379-3.37905V32.468H96.89638Z" style="fill:#515151"/></svg>