<svg xmlns="http://www.w3.org/2000/svg" viewBox="0 0 110 110"><title>01_</title><path d="M93.51733,15.30242H16.48267a5.63791,5.63791,0,0,0-5.63175,5.63175V89.06583a5.63791,5.63791,0,0,0,5.63175,5.63175H93.51733a5.63791,5.63791,0,0,0,5.63175-5.63175V20.93417A5.63791,5.63791,0,0,0,93.51733,15.30242Zm-7.58012,8.06337h5.59068a1.12635,1.12635,0,1,1,0,2.2527H85.93721a1.12635,1.12635,0,1,1,0-2.2527Zm-12.23512,0h5.59068a1.12635,1.12635,0,1,1,0,2.2527H73.70209a1.12635,1.12635,0,0,1,0-2.2527Zm-55.23,0H29.65347a1.12635,1.12635,0,1,1,0,2.2527H18.47211a1.12635,1.12635,0,1,1,0-2.2527Zm78.42427,65.7a3.38274,3.38274,0,0,1-3.379,3.379H16.48267a3.38274,3.38274,0,0,1-3.379-3.379V32.888H96.89638Z" style="fill:#515151"/><path d="M46.89483,47.43637H24.964a1.12635,1.12635,0,1,1,0-2.25269H46.89483a1.12635,1.12635,0,1,1,0,2.25269Z" style="fill:#515151"/><path d="M30.77982,64.63969a.72829.72829,0,0,1-.7509-.70378V55.05105a.75248.75248,0,0,1,1.5018,0v8.88486A.72829.72829,0,0,1,30.77982,64.63969Z" style="fill:#515151"/><path d="M65.5424,65.82865h-39.452v-12.67H83.90965v12.67H78.97783l3.30325,2.2527H85.036A1.12641,1.12641,0,0,0,86.16234,66.955V52.03234A1.1264,1.1264,0,0,0,85.036,50.906H24.964a1.1264,1.1264,0,0,0-1.12635,1.12635V66.955A1.12641,1.12641,0,0,0,24.964,68.08135H65.71161Z" style="fill:#515151"/><path d="M80.14057,90.328a1.12319,1.12319,0,0,1-.97529-.56317L73.31575,79.63431l-4.512,4.633a1.12628,1.12628,0,0,1-1.93-.70177L64.99279,58.505a1.12651,1.12651,0,0,1,1.75772-1.01489L87.51317,71.6494a1.12616,1.12616,0,0,1-.35711,2.02245l-6.269,1.59126,5.84881,10.13054a1.12591,1.12591,0,0,1-.41212,1.53847l-5.62,3.24485A1.1279,1.1279,0,0,1,80.14057,90.328Zm-6.5931-13.67238a1.11007,1.11007,0,0,1,.13933.0088,1.123,1.123,0,0,1,.836.55437l6.02993,10.4444,3.66943-2.11851L78.19219,75.10032a1.12663,1.12663,0,0,1,.69811-1.65506l5.29-1.34268L67.41415,60.6697l1.5194,20.23615,3.80729-3.90995A1.12748,1.12748,0,0,1,73.54747,76.65565Z" style="fill:#515151"/></svg>