<svg xmlns="http://www.w3.org/2000/svg" viewBox="0 0 110 110"><title>02_</title><path d="M93.51733,15.30242H16.48267a5.63791,5.63791,0,0,0-5.63175,5.63175V89.06583a5.63791,5.63791,0,0,0,5.63175,5.63175H93.51733a5.63791,5.63791,0,0,0,5.63175-5.63175V20.93417A5.63791,5.63791,0,0,0,93.51733,15.30242Zm-7.58012,8.06337h5.59068a1.12635,1.12635,0,1,1,0,2.2527H85.93721a1.12635,1.12635,0,1,1,0-2.2527Zm-12.23512,0h5.59068a1.12635,1.12635,0,1,1,0,2.2527H73.70209a1.12635,1.12635,0,0,1,0-2.2527Zm-55.23,0H29.65347a1.12635,1.12635,0,1,1,0,2.2527H18.47211a1.12635,1.12635,0,1,1,0-2.2527Zm78.42427,65.7a3.38274,3.38274,0,0,1-3.379,3.379H16.48267a3.38274,3.38274,0,0,1-3.379-3.379V32.888H96.89638Z" style="fill:#515151"/><path d="M72.24209,68.74118V49.02035a1.12708,1.12708,0,0,0-.02131-.21133l-.001-.01a1.10759,1.10759,0,0,0-.09831-.27609c-.01-.02034-.0209-.03959-.03222-.05939a1.1274,1.1274,0,0,0-.17714-.23952L62.921,39.2329a1.12894,1.12894,0,0,0-.23929-.17737c-.02044-.01173-.04028-.02292-.06132-.03327a1.10991,1.10991,0,0,0-.27453-.09763l-.01315-.00132a1.12575,1.12575,0,0,0-.20872-.021H38.88426a1.1264,1.1264,0,0,0-1.12635,1.12635V79.48091a1.12664,1.12664,0,0,0,1.12635,1.12635h22.538a9.53885,9.53885,0,1,0,10.8198-11.86608ZM63.25036,42.7477l5.1463,5.1463h-5.1463ZM61.09923,78.35456H40.01061V41.155H60.99766v7.86538A1.12664,1.12664,0,0,0,62.124,50.1467h7.86538V68.62761a9.53706,9.53706,0,0,0-8.901,9.51159C61.08836,78.21189,61.09762,78.28224,61.09923,78.35456Zm6.90732-1.95425a.37523.37523,0,0,1-.37545.37545H66.46v4.127a.37524.37524,0,0,1-.37545.37545h-.66a.37523.37523,0,0,1-.37545-.37545v-4.127h-1.163a.37523.37523,0,0,1-.37545-.37545v-.55584a.37524.37524,0,0,1,.37545-.37545h3.745a.37524.37524,0,0,1,.37545.37545Zm4.95931,4.68653a.37575.37575,0,0,1-.327.19139h-.75824a.37513.37513,0,0,1-.32485-.18773l-.6453-1.11828c-.09607-.15546-.17893-.29185-.253-.41651-.07113.12612-.15106.26618-.24786.42824l-.6013,1.09922a.37561.37561,0,0,1-.32926.19506h-.75016a.37522.37522,0,0,1-.32119-.56978l1.42921-2.36636L68.46633,76.0366A.3756.3756,0,0,1,68.789,75.469h.7575a.37575.37575,0,0,1,.327.19139l.668,1.18575c.05133.0902.09973.17526.14519.25592.04546-.08213.09533-.16792.14886-.26032l.69-1.18648a.37709.37709,0,0,1,.32485-.18626h.7509a.37516.37516,0,0,1,.31825.57418l-1.416,2.26589L72.96,80.70772A.37513.37513,0,0,1,72.96586,81.08684Zm4.41153-4.31108H76.20631v4.127a.37523.37523,0,0,1-.37545.37545h-.66a.37524.37524,0,0,1-.37545-.37545v-4.127h-1.163a.37523.37523,0,0,1-.37545-.37545v-.55584a.37523.37523,0,0,1,.37545-.37545h3.745a.37523.37523,0,0,1,.37545.37545v.55584A.37523.37523,0,0,1,77.37739,76.77576Z" style="fill:#515151"/><path d="M55,65.41768a1.12348,1.12348,0,0,1-.74137-.27866L50.6398,61.97263a1.12615,1.12615,0,1,1,1.48273-1.69539L55,62.79466l2.87747-2.51742a1.12615,1.12615,0,1,1,1.48273,1.69539L55.74137,65.139A1.12348,1.12348,0,0,1,55,65.41768Z" style="fill:#515151"/><path d="M55,65.16615a1.12664,1.12664,0,0,1-1.12635-1.12635V54.04052a1.12635,1.12635,0,0,1,2.2527,0V64.0398A1.12664,1.12664,0,0,1,55,65.16615Z" style="fill:#515151"/><path d="M61.08859,66.95247H48.91141a1.12635,1.12635,0,1,1,0-2.2527H61.08859a1.12635,1.12635,0,0,1,0,2.2527Z" style="fill:#515151"/></svg>