<svg xmlns="http://www.w3.org/2000/svg" viewBox="0 0 110 110"><title>01_</title><path d="M83.85939,75.56376H26.14132V44.14331H83.85939ZM28.394,73.31106H81.60669V46.396H28.394Z" style="fill:#515151"/><path d="M76.56525,75.56376h-20.044a1.1257,1.1257,0,0,1-.94082-.50744l-5.94927-9.04746a1.12579,1.12579,0,0,1,.0088-1.25175L59.56662,50.13a1.16947,1.16947,0,0,1,1.864,0l16.06661,23.6746a1.12675,1.12675,0,0,1-.932,1.75919Zm-19.43686-2.2527h17.311L60.49864,52.76839l-8.57228,12.6311Z" style="fill:#515151"/><path d="M56.52122,75.56376h-21.364a1.12614,1.12614,0,0,1-.94083-1.74525l10.682-16.24481a1.169,1.169,0,0,1,1.88165,0L57.462,73.81851a1.12614,1.12614,0,0,1-.94082,1.74525Zm-19.27553-2.2527H54.43278L45.83923,60.24292Z" style="fill:#515151"/><circle cx="36.94399" cy="53.08186" r="3.50955" style="fill:#515151"/><path d="M67.614,81.392H27.215c-.88867,0-1.60967-.50451-1.60967-1.12635s.721-1.12635,1.60967-1.12635H67.614c.88867,0,1.60967.50451,1.60967,1.12635S68.50262,81.392,67.614,81.392Z" style="fill:#515151"/><path d="M93.51733,15.30242H16.48267a5.63791,5.63791,0,0,0-5.63175,5.63175V89.06583a5.63791,5.63791,0,0,0,5.63175,5.63175H93.51733a5.63791,5.63791,0,0,0,5.63175-5.63175V20.93417A5.63791,5.63791,0,0,0,93.51733,15.30242Zm-7.58012,8.06337h5.59068a1.12635,1.12635,0,1,1,0,2.2527H85.93721a1.12635,1.12635,0,1,1,0-2.2527Zm-12.23512,0h5.59068a1.12635,1.12635,0,1,1,0,2.2527H73.70209a1.12635,1.12635,0,0,1,0-2.2527Zm-55.23,0H29.65347a1.12635,1.12635,0,1,1,0,2.2527H18.47211a1.12635,1.12635,0,1,1,0-2.2527Zm78.42427,65.7a3.38274,3.38274,0,0,1-3.379,3.379H16.48267a3.38274,3.38274,0,0,1-3.379-3.379V32.888H96.89638Z" style="fill:#515151"/></svg>