<svg xmlns="http://www.w3.org/2000/svg" viewBox="0 0 110 110"><title>01_</title><path d="M93.51733,15.30242H16.48267a5.63791,5.63791,0,0,0-5.63175,5.63175V89.06583a5.63791,5.63791,0,0,0,5.63175,5.63175H93.51733a5.63791,5.63791,0,0,0,5.63175-5.63175V20.93417A5.63791,5.63791,0,0,0,93.51733,15.30242Zm-7.58012,8.06337h5.59068a1.12635,1.12635,0,1,1,0,2.2527H85.93721a1.12635,1.12635,0,1,1,0-2.2527Zm-12.23512,0h5.59068a1.12635,1.12635,0,1,1,0,2.2527H73.70209a1.12635,1.12635,0,0,1,0-2.2527Zm-55.23,0H29.65347a1.12635,1.12635,0,1,1,0,2.2527H18.47211a1.12635,1.12635,0,1,1,0-2.2527Zm78.42427,65.7a3.38274,3.38274,0,0,1-3.379,3.379H16.48267a3.38274,3.38274,0,0,1-3.379-3.379V41.32908H96.89638Zm0-49.98945H13.10362V32.888H96.89638Z" style="fill:#515151"/><path d="M34.57172,46.013H17.97127a.7509.7509,0,0,1,0-1.5018H34.57172a.7509.7509,0,1,1,0,1.5018Z" style="fill:#515151"/><path d="M34.57172,55.18919H20.73581a.7509.7509,0,0,1,0-1.5018H34.57172a.7509.7509,0,0,1,0,1.5018Z" style="fill:#515151"/><path d="M34.57172,59.77745H17.97127a.7509.7509,0,0,1,0-1.5018H34.57172a.7509.7509,0,0,1,0,1.5018Z" style="fill:#515151"/><path d="M34.57172,64.36534H20.73581a.7509.7509,0,1,1,0-1.50179H34.57172a.7509.7509,0,1,1,0,1.50179Z" style="fill:#515151"/><path d="M34.57172,68.95324H17.97127a.7509.7509,0,0,1,0-1.5018H34.57172a.7509.7509,0,0,1,0,1.5018Z" style="fill:#515151"/><path d="M34.57172,73.5415H20.73581a.7509.7509,0,0,1,0-1.5018H34.57172a.7509.7509,0,0,1,0,1.5018Z" style="fill:#515151"/><path d="M34.57172,78.12939H20.73581a.7509.7509,0,0,1,0-1.5018H34.57172a.7509.7509,0,0,1,0,1.5018Z" style="fill:#515151"/><path d="M41.69207,87.91345H10.85092V39.07638H41.69207Zm-28.58845-2.2527H39.43937V41.32908H13.10362Z" style="fill:#515151"/><path d="M39.25427,37.12193l.95529-1.6546a.5.5,0,0,0-.433-.75H37.866a.5.5,0,0,0-.433.75l.95529,1.6546A.5.5,0,0,0,39.25427,37.12193Z" style="fill:#515151"/><path d="M31.45373,36.89885H21.08926a.7509.7509,0,0,1,0-1.5018H31.45373a.7509.7509,0,0,1,0,1.5018Z" style="fill:#515151"/><path d="M60.18223,36.89885H49.81777a.7509.7509,0,0,1,0-1.5018H60.18223a.7509.7509,0,0,1,0,1.5018Z" style="fill:#515151"/><path d="M88.91074,36.89885H78.54627a.7509.7509,0,0,1,0-1.5018H88.91074a.7509.7509,0,0,1,0,1.5018Z" style="fill:#515151"/><path d="M12.62377,47.6389V52.103H40.56544V47.6389Zm5.3475,3.00621a.79488.79488,0,1,1,.7948-.79485A.79485.79485,0,0,1,17.97127,50.64511Zm16.60045-.04381H20.73581a.7509.7509,0,1,1,0-1.5018H34.57172a.7509.7509,0,0,1,0,1.5018Z" style="fill:#515151"/><circle cx="17.97121" cy="54.43832" r="0.79487" style="fill:#515151"/><circle cx="17.97121" cy="63.61443" r="0.79487" style="fill:#515151"/><circle cx="17.97121" cy="72.79054" r="0.79487" style="fill:#515151"/><circle cx="17.97121" cy="77.3786" r="0.79487" style="fill:#515151"/></svg>