<svg xmlns="http://www.w3.org/2000/svg" viewBox="0 0 110 110"><title>01_</title><path d="M61.70063,45.03835,48.29937,37.30113a2,2,0,0,0-3,1.73205V54.50762a2,2,0,0,0,3,1.732l13.40126-7.73722A2,2,0,0,0,61.70063,45.03835Z" style="fill:#515151"/><path d="M77.73818,61.16192H69.63667a.75071.75071,0,0,1-.7509-.7509v-8.1015a.75071.75071,0,0,1,.7509-.7509h8.10151a.75071.75071,0,0,1,.7509.7509V60.411A.75071.75071,0,0,1,77.73818,61.16192Zm-7.35061-1.5018h6.59971v-6.5997H70.38757Z" style="fill:#515151"/><path d="M77.73818,72.65274H69.63667a.75071.75071,0,0,1-.7509-.7509v-8.1015a.75071.75071,0,0,1,.7509-.7509h8.10151a.75071.75071,0,0,1,.7509.7509v8.1015A.75071.75071,0,0,1,77.73818,72.65274Zm-7.35061-1.5018h6.59971v-6.5997H70.38757Z" style="fill:#515151"/><path d="M66.23636,72.65274h-8.1015a.7507.7507,0,0,1-.7509-.7509v-8.1015a.7507.7507,0,0,1,.7509-.7509h8.1015a.7507.7507,0,0,1,.7509.7509v8.1015A.7507.7507,0,0,1,66.23636,72.65274Zm-7.3506-1.5018h6.5997v-6.5997h-6.5997Z" style="fill:#515151"/><path d="M73.41773,55.02773,72.014,57.45906a.31117.31117,0,0,0,.26949.46675h2.80745a.31116.31116,0,0,0,.26948-.46675l-1.40373-2.43133A.31117.31117,0,0,0,73.41773,55.02773Z" style="fill:#515151"/><path d="M73.95669,70.0716l1.40373-2.43133a.31117.31117,0,0,0-.26948-.46676H72.28349a.31118.31118,0,0,0-.26949.46676l1.40373,2.43133A.31117.31117,0,0,0,73.95669,70.0716Z" style="fill:#515151"/><path d="M60.409,68.56461l2.43132,1.40373a.31118.31118,0,0,0,.46676-.26949V66.8914a.31117.31117,0,0,0-.46676-.26948L60.409,68.02565A.31117.31117,0,0,0,60.409,68.56461Z" style="fill:#515151"/><path d="M89.27006,72.65274H81.16855a.7507.7507,0,0,1-.75089-.7509v-8.1015a.7507.7507,0,0,1,.75089-.7509h8.10151a.75071.75071,0,0,1,.7509.7509v8.1015A.75071.75071,0,0,1,89.27006,72.65274Zm-7.35061-1.5018h6.59971v-6.5997H81.91945Z" style="fill:#515151"/><path d="M86.99582,68.02549,84.5645,66.62176a.31118.31118,0,0,0-.46676.26949V69.6987a.31117.31117,0,0,0,.46676.26948l2.43132-1.40372A.31117.31117,0,0,0,86.99582,68.02549Z" style="fill:#515151"/><path d="M93.51733,15.30242H16.48267a5.63791,5.63791,0,0,0-5.63175,5.63175V89.06583a5.63791,5.63791,0,0,0,5.63175,5.63175H93.51733a5.63791,5.63791,0,0,0,5.63175-5.63175V20.93417A5.63791,5.63791,0,0,0,93.51733,15.30242ZM23.7049,85.99193l-3.97985,2.29775a.75089.75089,0,0,1-1.12635-.6503v-4.5955a.75089.75089,0,0,1,1.12635-.6503l3.97985,2.29775A.75093.75093,0,0,1,23.7049,85.99193Zm10.48592,1.51129a.75091.75091,0,0,1-.7509.75089H29.12559a.7509.7509,0,0,1-.7509-.75089V83.18884a.75091.75091,0,0,1,.7509-.7509h4.31433a.75091.75091,0,0,1,.7509.7509Zm6.55671,0a.75093.75093,0,0,1-.7509.75089h-.76057a.75093.75093,0,0,1-.7509-.75089V83.18884a.75094.75094,0,0,1,.7509-.7509h.76057a.75094.75094,0,0,1,.7509.7509Zm3.92471,0a.7509.7509,0,0,1-.7509.75089h-.76052a.7509.7509,0,0,1-.7509-.75089V83.18884a.75091.75091,0,0,1,.7509-.7509h.76052a.75091.75091,0,0,1,.7509.7509ZM96.89638,77.112H13.10362V20.93417a3.38274,3.38274,0,0,1,3.379-3.37905H93.51733a3.38274,3.38274,0,0,1,3.379,3.37905Z" style="fill:#515151"/></svg>