<svg xmlns="http://www.w3.org/2000/svg" viewBox="0 0 110 110"><title>01_</title><path d="M93.51733,15.30242H16.48267a5.63791,5.63791,0,0,0-5.63175,5.63175V89.06583a5.63791,5.63791,0,0,0,5.63175,5.63175H93.51733a5.63791,5.63791,0,0,0,5.63175-5.63175V20.93417A5.63791,5.63791,0,0,0,93.51733,15.30242Zm-7.58012,8.06337h5.59068a1.12635,1.12635,0,1,1,0,2.2527H85.93721a1.12635,1.12635,0,1,1,0-2.2527Zm-12.23512,0h5.59068a1.12635,1.12635,0,1,1,0,2.2527H73.70209a1.12635,1.12635,0,0,1,0-2.2527Zm-55.23,0H29.65347a1.12635,1.12635,0,1,1,0,2.2527H18.47211a1.12635,1.12635,0,1,1,0-2.2527Zm78.42427,65.7a3.38274,3.38274,0,0,1-3.379,3.379H16.48267a3.38274,3.38274,0,0,1-3.379-3.379V32.888H96.89638Z" style="fill:#515151"/><path d="M72.60287,75.715H37.39713a1.12635,1.12635,0,1,1,0-2.2527H72.60287a1.12635,1.12635,0,0,1,0,2.2527Z" style="fill:#515151"/><path d="M66.70861,82.11855H43.29139a1.12635,1.12635,0,0,1,0-2.2527H66.70861a1.12635,1.12635,0,0,1,0,2.2527Z" style="fill:#515151"/><path d="M85.036,49.604H24.964a1.1264,1.1264,0,0,0-1.12635,1.12635v8.53928a1.12089,1.12089,0,0,0,.07993.41079l.0055.01732a1.128,1.128,0,0,0,.613.61295l.01686.00527a1.1197,1.1197,0,0,0,.411.08H85.036a1.1264,1.1264,0,0,0,1.12635-1.12635V50.73036A1.1264,1.1264,0,0,0,85.036,49.604ZM49.1798,58.14329l6.28658-6.28658h3.85276l-6.28658,6.28658Zm-7.22961,0,6.28658-6.28658h4.04415l-6.28658,6.28658Zm-7.03749,0,6.28659-6.28658h3.852l-6.28658,6.28658Zm-7.2296,0,6.28658-6.28658h4.04415l-6.28658,6.28658Zm3.10112-6.28658-4.69385,4.69385V51.85671Zm53.12541,6.28658H56.218l6.28659-6.28658h21.405Z" style="fill:#515151"/></svg>