<svg xmlns="http://www.w3.org/2000/svg" viewBox="0 0 110 110"><title>01_</title><path d="M23.02844,38.42283l-4.17835,2.15224a.37475.37475,0,0,0-.20385.33365v.48691a.37476.37476,0,0,0,.20385.33366l4.17835,2.1515a.37509.37509,0,0,0,.547-.33365V42.926a.37494.37494,0,0,0-.20752-.33585l-2.86941-1.438,2.87014-1.43874a.37558.37558,0,0,0,.20679-.33585v-.6211a.37509.37509,0,0,0-.547-.33366Z" style="fill:#515151"/><path d="M27.36371,37.00316h-.61157a.375.375,0,0,0-.35052.24053L23.88933,43.773a.37558.37558,0,0,0,.35052.51038h.60277a.37574.37574,0,0,0,.35052-.24052l2.52109-6.52931a.37559.37559,0,0,0-.35052-.51038Z" style="fill:#515151"/><path d="M32.7344,40.56554,28.55606,38.4221a.37577.37577,0,0,0-.547.33439v.6211a.3748.3748,0,0,0,.20826.33585l2.88994,1.43874-2.88994,1.438a.3748.3748,0,0,0-.20826.33585v.62111a.37524.37524,0,0,0,.37545.37545.38374.38374,0,0,0,.1716-.04107l4.17834-2.1427a.37585.37585,0,0,0,.20386-.33439v-.50451A.37584.37584,0,0,0,32.7344,40.56554Z" style="fill:#515151"/><path d="M91.089,55.75072H18.911a.7509.7509,0,1,1,0-1.5018H91.089a.7509.7509,0,1,1,0,1.5018Z" style="fill:#515151"/><path d="M91.089,61.31647H18.911a.7509.7509,0,1,1,0-1.5018H91.089a.7509.7509,0,0,1,0,1.5018Z" style="fill:#515151"/><path d="M91.089,66.88222H18.911a.7509.7509,0,1,1,0-1.5018H91.089a.7509.7509,0,0,1,0,1.5018Z" style="fill:#515151"/><path d="M91.089,72.448H18.911a.7509.7509,0,1,1,0-1.5018H91.089a.7509.7509,0,1,1,0,1.5018Z" style="fill:#515151"/><path d="M91.089,78.013H18.911a.7509.7509,0,1,1,0-1.50179H91.089a.7509.7509,0,1,1,0,1.50179Z" style="fill:#515151"/><path d="M91.089,83.57873H18.911a.7509.7509,0,1,1,0-1.5018H91.089a.7509.7509,0,1,1,0,1.5018Z" style="fill:#515151"/><path d="M98.281,57.24647a7.83281,7.83281,0,0,1-1.38465-.12979V89.06584a3.38275,3.38275,0,0,1-3.379,3.379H16.48263a3.38274,3.38274,0,0,1-3.379-3.379V32.888H96.89635v8.864a7.4375,7.4375,0,0,1,2.25269-.07883v-20.739a5.6379,5.6379,0,0,0-5.63174-5.63174H16.48263a5.6379,5.6379,0,0,0-5.63174,5.63174V89.06584a5.6379,5.6379,0,0,0,5.63174,5.63174H93.5173A5.6379,5.6379,0,0,0,99.149,89.06584V57.19551A7.86429,7.86429,0,0,1,98.281,57.24647ZM85.93717,23.3658h5.59068a1.12635,1.12635,0,1,1,0,2.25269H85.93717a1.12635,1.12635,0,1,1,0-2.25269Zm-12.23511,0h5.59068a1.12635,1.12635,0,1,1,0,2.25269H73.70206a1.12635,1.12635,0,1,1,0-2.25269Zm-55.23,0H29.65344a1.12635,1.12635,0,1,1,0,2.25269H18.47208a1.12635,1.12635,0,1,1,0-2.25269Z" style="fill:#515151"/><path d="M91.089,48.68317H82.62064l.78628,1.36174a1.10075,1.10075,0,0,1,.05793.14006H91.089a.7509.7509,0,0,0,0-1.5018Z" style="fill:#515151"/><path d="M65.77838,50.04491l.78628-1.36174H18.911a.7509.7509,0,1,0,0,1.5018H65.72045A1.09929,1.09929,0,0,1,65.77838,50.04491Z" style="fill:#515151"/><path d="M83.40692,50.04491l-7.839-13.577a1.12607,1.12607,0,0,0-1.95058,0l-7.839,13.57705a1.12636,1.12636,0,0,0,.97529,1.68953h15.678a1.12636,1.12636,0,0,0,.97529-1.68953ZM73.81168,39.28007a.0931.0931,0,0,1,.06747-.0286h1.40207a.09394.09394,0,0,1,.09386.09679l-.20459,7.01255a.09394.09394,0,0,1-.09386.09093h-.99289a.09393.09393,0,0,1-.09386-.09093l-.20459-7.01255A.094.094,0,0,1,73.81168,39.28007Zm.7685,10.16647a1.0005,1.0005,0,0,1,0-1.999,1.0005,1.0005,0,0,1,0,1.999Z" style="fill:#515151"/><path d="M98.281,41.62222a7.81213,7.81213,0,1,0,7.81222,7.81222A7.81219,7.81219,0,0,0,98.281,41.62222Zm3.27382,9.49331a1.12623,1.12623,0,1,1-1.59273,1.59273L98.281,51.02717l-1.68109,1.68109a1.12623,1.12623,0,1,1-1.59273-1.59273l1.68109-1.68109-1.68109-1.68109a1.12623,1.12623,0,1,1,1.59273-1.59273L98.281,47.84171l1.68109-1.68109a1.12623,1.12623,0,1,1,1.59273,1.59273l-1.68109,1.68109Z" style="fill:#515151"/></svg>