<svg xmlns="http://www.w3.org/2000/svg" viewBox="0 0 110 110"><title>01_</title><path d="M93.51733,15.30242H16.48267a5.63791,5.63791,0,0,0-5.63175,5.63175V89.06583a5.63791,5.63791,0,0,0,5.63175,5.63175H93.51733a5.63791,5.63791,0,0,0,5.63175-5.63175V20.93417A5.63791,5.63791,0,0,0,93.51733,15.30242Zm-7.58012,8.06337h5.59068a1.12635,1.12635,0,1,1,0,2.2527H85.93721a1.12635,1.12635,0,1,1,0-2.2527Zm-12.23512,0h5.59068a1.12635,1.12635,0,1,1,0,2.2527H73.70209a1.12635,1.12635,0,0,1,0-2.2527Zm-55.23,0H29.65347a1.12635,1.12635,0,1,1,0,2.2527H18.47211a1.12635,1.12635,0,1,1,0-2.2527Zm78.42427,65.7a3.38274,3.38274,0,0,1-3.379,3.379H16.48267a3.38274,3.38274,0,0,1-3.379-3.379V32.888H96.89638Z" style="fill:#515151"/><path d="M85.036,78.101H24.964a1.12635,1.12635,0,0,1,0-2.2527H85.036a1.12635,1.12635,0,0,1,0,2.2527Z" style="fill:#515151"/><path d="M85.036,84.23357H24.964a1.12635,1.12635,0,0,1,0-2.2527H85.036a1.12635,1.12635,0,0,1,0,2.2527Z" style="fill:#515151"/><path d="M30.42124,62.20816h-.92542a.37523.37523,0,0,0-.37545.37545v2.59075h-2.678V62.58361a.37523.37523,0,0,0-.37545-.37545h-.91516a.37524.37524,0,0,0-.37545.37545v7.08955a.37524.37524,0,0,0,.37545.37545h.91516a.37523.37523,0,0,0,.37545-.37545V66.72529h2.678v2.94787a.37523.37523,0,0,0,.37545.37545h.92542a.37524.37524,0,0,0,.37545-.37545V62.58361A.37524.37524,0,0,0,30.42124,62.20816Z" style="fill:#515151"/><path d="M34.51966,64.09128a2.82928,2.82928,0,0,0-2.76308,3.12092,2.72785,2.72785,0,0,0,2.87894,2.942,4.45794,4.45794,0,0,0,1.84791-.34978.37456.37456,0,0,0,.21046-.429l-.15766-.66217a.375.375,0,0,0-.19579-.24786.37127.37127,0,0,0-.31532-.011,2.97917,2.97917,0,0,1-1.26348.23319,1.23431,1.23431,0,0,1-1.3324-1.01635H36.592a.426.426,0,0,0,.37839-.37985,3.46515,3.46515,0,0,0,.02859-.42678A2.51051,2.51051,0,0,0,34.51966,64.09128Zm-.07333,1.4138a.81658.81658,0,0,1,.6145.22366,1.05562,1.05562,0,0,1,.25812.52871H33.5011A1.006,1.006,0,0,1,34.44633,65.50508Z" style="fill:#515151"/><path d="M42.24424,66.5493a2.15315,2.15315,0,0,0-2.31063-2.458,3.5357,3.5357,0,0,0-1.87651.51184.37507.37507,0,0,0-.15106.43778l.21045.61011a.37351.37351,0,0,0,.23246.23245.3778.3778,0,0,0,.32632-.03959,2.17812,2.17812,0,0,1,1.12121-.31826c.45318,0,.69151.16426.76044.53971a3.63618,3.63618,0,0,0-2.472.8455,1.923,1.923,0,0,0-.56757,1.416,1.82421,1.82421,0,0,0,1.93224,1.83765,2.37321,2.37321,0,0,0,1.30308-.37985.37474.37474,0,0,0,.35858.264h.84183a.37574.37574,0,0,0,.36958-.44218,6.76747,6.76747,0,0,1-.07846-1.15348Zm-2.55262,2.18084a.45041.45041,0,0,1-.49791-.50891.54387.54387,0,0,1,.16059-.41725,1.86133,1.86133,0,0,1,1.24515-.35125v.506a.6062.6062,0,0,1-.03227.17306A.88914.88914,0,0,1,39.69162,68.73014Z" style="fill:#515151"/><path d="M48.657,62.20523a.37523.37523,0,0,0-.37545-.37545h-.92542a.37523.37523,0,0,0-.37545.37545V64.3868a2.36836,2.36836,0,0,0-1.18135-.29552,2.50009,2.50009,0,0,0-1.78485.745,3.27711,3.27711,0,0,0-.87336,2.36489,2.6886,2.6886,0,0,0,2.55262,2.96327,2.4153,2.4153,0,0,0,1.42553-.448.376.376,0,0,0,.37325.33219h.83083a.37587.37587,0,0,0,.374-.40918c-.02566-.28672-.04033-.74137-.04033-1.28108Zm-2.7,6.46184c-.8323,0-1.12855-.77876-1.12855-1.50766,0-.734.30139-1.59127,1.14982-1.59127a.99117.99117,0,0,1,.97309.7949,1.28839,1.28839,0,0,1,.02933.29186v.88289a1.23925,1.23925,0,0,1-.03227.31239A1.01135,1.01135,0,0,1,45.95694,68.66707Z" style="fill:#515151"/><path d="M52.35939,64.09128a2.82928,2.82928,0,0,0-2.76308,3.12092,2.72785,2.72785,0,0,0,2.87894,2.942,4.45794,4.45794,0,0,0,1.84791-.34978.37456.37456,0,0,0,.21046-.429l-.15766-.66217a.375.375,0,0,0-.19579-.24786.37118.37118,0,0,0-.31532-.011,2.97917,2.97917,0,0,1-1.26348.23319,1.23431,1.23431,0,0,1-1.3324-1.01635h3.16272a.426.426,0,0,0,.37839-.37985,3.46515,3.46515,0,0,0,.02859-.42678A2.51051,2.51051,0,0,0,52.35939,64.09128Zm-.07333,1.4138a.81658.81658,0,0,1,.6145.22366,1.05562,1.05562,0,0,1,.25812.52871H51.34083A1.006,1.006,0,0,1,52.28606,65.50508Z" style="fill:#515151"/><path d="M58.73763,64.13454a1.70571,1.70571,0,0,0-1.47173.36445A.37578.37578,0,0,0,56.9,64.20714h-.80956a.37523.37523,0,0,0-.37472.40038c.0286.42532.04107.90709.04107,1.5634v3.50224a.37523.37523,0,0,0,.37545.37545h.91515a.37523.37523,0,0,0,.37545-.37545V66.96a2.228,2.228,0,0,1,.03594-.36518.944.944,0,0,1,.87189-.88.958.958,0,0,1,.23026.02274.376.376,0,0,0,.46051-.36592v-.87336A.37423.37423,0,0,0,58.73763,64.13454Z" style="fill:#515151"/><path d="M65.4576,62.46042h-.7883a.37711.37711,0,0,0-.17746.04473l-1.49373.7993a.37518.37518,0,0,0-.18626.42311l.17892.70544a.37438.37438,0,0,0,.54191.23759l.65557-.35346v5.356a.37524.37524,0,0,0,.37545.37545h.8939a.37524.37524,0,0,0,.37545-.37545V62.83587A.37523.37523,0,0,0,65.4576,62.46042Z" style="fill:#515151"/><path d="M78.23975,61.92951a.75091.75091,0,0,1-.7509-.7509V58.01075H60.96833a.75047.75047,0,0,1-.7509-.7509V40.39395a.75047.75047,0,0,1,.7509-.7509H90.087a.75047.75047,0,0,1,.7509.7509v16.8659a.75047.75047,0,0,1-.7509.7509H82.4687l-3.698,3.69877A.75071.75071,0,0,1,78.23975,61.92951ZM61.71923,56.509H78.23975a.75047.75047,0,0,1,.7509.7509v2.106l2.63622-2.63695a.75036.75036,0,0,1,.53091-.22h7.17827V41.14484H61.71923Z" style="fill:#515151"/><path d="M69.27149,46.81326l-4.17834,2.15223a.37474.37474,0,0,0-.20386.33365v.48618a.37473.37473,0,0,0,.20386.33365l4.17834,2.15224a.37509.37509,0,0,0,.547-.33365v-.62111a.37494.37494,0,0,0-.20752-.33585L66.7416,49.54187l2.86941-1.438a.37493.37493,0,0,0,.20752-.33585v-.6211a.37509.37509,0,0,0-.547-.33365Z" style="fill:#515151"/><path d="M73.33691,47.10438a2.00053,2.00053,0,0,0-.99216.27205l-.0286.01613V45.54391a.37523.37523,0,0,0-.37545-.37545h-.792a.37524.37524,0,0,0-.37545.37545v6.39365a.37524.37524,0,0,0,.37545.37545h.792a.37523.37523,0,0,0,.37545-.37545V49.30794a.6488.6488,0,0,1,.0352-.25958.76968.76968,0,0,1,.70617-.53531c.17306,0,.63357,0,.63357.921v2.50349a.37524.37524,0,0,0,.37545.37545h.792a.37524.37524,0,0,0,.37545-.37545V49.34388C75.234,47.691,74.21173,47.10438,73.33691,47.10438Z" style="fill:#515151"/><path d="M78.833,45.70817h-.67537a.37707.37707,0,0,0-.17745.04473l-1.27888.68491a.3752.3752,0,0,0-.18626.42311l.15326.60351a.37438.37438,0,0,0,.54191.23759l.48178-.25959v4.49513a.37523.37523,0,0,0,.37545.37545H78.833a.37523.37523,0,0,0,.37545-.37545V46.08362A.37523.37523,0,0,0,78.833,45.70817Z" style="fill:#515151"/><path d="M85.95994,48.956l-4.17835-2.14344a.37578.37578,0,0,0-.547.33439v.6211a.37478.37478,0,0,0,.20826.33585l2.89067,1.438L81.44281,50.9806a.37479.37479,0,0,0-.20826.33585v.62111A.37524.37524,0,0,0,81.61,52.313a.38353.38353,0,0,0,.17159-.04107l4.17835-2.14343a.37587.37587,0,0,0,.20386-.33439v-.50378A.37586.37586,0,0,0,85.95994,48.956Z" style="fill:#515151"/></svg>