<svg xmlns="http://www.w3.org/2000/svg" viewBox="0 0 110 110"><title>01_</title><path d="M93.51733,15.30242H16.48267a5.63791,5.63791,0,0,0-5.63175,5.63175V89.06583a5.63791,5.63791,0,0,0,5.63175,5.63175H93.51733a5.63791,5.63791,0,0,0,5.63175-5.63175V20.93417A5.63791,5.63791,0,0,0,93.51733,15.30242Zm-7.58012,8.06337h5.59068a1.12635,1.12635,0,1,1,0,2.2527H85.93721a1.12635,1.12635,0,1,1,0-2.2527Zm-12.23512,0h5.59068a1.12635,1.12635,0,1,1,0,2.2527H73.70209a1.12635,1.12635,0,0,1,0-2.2527Zm-55.23,0H29.65347a1.12635,1.12635,0,1,1,0,2.2527H18.47211a1.12635,1.12635,0,1,1,0-2.2527Zm78.42427,65.7a3.38274,3.38274,0,0,1-3.379,3.379H16.48267a3.38274,3.38274,0,0,1-3.379-3.379V32.888H96.89638Z" style="fill:#515151"/><path d="M42.33819,71.425c-.05347-.15619-.09985-.30725-.1416-.45392-.04468.15625-.08814.30139-.13281.4422l-.50293,1.48639h1.2788Z" style="fill:#515151"/><path d="M27.91482,83.88012h-.0176l-1.00389.54118-.15106-.59471,1.26128-.67464h.66584v5.77181h-.75457Z" style="fill:#515151;stroke:#515151;stroke-linecap:round;stroke-linejoin:round;stroke-width:0.5px"/><path d="M60.80328,71.11626c0-.19507,0-.789-1.12622-.789a4.27169,4.27169,0,0,0-.49585.02417v1.58026h.51343C60.36846,71.93169,60.80328,71.612,60.80328,71.11626Z" style="fill:#515151"/><path d="M86.56133,65.79473H22.84991a1.12653,1.12653,0,0,0-1.12622,1.12634V93.61028a1.12653,1.12653,0,0,0,1.12622,1.12634H86.56133a1.12654,1.12654,0,0,0,1.12623-1.12634V66.92107A1.12654,1.12654,0,0,0,86.56133,65.79473ZM32.21856,92.48394H23.97613V80.32653h8.24243Zm0-14.4101H23.97613V68.04741h8.24243Zm9.3562-8.54443a.18687.18687,0,0,1,.17749-.12757h.93189a.18718.18718,0,0,1,.17749.12683l2.04223,5.9845a.18764.18764,0,0,1-.17749.24854h-.82568a.18733.18733,0,0,1-.17749-.12757L43.127,73.87938H41.275l-.57862,1.7533a.18862.18862,0,0,1-.17822.129h-.79931a.18736.18736,0,0,1-.17749-.24781Zm8.38233,22.95453H34.47125V80.32653H49.95709ZM58.033,69.66875a.18824.18824,0,0,1,.14966-.18408,7.76885,7.76885,0,0,1,1.4502-.1283,2.66037,2.66037,0,0,1,1.76074.47736,1.43494,1.43494,0,0,1,.56689,1.20264,1.53565,1.53565,0,0,1-.748,1.30084,1.66827,1.66827,0,0,1,.97021,1.53186,1.79721,1.79721,0,0,1-.5625,1.33319,3.14175,3.14175,0,0,1-2.20068.613,9.27032,9.27032,0,0,1-1.22461-.07264.18858.18858,0,0,1-.16187-.18628Zm9.6626,22.81519H52.20977V80.32653H67.69561ZM78.56109,69.30358a3.3012,3.3012,0,0,1,1.5083.28814.188.188,0,0,1,.09229.22l-.18628.62988a.18614.18614,0,0,1-.10327.118.18272.18272,0,0,1-.15772-.0022,2.5981,2.5981,0,0,0-1.12646-.23022,2.03712,2.03712,0,0,0-2.14771,2.28058,1.9914,1.9914,0,0,0,2.11182,2.21893,2.90792,2.90792,0,0,0,1.1792-.22949.19467.19467,0,0,1,.16064-.0022.19059.19059,0,0,1,.10327.12317l.15991.6123a.18824.18824,0,0,1-.09814.21558,3.99606,3.99606,0,0,1-1.66479.30432,2.98024,2.98024,0,0,1-3.14429-3.21551A3.17869,3.17869,0,0,1,78.56109,69.30358Zm6.87378,23.18036H69.9483V80.32653H85.43487Z" style="fill:#515151"/><path d="M60.99029,73.86028c0-.87262-.94873-.96649-1.35742-.96649h-.45166v1.92785c.1167.00953.26758.01392.46045.01392C60.25689,74.83556,60.99029,74.66619,60.99029,73.86028Z" style="fill:#515151"/><path d="M61.25139,61.92951a.7509.7509,0,0,1-.7509-.7509V58.01075H43.9807a.75047.75047,0,0,1-.7509-.7509V40.39395a.75047.75047,0,0,1,.7509-.7509H73.09858a.75047.75047,0,0,1,.7509.7509v16.8659a.75047.75047,0,0,1-.7509.7509H65.48033l-3.698,3.69877A.7507.7507,0,0,1,61.25139,61.92951ZM44.7316,56.509H61.25139a.75046.75046,0,0,1,.75089.7509v2.106l2.63622-2.63695a.75036.75036,0,0,1,.53091-.22h7.17828V41.14484H44.7316Z" style="fill:#515151"/><path d="M53.103,46.81326l-4.17834,2.15223a.37474.37474,0,0,0-.20386.33365v.48618a.37473.37473,0,0,0,.20386.33365L53.103,52.27121a.37508.37508,0,0,0,.547-.33365v-.62111a.37494.37494,0,0,0-.20752-.33585l-2.8694-1.43873,2.8694-1.438A.37493.37493,0,0,0,53.65,47.768v-.6211a.37508.37508,0,0,0-.547-.33365Z" style="fill:#515151"/><path d="M57.06937,47.20337h-.7597v-.87629a.37569.37569,0,0,0-.47224-.363l-.77437.2068a.37586.37586,0,0,0-.27865.363v.6695h-.29992a.37524.37524,0,0,0-.37545.37545v.60351a.37524.37524,0,0,0,.37545.37545h.29992v2.00191a1.927,1.927,0,0,0,.39965,1.383,1.47752,1.47752,0,0,0,1.13735.46051,2.3109,2.3109,0,0,0,.84623-.13639.375.375,0,0,0,.231-.36958l-.03594-.59471a.37316.37316,0,0,0-.15619-.28232.38172.38172,0,0,0-.31752-.0572,1.3787,1.3787,0,0,1-.36.04107c-.11293,0-.21926,0-.21926-.47151V48.55778h.7597a.37523.37523,0,0,0,.37545-.37545v-.60351A.37523.37523,0,0,0,57.06937,47.20337Z" style="fill:#515151"/><path d="M60.60168,47.10438a2.00049,2.00049,0,0,0-.99215.27205l-.0286.01613V45.54391a.37524.37524,0,0,0-.37545-.37545h-.792a.37524.37524,0,0,0-.37545.37545v6.39365a.37524.37524,0,0,0,.37545.37545h.792a.37524.37524,0,0,0,.37545-.37545V49.30794a.64862.64862,0,0,1,.0352-.25958.76965.76965,0,0,1,.70616-.53531c.17306,0,.63358,0,.63358.921v2.50349a.37523.37523,0,0,0,.37544.37545h.792a.37524.37524,0,0,0,.37545-.37545V49.34388C62.49873,47.691,61.47651,47.10438,60.60168,47.10438Z" style="fill:#515151"/><path d="M68.15174,48.956,63.9734,46.81252a.37578.37578,0,0,0-.547.33439v.6211a.3748.3748,0,0,0,.20826.33585l2.89067,1.438L63.63461,50.9806a.37481.37481,0,0,0-.20826.33585v.62111a.37524.37524,0,0,0,.37545.37545.38361.38361,0,0,0,.1716-.04107l4.17834-2.14343a.37585.37585,0,0,0,.20386-.33439v-.50378A.37584.37584,0,0,0,68.15174,48.956Z" style="fill:#515151"/></svg>