<svg xmlns="http://www.w3.org/2000/svg" viewBox="0 0 110 110"><title>01_</title><path d="M93.51733,15.30242H16.48267a5.63791,5.63791,0,0,0-5.63175,5.63175V89.06583a5.63791,5.63791,0,0,0,5.63175,5.63175H93.51733a5.63791,5.63791,0,0,0,5.63175-5.63175V20.93417A5.63791,5.63791,0,0,0,93.51733,15.30242Zm-7.58012,8.06337h5.59068a1.12635,1.12635,0,1,1,0,2.2527H85.93721a1.12635,1.12635,0,1,1,0-2.2527Zm-12.23512,0h5.59068a1.12635,1.12635,0,1,1,0,2.2527H73.70209a1.12635,1.12635,0,0,1,0-2.2527Zm-55.23,0H29.65347a1.12635,1.12635,0,1,1,0,2.2527H18.47211a1.12635,1.12635,0,1,1,0-2.2527Zm78.42427,65.7a3.38274,3.38274,0,0,1-3.379,3.379H16.48267a3.38274,3.38274,0,0,1-3.379-3.379V32.888H96.89638Z" style="fill:#515151"/><path d="M63.36036,70.40371a1.12608,1.12608,0,0,0-1.58906-.106l-.47445.41491V67.5761a1.12635,1.12635,0,1,0-2.2527,0v3.1361l-.47371-.41446a1.12615,1.12615,0,1,0-1.48273,1.69539L59.42913,74.042a1.12556,1.12556,0,0,0,1.48274,0L63.254,71.99313A1.12579,1.12579,0,0,0,63.36036,70.40371Z" style="fill:#515151"/><path d="M33.55537,59.21318l-2.04885-2.3418a1.12639,1.12639,0,0,0-1.69539,1.48347l.4145.47371H19.59846V43.26939a1.12635,1.12635,0,0,0-2.2527,0V59.95491a1.1264,1.1264,0,0,0,1.12635,1.12635H30.22545l-.41432.47334a1.12639,1.12639,0,0,0,1.69539,1.48347l2.04885-2.34143A1.126,1.126,0,0,0,33.55537,59.21318Z" style="fill:#515151"/><path d="M85.036,48.66539H24.964A1.12641,1.12641,0,0,1,23.83767,47.539V38.99975A1.12641,1.12641,0,0,1,24.964,37.8734H85.036a1.12641,1.12641,0,0,1,1.12635,1.12635V47.539A1.12641,1.12641,0,0,1,85.036,48.66539Zm-58.94561-2.2527H83.90963V40.1261H26.09037Z" style="fill:#515151"/><path d="M85.036,65.24091H37.54672a1.12641,1.12641,0,0,1-1.12635-1.12635V55.57527a1.12642,1.12642,0,0,1,1.12635-1.12635H85.036a1.12642,1.12642,0,0,1,1.12635,1.12635v8.53929A1.12641,1.12641,0,0,1,85.036,65.24091Zm-46.36291-2.2527H83.90963V56.70162H38.67307Z" style="fill:#515151"/><path d="M85.036,86.32146H37.54672a1.12641,1.12641,0,0,1-1.12635-1.12635V76.65582a1.1264,1.1264,0,0,1,1.12635-1.12634H85.036a1.1264,1.1264,0,0,1,1.12635,1.12634v8.53929A1.12641,1.12641,0,0,1,85.036,86.32146Zm-46.36291-2.2527H83.90963V77.78217H38.67307Z" style="fill:#515151"/></svg>
