<svg xmlns="http://www.w3.org/2000/svg" viewBox="0 0 110 110"><path d="M93.51733,94.69758H16.48267a5.63791,5.63791,0,0,1-5.63175-5.63175V20.93417a5.63791,5.63791,0,0,1,5.63175-5.63175H93.51733a5.63791,5.63791,0,0,1,5.63175,5.63175V89.06583A5.63791,5.63791,0,0,1,93.51733,94.69758ZM16.48267,17.55512a3.38274,3.38274,0,0,0-3.379,3.37905V89.06583a3.38274,3.38274,0,0,0,3.379,3.379H93.51733a3.38274,3.38274,0,0,0,3.379-3.379V20.93417a3.38274,3.38274,0,0,0-3.379-3.37905Z" style="fill:#a56140"/><path d="M85.036,50.6343H24.964a1.12635,1.12635,0,1,1,0-2.2527H85.036a1.12635,1.12635,0,0,1,0,2.2527Z" style="fill:#a56140"/><path d="M52.40778,39.65019H24.964a1.12635,1.12635,0,1,1,0-2.2527H52.40778a1.12635,1.12635,0,0,1,0,2.2527Z" style="fill:#a56140"/><path d="M85.036,61.6184H24.964a1.12635,1.12635,0,1,1,0-2.2527H85.036a1.12635,1.12635,0,0,1,0,2.2527Z" style="fill:#a56140"/><path d="M85.036,72.60251H24.964a1.12635,1.12635,0,1,1,0-2.2527H85.036a1.12635,1.12635,0,1,1,0,2.2527Z" style="fill:#a56140"/><path d="M85.036,83.58661H24.964a1.12635,1.12635,0,1,1,0-2.2527H85.036a1.12635,1.12635,0,1,1,0,2.2527Z" style="fill:#a56140"/><path d="M29.63441,27.45687a.37627.37627,0,0,0-.35565-.25408h-1.262a.376.376,0,0,0-.35565.25482L24.909,35.55874a.37586.37586,0,0,0,.35565.49608h1.08162a.37483.37483,0,0,0,.35638-.25776l.756-2.29046h2.33263L30.5701,35.8a.376.376,0,0,0,.35565.25482H32.0433A.37614.37614,0,0,0,32.399,35.558Zm-.31459,4.48157H27.92729l.6277-1.85488c.022-.06967.044-.13933.06526-.20863.02347.07516.0484.15106.0748.22842Z" style="fill:#a56140"/><path d="M40.05754,31.28543a2.16729,2.16729,0,0,0,.90269-1.74782,2.056,2.056,0,0,0-.81249-1.72215,3.70677,3.70677,0,0,0-2.45949-.67244,10.57379,10.57379,0,0,0-1.988.176.37584.37584,0,0,0-.29845.36739v7.96877a.375.375,0,0,0,.32411.37178,12.40725,12.40725,0,0,0,1.6734.1001,4.35464,4.35464,0,0,0,3.06152-.86309,2.545,2.545,0,0,0,.8-1.89229A2.35049,2.35049,0,0,0,40.05754,31.28543Zm-.90563-1.63965c0,.60607-.52871.98262-1.37933.98262H37.1984v-1.908c.15546-.0143.33952-.02127.55-.02127C39.15191,28.69908,39.15191,29.38692,39.15191,29.64578Zm-1.95351,2.527h.48985c.6409,0,1.71592.15436,1.71592,1.18684,0,.99143-.92689,1.19932-1.70419,1.19932-.198,0-.36445-.00367-.50158-.01137Z" style="fill:#a56140"/><path d="M50.64346,34.49106a.37522.37522,0,0,0-.52724-.24309,3.86471,3.86471,0,0,1-1.54286.29882,2.58407,2.58407,0,0,1-2.73741-2.88187,2.64588,2.64588,0,0,1,2.7858-2.96584,3.38484,3.38484,0,0,1,1.47027.29882.37525.37525,0,0,0,.52431-.23135l.25226-.85356a.37573.37573,0,0,0-.18626-.43925,4.59611,4.59611,0,0,0-2.09651-.403,4.41863,4.41863,0,0,0-4.60659,4.63006,4.1481,4.1481,0,0,0,4.3778,4.47423,5.55391,5.55391,0,0,0,2.3077-.42421.3746.3746,0,0,0,.19506-.43045Z" style="fill:#a56140"/><path d="M70.84369,28.85491h-.90123a.381.381,0,0,0-.17746.04437l-1.70639.91369a.3752.3752,0,0,0-.18626.42311l.20386.80517a.37469.37469,0,0,0,.54191.23832l.82863-.44731v6.21068a.37523.37523,0,0,0,.37545.37545h1.02149a.37523.37523,0,0,0,.37545-.37545V29.23036A.37524.37524,0,0,0,70.84369,28.85491Z" style="fill:#a56140"/><path d="M78.97819,35.7901H76.40137c1.56706-1.51317,2.76014-2.80561,2.76014-4.42034A2.56425,2.56425,0,0,0,76.394,28.72292a3.79941,3.79941,0,0,0-2.45363.88179.376.376,0,0,0-.09973.44108l.33586.7454a.37584.37584,0,0,0,.583.13419,2.31751,2.31751,0,0,1,1.4182-.57417,1.02117,1.02117,0,0,1,1.17475,1.14725c-.01027,1.00939-.83083,1.95241-2.79461,3.82049l-.82936.80553a.37637.37637,0,0,0-.11366.26949v.649a.37523.37523,0,0,0,.37545.37545h4.98791a.37523.37523,0,0,0,.37545-.37545v-.87739A.37523.37523,0,0,0,78.97819,35.7901Z" style="fill:#a56140"/><path d="M86.67856,30.71786a2.73008,2.73008,0,0,0-1.75991.58334l-.00513-.09386a.37517.37517,0,0,0-.37472-.35712h-.94889a.3766.3766,0,0,0-.27132.1155.38075.38075,0,0,0-.10413.27572c.02347.54851.04767,1.14431.04767,1.88311v6.29832a.37523.37523,0,0,0,.37545.37545h1.04568a.37523.37523,0,0,0,.37545-.37545V37.14524a2.63445,2.63445,0,0,0,1.43947.40551c1.45414,0,3.01973-1.09555,3.01973-3.50077C89.51791,32.1192,88.3241,30.71786,86.67856,30.71786Zm-.32411,1.59236c.93643,0,1.35514.89793,1.35514,1.78815,0,1.17219-.52064,1.87212-1.3918,1.87212a1.25129,1.25129,0,0,1-1.21728-.92836,2.073,2.073,0,0,1-.0418-.367v-.99766a1.40524,1.40524,0,0,1,.06087-.33915A1.31311,1.31311,0,0,1,86.35445,32.31022Z" style="fill:#a56140"/><path d="M93.5628,32.40628a.37523.37523,0,0,0,.37545-.37545v-.80516a.37524.37524,0,0,0-.37545-.37545H92.42325V29.55485a.37586.37586,0,0,0-.14666-.29772.36962.36962,0,0,0-.32559-.0649l-1.03322.27645a.37545.37545,0,0,0-.27865.36262v1.01892h-.52578a.37524.37524,0,0,0-.37545.37545v.80516a.37523.37523,0,0,0,.37545.37545h.52578v2.79754a2.4528,2.4528,0,0,0,.50158,1.76176,1.81936,1.81936,0,0,0,1.42406.57307,2.96452,2.96452,0,0,0,1.08089-.17269.37641.37641,0,0,0,.23172-.37L93.829,36.203a.37255.37255,0,0,0-.15619-.28232.377.377,0,0,0-.31678-.0572,1.9879,1.9879,0,0,1-.51478.059c-.18626,0-.418,0-.418-.75457V32.40628Z" style="fill:#a56140"/><path d="M64.6385,26.78884H60.47189a.7509.7509,0,0,0,0,1.5018H63.8876v9.4823H60.47189a.7509.7509,0,0,0,0,1.5018H64.6385a.7507.7507,0,0,0,.7509-.7509V27.53974A.7507.7507,0,0,0,64.6385,26.78884Z" style="fill:#a56140"/></svg>