<svg xmlns="http://www.w3.org/2000/svg" viewBox="0 0 110 110"><path d="M93.517,94.69758H16.483a5.6379,5.6379,0,0,1-5.63174-5.63175V20.93417A5.6379,5.6379,0,0,1,16.483,15.30242H93.517a5.6379,5.6379,0,0,1,5.63174,5.63175V89.06583A5.6379,5.6379,0,0,1,93.517,94.69758ZM16.483,17.55512a3.38274,3.38274,0,0,0-3.379,3.37905V89.06583a3.38274,3.38274,0,0,0,3.379,3.379H93.517a3.38274,3.38274,0,0,0,3.379-3.379V20.93417a3.38274,3.38274,0,0,0-3.379-3.37905Z" style="fill:#a56140"/><path d="M65.35713,81.23932H30.67863a1.12635,1.12635,0,1,1,0-2.2527h34.6785a1.12635,1.12635,0,0,1,0,2.2527Z" style="fill:#a56140"/><path d="M25.52719,86.74787a1.13875,1.13875,0,0,1-.796-.33035,1.12427,1.12427,0,0,1-.33036-.796,1.07142,1.07142,0,0,1,.02237-.21779.97694.97694,0,0,1,.06746-.21009.94617.94617,0,0,1,.0979-.19542,1.57892,1.57892,0,0,1,.14263-.1727,1.15786,1.15786,0,0,1,1.02112-.30762,1.10961,1.10961,0,0,1,.21009.06747.9078.9078,0,0,1,.18772.10523.76452.76452,0,0,1,.17306.13492,1.12842,1.12842,0,0,1,.24749.36812,1.673,1.673,0,0,1,.06013.21009,1.072,1.072,0,0,1,.02273.21779,1.12581,1.12581,0,0,1-.33035.796.79629.79629,0,0,1-.17306.14263,1.49465,1.49465,0,0,1-.18772.10522,1.10356,1.10356,0,0,1-.21009.06013A1.14553,1.14553,0,0,1,25.52719,86.74787Z" style="fill:#a56140"/><path d="M59.24984,85.62152a1.12477,1.12477,0,0,1,1.12635-1.12635h0a1.12477,1.12477,0,0,1,1.12635,1.12635h0a1.12476,1.12476,0,0,1-1.12635,1.12635h0A1.12477,1.12477,0,0,1,59.24984,85.62152Zm-4.97837,0a1.12971,1.12971,0,0,1,1.12635-1.12635h0a1.12477,1.12477,0,0,1,1.12634,1.12635h0a1.12476,1.12476,0,0,1-1.12634,1.12635h0A1.1297,1.1297,0,0,1,54.27147,85.62152Zm-4.97838,0a1.12477,1.12477,0,0,1,1.12635-1.12635h0a1.12477,1.12477,0,0,1,1.12635,1.12635h0a1.12477,1.12477,0,0,1-1.12635,1.12635h0A1.12476,1.12476,0,0,1,49.29309,85.62152Zm-4.97838,0a1.12477,1.12477,0,0,1,1.12635-1.12635h0a1.125,1.125,0,0,1,1.12635,1.12635h0a1.125,1.125,0,0,1-1.12635,1.12635h0A1.12477,1.12477,0,0,1,44.31471,85.62152Zm-4.97874,0a1.125,1.125,0,0,1,1.12635-1.12635h0a1.12477,1.12477,0,0,1,1.12635,1.12635h0a1.12476,1.12476,0,0,1-1.12635,1.12635h0A1.125,1.125,0,0,1,39.336,85.62152Zm-4.97837,0A1.12477,1.12477,0,0,1,35.484,84.49517h0a1.12477,1.12477,0,0,1,1.12634,1.12635h0A1.12476,1.12476,0,0,1,35.484,86.74787h0A1.12476,1.12476,0,0,1,34.3576,85.62152Zm-4.97838,0a1.12477,1.12477,0,0,1,1.12635-1.12635h0a1.12477,1.12477,0,0,1,1.12635,1.12635h0a1.12476,1.12476,0,0,1-1.12635,1.12635h0A1.12476,1.12476,0,0,1,29.37922,85.62152Z" style="fill:#a56140"/><path d="M65.35493,86.74787a1.123,1.123,0,0,1-.21779-.02237.97223.97223,0,0,1-.21045-.06013,1.64957,1.64957,0,0,1-.19506-.10522,1.01688,1.01688,0,0,1-.17269-.14263,1.11369,1.11369,0,0,1-.308-1.01379,1.20931,1.20931,0,0,1,.17269-.40551.967.967,0,0,1,.1353-.1727,1.16949,1.16949,0,0,1,1.59162,0,1.034,1.034,0,0,1,.143.1727,1.625,1.625,0,0,1,.10486.19542.96316.96316,0,0,1,.06013.21009,1.1261,1.1261,0,0,1-1.10362,1.34414Z" style="fill:#a56140"/><path d="M86.00284,50.18552a.18963.18963,0,0,0-.1485-.04473l-1.17108.15729.75384-1.00646a.18823.18823,0,0,0-.05683-.27535l-.63468-.36482a.18729.18729,0,0,0-.26582.08873l-.48508,1.12855-.49241-1.11938a.18775.18775,0,0,0-.26655-.08653l-.64494.37545a.18794.18794,0,0,0-.055.27572l.74027.97419-1.12672-.14776a.19245.19245,0,0,0-.14849.0451.18885.18885,0,0,0-.0638.14116v.72926a.18814.18814,0,0,0,.0638.14116.18046.18046,0,0,0,.14813.0451l1.13478-.14776-.74723.97346a.1879.1879,0,0,0,.04766.27242l.60277.38645a.18762.18762,0,0,0,.27206-.0803l.521-1.14725.47811,1.13149a.189.189,0,0,0,.11329.10523.19535.19535,0,0,0,.154-.01577l.66657-.38608a.18774.18774,0,0,0,.05316-.27866l-.752-.95365,1.16375.14042a.184.184,0,0,0,.147-.04583.18848.18848,0,0,0,.06306-.14043v-.72926A.18731.18731,0,0,0,86.00284,50.18552Z" style="fill:#a56140"/><path d="M27.85029,79.56226l-1.17145.15693.7542-1.00646a.18821.18821,0,0,0-.05683-.27535l-.63467-.36445a.18729.18729,0,0,0-.26582.08873l-.48508,1.12891-.49241-1.12011a.18766.18766,0,0,0-.114-.103.18558.18558,0,0,0-.15253.0165l-.64493.37581a.18792.18792,0,0,0-.055.27572l.74027.97419-1.12672-.14776a.1916.1916,0,0,0-.14849.0451.18883.18883,0,0,0-.0638.14116v.72927a.18765.18765,0,0,0,.21192.18626l1.13442-.14776-.74687.97345a.18792.18792,0,0,0,.04767.27242l.60277.38645A.18762.18762,0,0,0,25.455,82.068l.521-1.14688.47775,1.13111a.18887.18887,0,0,0,.11329.10523.19358.19358,0,0,0,.154-.01577l.66657-.38608a.18773.18773,0,0,0,.05316-.27865l-.75236-.954,1.16411.1408a.18167.18167,0,0,0,.14739-.04583.18789.18789,0,0,0,.06307-.14043v-.72927a.18735.18735,0,0,0-.06417-.14116A.19.19,0,0,0,27.85029,79.56226Z" style="fill:#a56140"/><path d="M85.036,56.12635H24.964a1.12635,1.12635,0,0,1,0-2.2527H85.036a1.12635,1.12635,0,0,1,0,2.2527Z" style="fill:#a56140"/><path d="M85.036,67.11045H24.964a1.12635,1.12635,0,1,1,0-2.25269H85.036a1.12635,1.12635,0,1,1,0,2.25269Z" style="fill:#a56140"/><path d="M85.036,34.15814H24.964a1.12635,1.12635,0,0,1,0-2.2527H85.036a1.12635,1.12635,0,0,1,0,2.2527Z" style="fill:#a56140"/><path d="M85.036,45.14224H24.964a1.12635,1.12635,0,1,1,0-2.25269H85.036a1.12635,1.12635,0,1,1,0,2.25269Z" style="fill:#a56140"/></svg>
