<svg xmlns="http://www.w3.org/2000/svg" viewBox="0 0 110 110"><title>02_</title><path d="M93.51733,15.30242H16.48267a5.63791,5.63791,0,0,0-5.63175,5.63175V89.06583a5.63791,5.63791,0,0,0,5.63175,5.63175H93.51733a5.63791,5.63791,0,0,0,5.63175-5.63175V20.93417A5.63791,5.63791,0,0,0,93.51733,15.30242Zm-7.58012,8.06337h5.59068a1.12635,1.12635,0,1,1,0,2.2527H85.93721a1.12635,1.12635,0,1,1,0-2.2527Zm-12.23512,0h5.59068a1.12635,1.12635,0,1,1,0,2.2527H73.70209a1.12635,1.12635,0,0,1,0-2.2527Zm-55.23,0H29.65347a1.12635,1.12635,0,1,1,0,2.2527H18.47211a1.12635,1.12635,0,1,1,0-2.2527Zm78.42427,65.7a3.38274,3.38274,0,0,1-3.379,3.379H16.48267a3.38274,3.38274,0,0,1-3.379-3.379V32.888H96.89638Z" style="fill:#515151"/><path d="M85.036,61.464H50.24455a1.1264,1.1264,0,0,1-1.12635-1.12635V53.11578a1.1264,1.1264,0,0,1,1.12635-1.12634H85.036a1.1264,1.1264,0,0,1,1.12635,1.12634v7.22191A1.1264,1.1264,0,0,1,85.036,61.464ZM51.3709,59.21134H83.90963V54.24213H51.3709Z" style="fill:#515151"/><path d="M85.036,80.2677a1.12729,1.12729,0,0,1-1.12635-1.12635,1.04155,1.04155,0,0,1,.022-.21779,1.91063,1.91063,0,0,1,.06013-.21046,1.65231,1.65231,0,0,1,.1056-.19506,1.0985,1.0985,0,0,1,.14226-.17269,1.12041,1.12041,0,0,1,.17306-.14263,1.59938,1.59938,0,0,1,.19505-.10523,1.727,1.727,0,0,1,.21046-.06013,1.06322,1.06322,0,0,1,.43558,0,1.75249,1.75249,0,0,1,.20972.06013,1.12657,1.12657,0,0,1,.36812.24786,1.10241,1.10241,0,0,1,.143.17269,1.0262,1.0262,0,0,1,.165.40552.99428.99428,0,0,1,.02273.21779,1.12524,1.12524,0,0,1-.33072.796,1.54746,1.54746,0,0,1-.17232.14263.93859.93859,0,0,1-.1958.09753.98022.98022,0,0,1-.20972.06746A1.01924,1.01924,0,0,1,85.036,80.2677Z" style="fill:#515151"/><path d="M78.93859,79.14135A1.12476,1.12476,0,0,1,80.06494,78.015h0a1.12477,1.12477,0,0,1,1.12635,1.12635h0a1.12477,1.12477,0,0,1-1.12635,1.12635h0A1.12477,1.12477,0,0,1,78.93859,79.14135Zm-4.971,0A1.12476,1.12476,0,0,1,75.0939,78.015h0a1.12476,1.12476,0,0,1,1.12634,1.12635h0A1.12477,1.12477,0,0,1,75.0939,80.2677h0A1.12477,1.12477,0,0,1,73.96755,79.14135Zm-4.97105,0A1.12477,1.12477,0,0,1,70.12285,78.015h0a1.12476,1.12476,0,0,1,1.12635,1.12635h0a1.12477,1.12477,0,0,1-1.12635,1.12635h0A1.12477,1.12477,0,0,1,68.9965,79.14135Zm-4.971,0A1.12476,1.12476,0,0,1,65.15181,78.015h0a1.12477,1.12477,0,0,1,1.12635,1.12635h0a1.12477,1.12477,0,0,1-1.12635,1.12635h0A1.12477,1.12477,0,0,1,64.02546,79.14135Zm-4.971,0A1.12652,1.12652,0,0,1,60.18883,78.015h0a1.12307,1.12307,0,0,1,1.11829,1.12635h0a1.12308,1.12308,0,0,1-1.11829,1.12635h0A1.12653,1.12653,0,0,1,59.05442,79.14135Zm-4.963,0A1.12012,1.12012,0,0,1,55.21779,78.015h0a1.12994,1.12994,0,0,1,1.12635,1.12635h0a1.12994,1.12994,0,0,1-1.12635,1.12635h0A1.12013,1.12013,0,0,1,54.09144,79.14135Z" style="fill:#515151"/><path d="M50.24675,80.2677a1.114,1.114,0,0,1-.79637-.33036,1.14062,1.14062,0,0,1-.33-.796.99428.99428,0,0,1,.02273-.21779.69242.69242,0,0,1,.0594-.21046,1.6508,1.6508,0,0,1,.10559-.19506.80336.80336,0,0,1,.14226-.17269,1.1529,1.1529,0,0,1,1.58467,0,1.12639,1.12639,0,0,1-.7883,1.92235Z" style="fill:#515151"/><path d="M49.1204,82.75322a1.12476,1.12476,0,0,1,1.12635-1.12635h0a1.12947,1.12947,0,0,1,1.12635,1.12635h0a1.12947,1.12947,0,0,1-1.12635,1.12635h0A1.12477,1.12477,0,0,1,49.1204,82.75322Z" style="fill:#515151"/><path d="M50.24675,87.49144a1.11281,1.11281,0,0,1-.79637-.33072,1.1398,1.1398,0,0,1-.33-.79563,1.12015,1.12015,0,0,1,.02273-.22549.75409.75409,0,0,1,.0594-.21009c.03006-.06783.06819-.1276.10559-.19543a.98358.98358,0,0,1,.14226-.165,1.1529,1.1529,0,0,1,1.58467,0,1.10117,1.10117,0,0,1,.33805.796,1.142,1.142,0,0,1-1.12635,1.12635Z" style="fill:#515151"/><path d="M78.93859,86.36509a1.12476,1.12476,0,0,1,1.12635-1.12635h0a1.12477,1.12477,0,0,1,1.12635,1.12635h0a1.125,1.125,0,0,1-1.12635,1.12635h0A1.125,1.125,0,0,1,78.93859,86.36509Zm-4.971,0a1.12476,1.12476,0,0,1,1.12635-1.12635h0a1.12476,1.12476,0,0,1,1.12634,1.12635h0a1.125,1.125,0,0,1-1.12634,1.12635h0A1.125,1.125,0,0,1,73.96755,86.36509Zm-4.97105,0a1.12477,1.12477,0,0,1,1.12635-1.12635h0a1.12476,1.12476,0,0,1,1.12635,1.12635h0a1.125,1.125,0,0,1-1.12635,1.12635h0A1.125,1.125,0,0,1,68.9965,86.36509Zm-4.971,0a1.12476,1.12476,0,0,1,1.12635-1.12635h0a1.12477,1.12477,0,0,1,1.12635,1.12635h0a1.125,1.125,0,0,1-1.12635,1.12635h0A1.125,1.125,0,0,1,64.02546,86.36509Zm-4.971,0a1.12476,1.12476,0,0,1,1.12635-1.12635h0a1.12477,1.12477,0,0,1,1.12635,1.12635h0a1.125,1.125,0,0,1-1.12635,1.12635h0A1.125,1.125,0,0,1,59.05442,86.36509Zm-4.963,0a1.12476,1.12476,0,0,1,1.12635-1.12635h0a1.12994,1.12994,0,0,1,1.12635,1.12635h0a1.13018,1.13018,0,0,1-1.12635,1.12635h0A1.125,1.125,0,0,1,54.09144,86.36509Z" style="fill:#515151"/><path d="M85.036,87.49144a1.01427,1.01427,0,0,1-.21779-.02274,1.43184,1.43184,0,0,1-.40551-.165,1.10129,1.10129,0,0,1-.17306-.143,1.582,1.582,0,0,1-.14226-.17269,1.62431,1.62431,0,0,1-.1056-.19506,1.90513,1.90513,0,0,1-.06013-.21009,1.09986,1.09986,0,0,1-.022-.21779,1.17449,1.17449,0,0,1,.022-.22549c.0154-.06747.03813-.14263.06013-.21009a1.52329,1.52329,0,0,1,.1056-.18773,1.166,1.166,0,0,1,.31532-.31532,1.59938,1.59938,0,0,1,.19505-.10523,1.66325,1.66325,0,0,1,.21046-.06013,1.06322,1.06322,0,0,1,.43558,0,1.68644,1.68644,0,0,1,.20972.06013,1.55645,1.55645,0,0,1,.1958.10523,1.47,1.47,0,0,1,.17232.14263,1.08563,1.08563,0,0,1,.143.17269,1.52088,1.52088,0,0,1,.10486.18773,2.05482,2.05482,0,0,1,.06013.21009,1.12015,1.12015,0,0,1,.02273.22549,1.049,1.049,0,0,1-.02273.21779,1.02758,1.02758,0,0,1-.165.40515,1.58929,1.58929,0,0,1-.143.17269,1.51063,1.51063,0,0,1-.17232.143.95655.95655,0,0,1-.1958.09753.97966.97966,0,0,1-.20972.06746A1.01924,1.01924,0,0,1,85.036,87.49144Z" style="fill:#515151"/><path d="M83.90963,82.75322A1.12477,1.12477,0,0,1,85.036,81.62687h0a1.12476,1.12476,0,0,1,1.12635,1.12635h0A1.12477,1.12477,0,0,1,85.036,83.87957h0A1.12477,1.12477,0,0,1,83.90963,82.75322Z" style="fill:#515151"/><path d="M85.036,49.043H39.14311a1.12641,1.12641,0,0,1-1.12635-1.12634V39.3774a1.12642,1.12642,0,0,1,1.12635-1.12635H85.036a1.12641,1.12641,0,0,1,1.12635,1.12635v8.53929A1.1264,1.1264,0,0,1,85.036,49.043ZM40.26946,46.79034H83.90963V40.50375H40.26946Z" style="fill:#515151"/><path d="M29.23329,49.94609a6.299,6.299,0,1,1,6.299-6.29905A6.30583,6.30583,0,0,1,29.23329,49.94609Zm0-10.3454A4.04636,4.04636,0,1,0,33.27964,43.647,4.05067,4.05067,0,0,0,29.23329,39.60069Z" style="fill:#515151"/><circle cx="29.23363" cy="43.64704" r="2.61684" style="fill:#515151"/><path d="M85.036,75.06823H39.14311a1.12641,1.12641,0,0,1-1.12635-1.12635V65.403a1.12641,1.12641,0,0,1,1.12635-1.12634H85.036A1.1264,1.1264,0,0,1,86.16233,65.403v8.53892A1.1264,1.1264,0,0,1,85.036,75.06823Zm-44.76652-2.2527H83.90963V66.52931H40.26946Z" style="fill:#515151"/><path d="M29.23329,75.97129a6.29887,6.29887,0,1,1,6.299-6.299A6.30583,6.30583,0,0,1,29.23329,75.97129Zm0-10.345a4.04617,4.04617,0,1,0,4.04635,4.046A4.05035,4.05035,0,0,0,29.23329,65.62625Z" style="fill:#515151"/></svg>