<svg xmlns="http://www.w3.org/2000/svg" viewBox="0 0 110 110"><title>02_</title><path d="M93.51733,15.30242H16.48267a5.63791,5.63791,0,0,0-5.63175,5.63175V89.06583a5.63791,5.63791,0,0,0,5.63175,5.63175H93.51733a5.63791,5.63791,0,0,0,5.63175-5.63175V20.93417A5.63791,5.63791,0,0,0,93.51733,15.30242ZM73.70209,23.36579h5.59068a1.12635,1.12635,0,1,1,0,2.2527H73.70209a1.12635,1.12635,0,0,1,0-2.2527ZM17.34576,24.49214a1.1264,1.1264,0,0,1,1.12635-1.12635H29.65347a1.12635,1.12635,0,1,1,0,2.2527H18.47211A1.12641,1.12641,0,0,1,17.34576,24.49214ZM48.38123,65.65705H24.964a1.12635,1.12635,0,1,1,0-2.2527H48.38123a1.12635,1.12635,0,1,1,0,2.2527ZM60.1705,59.25314H24.964a1.12635,1.12635,0,0,1,0-2.2527H60.1705a1.12635,1.12635,0,1,1,0,2.2527ZM74.40093,51.3478a1.12641,1.12641,0,0,1-1.12635,1.12635H24.964a1.12641,1.12641,0,0,1-1.12635-1.12635V49.0951A1.1264,1.1264,0,0,1,24.964,47.96875H73.27458a1.1264,1.1264,0,0,1,1.12635,1.12635Zm6.6657,33.71426a4.338,4.338,0,0,1-2.2373-.591.37606.37606,0,0,1-.14813-.43925l.28892-.8169a.376.376,0,0,1,.23246-.22952.37071.37071,0,0,1,.32412.03887,3.19124,3.19124,0,0,0,1.52819.43338,1.47947,1.47947,0,0,0,1.09849-.36959,1.07009,1.07009,0,0,0,.29258-.76263c-.01246-1.13662-1.37127-1.19381-1.64332-1.19381H80.2138a.37523.37523,0,0,1-.37545-.37545v-.79343a.37523.37523,0,0,1,.37545-.37545h.58884c.54924,0,1.36687-.25226,1.36687-.94669,0-.52505-.34392-.803-.99436-.803a2.48931,2.48931,0,0,0-1.34413.448.38409.38409,0,0,1-.33072.0528.3757.3757,0,0,1-.24126-.23173l-.27645-.77a.37582.37582,0,0,1,.13052-.429,4.1045,4.1045,0,0,1,2.26664-.67391,2.3047,2.3047,0,0,1,2.61054,2.23877,2.15626,2.15626,0,0,1-.92249,1.79A2.31851,2.31851,0,0,1,84.291,82.34225C84.291,83.65192,83.28193,85.06206,81.06663,85.06206Zm4.96151,0a1.07906,1.07906,0,0,1-1.08456-1.12122,1.09079,1.09079,0,0,1,1.097-1.13295,1.12771,1.12771,0,0,1-.01246,2.25417Zm0-4.24288A1.07905,1.07905,0,0,1,84.94358,79.698a1.09079,1.09079,0,0,1,1.097-1.13295,1.1277,1.1277,0,0,1-.01246,2.25416Zm1.99237-9.37231a1.12635,1.12635,0,0,1-2.2527,0V51.48644H80.56244l1.53227,1.75185A1.12615,1.12615,0,1,1,80.39932,54.721l-3.16639-3.61957a1.125,1.125,0,0,1,0-1.48273l3.16639-3.6192a1.12627,1.12627,0,0,1,1.69539,1.4831l-1.532,1.75112h6.33145a1.12664,1.12664,0,0,1,1.12635,1.12635Zm3.39372,13.107a.37524.37524,0,0,1-.37545.37545H90.01729a.37524.37524,0,0,1-.37545-.37545V78.34356l-.82863.44731a.38107.38107,0,0,1-.32925.0132.37531.37531,0,0,1-.21266-.25152l-.20386-.80516a.37521.37521,0,0,1,.18626-.42312l1.70639-.91369a.37711.37711,0,0,1,.17746-.04473h.90123a.37523.37523,0,0,1,.37545.37545Zm.11366-58.93539H85.93721a1.12635,1.12635,0,1,1,0-2.2527h5.59068a1.12635,1.12635,0,1,1,0,2.2527Z" style="fill:#515151"/></svg>