<svg xmlns="http://www.w3.org/2000/svg" viewBox="0 0 110 110"><path d="M40.08687,50.5694a1.01964,1.01964,0,0,1-.21779-.02237,1.22683,1.22683,0,0,1-.21779-.06746,1.17916,1.17916,0,0,1-.18772-.10523.744.744,0,0,1-.17233-.13529,1.13755,1.13755,0,0,1-.33072-.796,1.12,1.12,0,0,1,.02273-.22512,2.05235,2.05235,0,0,1,.06014-.21009,1.62373,1.62373,0,0,1,.10486-.19543,1.58805,1.58805,0,0,1,.143-.17269.764.764,0,0,1,.17233-.13529,1.20507,1.20507,0,0,1,.18772-.10487.7876.7876,0,0,1,.21779-.06013,1.141,1.141,0,0,1,1.01416.30029,1.58426,1.58426,0,0,1,.14226.17269.92675.92675,0,0,1,.09752.19543,1.06547,1.06547,0,0,1,.0902.43521,1.14,1.14,0,0,1-.33.796.96917.96917,0,0,1-.17306.13529.98313.98313,0,0,1-.19506.10523.973.973,0,0,1-.21046.06746A1.01461,1.01461,0,0,1,40.08687,50.5694Z" style="fill:#a56140"/><path d="M91.62908,49.44305a1.125,1.125,0,0,1,1.12635-1.12635h0a1.12547,1.12547,0,0,1,1.12635,1.12635h0a1.13,1.13,0,0,1-1.12635,1.12635h0A1.12947,1.12947,0,0,1,91.62908,49.44305Zm-5.26436,0a1.125,1.125,0,0,1,1.12635-1.12635h0a1.12971,1.12971,0,0,1,1.12635,1.12635h0a1.13425,1.13425,0,0,1-1.12635,1.12635h0A1.12947,1.12947,0,0,1,86.36472,49.44305Zm-5.271,0a1.125,1.125,0,0,1,1.12635-1.12635h0a1.125,1.125,0,0,1,1.12635,1.12635h0a1.12947,1.12947,0,0,1-1.12635,1.12635h0A1.12947,1.12947,0,0,1,81.09376,49.44305Zm-5.26363,0a1.125,1.125,0,0,1,1.12635-1.12635h0a1.12547,1.12547,0,0,1,1.12635,1.12635h0a1.13,1.13,0,0,1-1.12635,1.12635h0A1.12947,1.12947,0,0,1,75.83013,49.44305Zm-5.2717,0a1.125,1.125,0,0,1,1.12635-1.12635h0a1.125,1.125,0,0,1,1.12635,1.12635h0a1.12947,1.12947,0,0,1-1.12635,1.12635h0A1.12947,1.12947,0,0,1,70.55843,49.44305Zm-5.26363,0a1.125,1.125,0,0,1,1.12635-1.12635h0a1.125,1.125,0,0,1,1.12635,1.12635h0a1.12947,1.12947,0,0,1-1.12635,1.12635h0A1.12947,1.12947,0,0,1,65.2948,49.44305Zm-5.27169,0a1.13018,1.13018,0,0,1,1.12635-1.12635h0a1.1319,1.1319,0,0,1,1.13441,1.12635h0a1.13642,1.13642,0,0,1-1.13441,1.12635h0A1.13473,1.13473,0,0,1,60.02311,49.44305Zm-5.26363,0a1.125,1.125,0,0,1,1.12635-1.12635h0a1.125,1.125,0,0,1,1.12635,1.12635h0a1.12947,1.12947,0,0,1-1.12635,1.12635h0A1.12947,1.12947,0,0,1,54.75948,49.44305Zm-5.26363,0A1.125,1.125,0,0,1,50.6222,48.3167h0a1.12971,1.12971,0,0,1,1.12635,1.12635h0A1.13425,1.13425,0,0,1,50.6222,50.5694h0A1.12947,1.12947,0,0,1,49.49585,49.44305Zm-5.2717,0A1.125,1.125,0,0,1,45.3505,48.3167h0a1.125,1.125,0,0,1,1.12635,1.12635h0A1.12947,1.12947,0,0,1,45.3505,50.5694h0A1.12947,1.12947,0,0,1,44.22415,49.44305Z" style="fill:#a56140"/><path d="M98.01906,50.5694a1.12593,1.12593,0,0,1-.21779-.02237,1.13911,1.13911,0,0,1-.21045-.06746.98285.98285,0,0,1-.19506-.10523.96917.96917,0,0,1-.17306-.13529.98509.98509,0,0,1-.13493-.17269,1.00067,1.00067,0,0,1-.10486-.19506,1.1714,1.1714,0,0,1-.0682-.21046,1.1322,1.1322,0,0,1,.308-1.02112,1.56392,1.56392,0,0,1,.17306-.13529,1.00014,1.00014,0,0,1,.19506-.10487,1.14237,1.14237,0,0,1,.21045-.06783,1.47038,1.47038,0,0,1,.44292,0,1.14237,1.14237,0,0,1,.21045.06783,1.00014,1.00014,0,0,1,.19506.10487,1.49029,1.49029,0,0,1,.17233.13529.95654.95654,0,0,1,.13566.17269.9933.9933,0,0,1,.10486.19543,1.06568,1.06568,0,0,1,.09019.43521,1.097,1.097,0,0,1-.02273.21779,1.11269,1.11269,0,0,1-.06746.21046,1.00121,1.00121,0,0,1-.10486.19506.95654.95654,0,0,1-.13566.17269.93932.93932,0,0,1-.17233.13529.98285.98285,0,0,1-.19506.10523,1.061,1.061,0,0,1-.43558.08983Z" style="fill:#a56140"/><path d="M40.08687,42.29447a1.02029,1.02029,0,0,1-.21779-.02236,1.22771,1.22771,0,0,1-.21779-.06747,1.17838,1.17838,0,0,1-.18772-.10523.78319.78319,0,0,1-.17233-.14262,1.10767,1.10767,0,0,1-.33072-.78867,1.14239,1.14239,0,0,1,.33072-.80333.764.764,0,0,1,.17233-.13529,1.205,1.205,0,0,1,.18772-.10486,1.2287,1.2287,0,0,1,.21779-.06783,1.1675,1.1675,0,0,1,1.01416.308,1.14485,1.14485,0,0,1,.33.80333,1.14,1.14,0,0,1-1.12635,1.12635Z" style="fill:#a56140"/><path d="M91.62908,41.16079a1.12971,1.12971,0,0,1,1.12635-1.12635h0a1.13018,1.13018,0,0,1,1.12635,1.12635h0a1.1315,1.1315,0,0,1-1.12635,1.13368h0A1.131,1.131,0,0,1,91.62908,41.16079Zm-5.26436,0a1.1297,1.1297,0,0,1,1.12635-1.12635h0a1.13448,1.13448,0,0,1,1.12635,1.12635h0a1.13578,1.13578,0,0,1-1.12635,1.13368h0A1.131,1.131,0,0,1,86.36472,41.16079Zm-5.271,0a1.1297,1.1297,0,0,1,1.12635-1.12635h0a1.12971,1.12971,0,0,1,1.12635,1.12635h0a1.131,1.131,0,0,1-1.12635,1.13368h0A1.131,1.131,0,0,1,81.09376,41.16079Zm-5.26363,0a1.1297,1.1297,0,0,1,1.12635-1.12635h0a1.13018,1.13018,0,0,1,1.12635,1.12635h0a1.1315,1.1315,0,0,1-1.12635,1.13368h0A1.131,1.131,0,0,1,75.83013,41.16079Zm-5.2717,0a1.12971,1.12971,0,0,1,1.12635-1.12635h0a1.1297,1.1297,0,0,1,1.12635,1.12635h0a1.131,1.131,0,0,1-1.12635,1.13368h0A1.131,1.131,0,0,1,70.55843,41.16079Zm-5.26363,0a1.12971,1.12971,0,0,1,1.12635-1.12635h0a1.1297,1.1297,0,0,1,1.12635,1.12635h0a1.131,1.131,0,0,1-1.12635,1.13368h0A1.131,1.131,0,0,1,65.2948,41.16079Zm-5.27169,0a1.135,1.135,0,0,1,1.12635-1.12635h0a1.13666,1.13666,0,0,1,1.13441,1.12635h0a1.13792,1.13792,0,0,1-1.13441,1.13368h0A1.13626,1.13626,0,0,1,60.02311,41.16079Zm-5.26363,0a1.1297,1.1297,0,0,1,1.12635-1.12635h0a1.12971,1.12971,0,0,1,1.12635,1.12635h0a1.131,1.131,0,0,1-1.12635,1.13368h0A1.131,1.131,0,0,1,54.75948,41.16079Zm-5.26363,0a1.1297,1.1297,0,0,1,1.12635-1.12635h0a1.13448,1.13448,0,0,1,1.12635,1.12635h0a1.13578,1.13578,0,0,1-1.12635,1.13368h0A1.131,1.131,0,0,1,49.49585,41.16079Zm-5.2717,0a1.12971,1.12971,0,0,1,1.12635-1.12635h0a1.1297,1.1297,0,0,1,1.12635,1.12635h0a1.131,1.131,0,0,1-1.12635,1.13368h0A1.131,1.131,0,0,1,44.22415,41.16079Z" style="fill:#a56140"/><path d="M98.01906,42.28714c-.06746,0-.143-.00733-.21779-.015a1.13991,1.13991,0,0,1-.21045-.06747.98233.98233,0,0,1-.19506-.10523,1.521,1.521,0,0,1-.17306-.13529.98509.98509,0,0,1-.13493-.17269,1.00039,1.00039,0,0,1-.10486-.19506,1.0638,1.0638,0,0,1,0-.86346,1.29242,1.29242,0,0,1,.23979-.36812,1.18219,1.18219,0,0,1,1.02149-.308,1.14086,1.14086,0,0,1,.21045.06783,1.0001,1.0001,0,0,1,.19506.10486.97179.97179,0,0,1,.17233.13529.95654.95654,0,0,1,.13566.17269.99358.99358,0,0,1,.10486.19543,1.07535,1.07535,0,0,1,0,.86346,1.00092,1.00092,0,0,1-.10486.19506.95654.95654,0,0,1-.13566.17269,1.45113,1.45113,0,0,1-.17233.13529.98233.98233,0,0,1-.19506.10523,1.13991,1.13991,0,0,1-.21045.06747A2.21021,2.21021,0,0,1,98.01906,42.28714Z" style="fill:#a56140"/><path d="M79.29277,50.56647H40.08687a1.12635,1.12635,0,1,1,0-2.2527h39.2059a1.12635,1.12635,0,0,1,0,2.2527Z" style="fill:#a56140"/><path d="M62.67325,56.97H40.08687a1.12635,1.12635,0,1,1,0-2.2527H62.67325a1.12635,1.12635,0,0,1,0,2.2527Z" style="fill:#a56140"/><rect x="38.96052" y="39.28171" width="41.4586" height="4.5054" rx="1.12635" style="fill:#a56140"/><path d="M74.78774,16.42877H35.21226a4.50539,4.50539,0,0,0-4.5054,4.5054V32.888H79.29314V20.93417A4.50539,4.50539,0,0,0,74.78774,16.42877ZM45.847,25.61849H34.66558a1.12635,1.12635,0,0,1,0-2.2527H45.847a1.12635,1.12635,0,0,1,0,2.2527Z" style="fill:#a56140"/><rect x="30.70723" y="87.43314" width="48.58555" height="2.2527" style="fill:#a56140"/><rect x="48.25764" y="88.5594" width="24.30679" height="5.01183" style="fill:#a56140"/><path d="M57.2076,66.56978a2.32285,2.32285,0,1,0,2.32291,2.32282A2.32277,2.32277,0,0,0,57.2076,66.56978Z" style="fill:#a56140"/><circle cx="92.74737" cy="61.65287" r="1.12635" style="fill:#a56140"/><path d="M98.01906,62.77922a1.14332,1.14332,0,0,0,.22513-.02274,1.11188,1.11188,0,0,0,.21045-.06746.98233.98233,0,0,0,.19506-.10523.95291.95291,0,0,0,.17233-.13493,1.1382,1.1382,0,0,0,.33071-.796,1.069,1.069,0,0,0-.09019-.43558,1.26733,1.26733,0,0,0-.10486-.19506.91164.91164,0,0,0-.13566-.16536,1.54848,1.54848,0,0,0-.17233-.14263,1.64962,1.64962,0,0,0-.19506-.10523c-.06746-.02236-.143-.04509-.21045-.06013a1.09878,1.09878,0,0,0-.44292,0c-.06746.015-.143.03777-.21045.06013a1.64962,1.64962,0,0,0-.19506.10523,1.62663,1.62663,0,0,0-.17306.14263,1.127,1.127,0,0,0-.33.796,1.12729,1.12729,0,0,0,1.12635,1.12635Z" style="fill:#a56140"/><path d="M98.0264,71.2118a1.12637,1.12637,0,1,0,1.119,1.12635A1.12477,1.12477,0,0,0,98.0264,71.2118Z" style="fill:#a56140"/><path d="M98.0264,65.873a1.12251,1.12251,0,1,0,1.119,1.11865A1.12314,1.12314,0,0,0,98.0264,65.873Z" style="fill:#a56140"/><path d="M98.0264,76.5583a1.12637,1.12637,0,1,0,1.119,1.12635A1.12476,1.12476,0,0,0,98.0264,76.5583Z" style="fill:#a56140"/><path d="M99.06255,82.59556a.9933.9933,0,0,0-.10486-.19543.95654.95654,0,0,0-.13566-.17269.97179.97179,0,0,0-.17233-.13529,1.00068,1.00068,0,0,0-.19506-.10487,1.14237,1.14237,0,0,0-.21045-.06783,1.16088,1.16088,0,0,0-1.02149.308,1.29242,1.29242,0,0,0-.23979.36812,1.03325,1.03325,0,0,0-.0902.42788,1.11429,1.11429,0,0,0,.33.796,1.0338,1.0338,0,0,0,.17306.14262.98233.98233,0,0,0,.19506.10523.7461.7461,0,0,0,.21045.06013,1.12671,1.12671,0,0,0,.21779.02237,1.14352,1.14352,0,0,0,.22513-.02237.7461.7461,0,0,0,.21045-.06013.98233.98233,0,0,0,.19506-.10523,1.00071,1.00071,0,0,0,.17233-.14262.71553.71553,0,0,0,.13566-.16536,1.00092,1.00092,0,0,0,.10486-.19506,1.07424,1.07424,0,0,0,0-.86346Z" style="fill:#a56140"/><path d="M87.4764,81.90442a1.12269,1.12269,0,1,0,1.119,1.119A1.12508,1.12508,0,0,0,87.4764,81.90442Z" style="fill:#a56140"/><path d="M92.74737,81.90442a1.12269,1.12269,0,1,0,1.12635,1.119A1.12345,1.12345,0,0,0,92.74737,81.90442Z" style="fill:#a56140"/><path d="M81.40174,82.22744a1.13822,1.13822,0,0,0-.33071.796,1.112,1.112,0,0,0,.33071.796,1.126,1.126,0,0,0,1.922-.796,1.14065,1.14065,0,0,0-.33-.796A1.178,1.178,0,0,0,81.40174,82.22744Z" style="fill:#a56140"/><path d="M87.4764,60.52652a1.12229,1.12229,0,0,0-.45409.09656,7.74072,7.74072,0,0,0-6.60319-8.79937V20.93417a5.6379,5.6379,0,0,0-5.63174-5.63175H35.21262a5.6379,5.6379,0,0,0-5.63174,5.63175V89.06583a5.6379,5.6379,0,0,0,5.63174,5.63175H74.78738a5.6379,5.6379,0,0,0,5.63174-5.63175V67.26729a7.80892,7.80892,0,0,0,6.16467-4.9336,1.12238,1.12238,0,1,0,.89261-1.80717Zm-9.31,28.53931a3.38274,3.38274,0,0,1-3.379,3.379H35.21262a3.38274,3.38274,0,0,1-3.379-3.379V20.93417a3.38274,3.38274,0,0,1,3.379-3.37905H74.78738a3.38274,3.38274,0,0,1,3.379,3.37905V51.8238a7.74941,7.74941,0,0,0-6.61757,8.70088H38.96052V84.15309h39.2059ZM58.0476,81.90039l4.63445-7.4859,4.6352,7.4859Zm20.11882,0h-8.199l-3.00433-4.85225,4.85518-7.59882,6.34818,9.934Zm0-6.70017-5.39929-8.44908a1.16946,1.16946,0,0,0-1.89778,0L65.647,74.92386l-2.00723-3.24164a1.12635,1.12635,0,0,0-1.91538,0L55.39782,81.90039H41.21322v-19.123H72.18691a7.80916,7.80916,0,0,0,5.97951,4.48982ZM82.567,61.22645a1.12623,1.12623,0,1,1-1.59273,1.59273l-1.68109-1.681-1.68109,1.681a1.12623,1.12623,0,0,1-1.59273-1.59273l1.68109-1.6809-1.68109-1.68091a1.12623,1.12623,0,0,1,1.59273-1.59273l1.68109,1.681,1.68109-1.681A1.12623,1.12623,0,0,1,82.567,57.86464l-1.68109,1.68091Z" style="fill:#a56140"/></svg>