<svg xmlns="http://www.w3.org/2000/svg" viewBox="0 0 110 110"><title>02_</title><path d="M93.51733,15.30242H16.48267a5.63791,5.63791,0,0,0-5.63175,5.63175V89.06583a5.63791,5.63791,0,0,0,5.63175,5.63175H93.51733a5.63791,5.63791,0,0,0,5.63175-5.63175V20.93417A5.63791,5.63791,0,0,0,93.51733,15.30242Zm-7.58012,8.06337h5.59068a1.12635,1.12635,0,1,1,0,2.2527H85.93721a1.12635,1.12635,0,1,1,0-2.2527Zm-12.23512,0h5.59068a1.12635,1.12635,0,1,1,0,2.2527H73.70209a1.12635,1.12635,0,0,1,0-2.2527Zm-55.23,0H29.65347a1.12635,1.12635,0,1,1,0,2.2527H18.47211a1.12635,1.12635,0,1,1,0-2.2527Zm78.42427,65.7a3.38274,3.38274,0,0,1-3.379,3.379H16.48267a3.38274,3.38274,0,0,1-3.379-3.379V32.888H96.89638Z" style="fill:#515151"/><path d="M61.09918,78.35489H40.01056V41.15494H60.99762v7.86572A1.12651,1.12651,0,0,0,62.12408,50.147h7.86524V68.62759c.21338-.01428.426-.03247.64306-.03247a9.56487,9.56487,0,0,1,1.60962.146V49.02066a1.11734,1.11734,0,0,0-.02124-.21149l-.001-.00982a1.0998,1.0998,0,0,0-.09864-.27655c-.00976-.02009-.02051-.03913-.03174-.05866a1.12625,1.12625,0,0,0-.178-.2406L62.921,39.23282a1.13111,1.13111,0,0,0-.24048-.1781c-.01978-.01111-.03858-.02179-.05859-.03174a1.10432,1.10432,0,0,0-.27759-.09851l-.00586-.00067a1.12946,1.12946,0,0,0-.21436-.02161H38.88434a1.12652,1.12652,0,0,0-1.12647,1.12634v39.4527a1.12652,1.12652,0,0,0,1.12647,1.12634H61.42242A9.54159,9.54159,0,0,1,61.09918,78.35489ZM63.2503,42.748l5.14624,5.14631H63.2503Z" style="fill:#515151"/><polygon points="72.048 72.784 68.938 72.784 68.136 74.298 72.85 74.298 72.048 72.784" style="fill:#515151"/><path d="M70.63238,68.59512a9.54407,9.54407,0,1,0,9.54395,9.54407A9.544,9.544,0,0,0,70.63238,68.59512Zm5.32178,6.45331h-.946v8.071a1.12759,1.12759,0,0,1-1.12623,1.12647H67.244a1.12779,1.12779,0,0,1-1.12647-1.12647v-8.071h-.9458a.37546.37546,0,1,1,0-.75092H67.286l1.09448-2.06536a.37406.37406,0,0,1,.33154-.19941h3.5625a.374.374,0,0,1,.3313.19977l1.09375,2.065h2.25464a.37546.37546,0,1,1,0,.75092Z" style="fill:#515151"/><path d="M73.47418,75.04843H66.86847v8.071a.37593.37593,0,0,0,.37549.37549h6.63793a.37588.37588,0,0,0,.37525-.37549v-8.071Zm-4.218,5.87372a.37549.37549,0,0,1-.751,0v-3.771a.37549.37549,0,0,1,.751,0Zm1.68213,0a.37549.37549,0,0,1-.751,0v-3.771a.37549.37549,0,0,1,.751,0Zm1.68213,0a.37537.37537,0,1,1-.75073,0v-3.771a.37537.37537,0,1,1,.75073,0Z" style="fill:#515151"/><path d="M55.37142,52.94758l1.566-1.45972a1.12665,1.12665,0,0,0-1.537-1.64773l-3.51691,3.27932a1.12738,1.12738,0,0,0-.15032,1.47577L54.516,58.51654a1.1266,1.1266,0,0,0,1.83765-1.30381L54.905,55.17191c.03171.00271.06233.00958.095.00958a4.57323,4.57323,0,1,1-4.57359,4.57323,1.12635,1.12635,0,1,0-2.2527,0,6.8263,6.8263,0,1,0,7.19771-6.80714Z" style="fill:#515151"/></svg>