<svg xmlns="http://www.w3.org/2000/svg" viewBox="0 0 110 110"><path d="M93.51733,15.30247H16.48267a5.6379,5.6379,0,0,0-5.63175,5.63174V89.06588a5.6379,5.6379,0,0,0,5.63175,5.63174H93.51733a5.6379,5.6379,0,0,0,5.63175-5.63174V20.93421A5.6379,5.6379,0,0,0,93.51733,15.30247Zm-7.58012,8.063h5.59068a1.12635,1.12635,0,1,1,0,2.2527H85.93721a1.12635,1.12635,0,0,1,0-2.2527Zm-12.23512,0h5.59068a1.12635,1.12635,0,1,1,0,2.2527H73.70209a1.12635,1.12635,0,0,1,0-2.2527Zm-55.23,0H29.65347a1.12635,1.12635,0,0,1,0,2.2527H18.47211a1.12635,1.12635,0,0,1,0-2.2527ZM96.89638,89.06588a3.38274,3.38274,0,0,1-3.379,3.379H16.48267a3.38274,3.38274,0,0,1-3.379-3.379V32.888H96.89638Z" style="fill:#a56140"/><path d="M60.1705,68.71459H24.964a1.12635,1.12635,0,0,1,0-2.2527H60.1705a1.12635,1.12635,0,0,1,0,2.2527Z" style="fill:#a56140"/><path d="M48.38123,75.1185H24.964a1.12635,1.12635,0,1,1,0-2.25269H48.38123a1.12635,1.12635,0,1,1,0,2.25269Z" style="fill:#a56140"/><path d="M96.89638,39.07643H72.11729l-2.57155-1.75369A1.12651,1.12651,0,0,0,67.788,38.33763l.05546.7388H11.97727a1.12635,1.12635,0,1,0,0,2.2527H68.01264l1.20894,16.10144H24.964a1.12664,1.12664,0,0,0-1.12635,1.12635v2.2527A1.12665,1.12665,0,0,0,24.964,61.936H69.55991l.10976,1.4622a1.12628,1.12628,0,0,0,1.93005.70176l2.284-2.34527a1.12807,1.12807,0,0,0,.34694-.35625l1.88174-1.9322,5.8488,10.13054a1.12584,1.12584,0,0,0,1.53847.41212l5.62-3.24412a1.12511,1.12511,0,0,0,.41211-1.53847L83.68231,55.095l6.269-1.59053a1.12615,1.12615,0,0,0,.35712-2.02244L75.42058,41.32913h21.4758a1.12635,1.12635,0,1,0,0-2.2527ZM86.97483,51.93522l-5.2893,1.34194a1.12662,1.12662,0,0,0-.6981,1.655l6.03066,10.44513-3.66943,2.11777L77.31873,57.05072a1.12614,1.12614,0,0,0-1.78192-.22292l-3.8073,3.90995L70.21011,40.502Z" style="fill:#a56140"/><path d="M31.45373,36.89885H21.08926a.7509.7509,0,0,1,0-1.5018H31.45373a.7509.7509,0,0,1,0,1.5018Z" style="fill:#a56140"/><path d="M60.18223,36.89885H49.81777a.7509.7509,0,0,1,0-1.5018H60.18223a.7509.7509,0,0,1,0,1.5018Z" style="fill:#a56140"/><path d="M88.91074,36.89885H78.54627a.7509.7509,0,0,1,0-1.5018H88.91074a.7509.7509,0,0,1,0,1.5018Z" style="fill:#a56140"/></svg>