<svg xmlns="http://www.w3.org/2000/svg" viewBox="0 0 110 110"><path d="M46.53405,61.26275H27.76156a1.1264,1.1264,0,0,1-1.12635-1.12635V41.36391a1.12641,1.12641,0,0,1,1.12635-1.12635H46.53405a1.12641,1.12641,0,0,1,1.12635,1.12635V60.1364A1.1264,1.1264,0,0,1,46.53405,61.26275Zm-17.64614-2.2527H45.4077V42.49026H28.88791Z" style="fill:#a56140"/><path d="M58.151,40.613H53.98438a.7509.7509,0,0,0,0,1.5018h3.41571V59.3855H53.98438a.7509.7509,0,0,0,0,1.5018H58.151a.7507.7507,0,0,0,.7509-.7509V41.36391A.7507.7507,0,0,0,58.151,40.613Z" style="fill:#a56140"/><path d="M46.53405,66.70494a.7507.7507,0,0,0-.7509.7509v3.41571H28.51246V67.45584a.7509.7509,0,1,0-1.5018,0v4.16661a.7507.7507,0,0,0,.7509.7509H46.53405a.7507.7507,0,0,0,.7509-.7509V67.45584A.7507.7507,0,0,0,46.53405,66.70494Z" style="fill:#a56140"/><path d="M93.51733,15.30242H16.48267a5.63791,5.63791,0,0,0-5.63175,5.63175V89.06583a5.63791,5.63791,0,0,0,5.63175,5.63175h58.7006l1.1873,2.05654a1.12483,1.12483,0,0,0,1.53846.41211l4.27615-2.46865H93.51733a5.63791,5.63791,0,0,0,5.63175-5.63175V20.93417A5.63791,5.63791,0,0,0,93.51733,15.30242Zm-7.58012,8.06337h5.59068a1.12635,1.12635,0,1,1,0,2.2527H85.93721a1.12635,1.12635,0,1,1,0-2.2527Zm-12.23512,0h5.59068a1.12635,1.12635,0,1,1,0,2.2527H73.70209a1.12635,1.12635,0,0,1,0-2.2527Zm-55.23,0H29.65347a1.12635,1.12635,0,1,1,0,2.2527H18.47211a1.12635,1.12635,0,1,1,0-2.2527ZM77.758,94.65248l-6.02993-10.4444a1.125,1.125,0,0,0-.836-.55437,1.1098,1.1098,0,0,0-.13932-.0088,1.12489,1.12489,0,0,0-.80663.34062l-3.8073,3.90959L64.61943,67.659,81.38488,79.09258l-5.2893,1.34194a1.12664,1.12664,0,0,0-.6981,1.65506L81.376,92.44488h0l.05142.0891Zm19.1384-5.58665a3.38274,3.38274,0,0,1-3.379,3.379H83.969c-.01008-.02026-.0165-.04189-.02787-.0616L78.09236,82.252l6.26825-1.59053a1.12611,1.12611,0,0,0,.35712-2.02244L63.9558,64.47974a1.12651,1.12651,0,0,0-1.75772,1.01489L64.079,90.55517a1.12631,1.12631,0,0,0,1.93.7014l4.51273-4.63336,3.361,5.82167H16.48267a3.38274,3.38274,0,0,1-3.379-3.379V32.888H96.89638Z" style="fill:#a56140"/><path d="M75.39528,51.42883h-.71863V46.94836a.37524.37524,0,0,0-.37545-.37545H73.15945a.3763.3763,0,0,0-.308.16023l-3.48537,4.98791a.37477.37477,0,0,0-.0594.18951v-.10628a.37523.37523,0,0,0-.37545-.37545h-.7179V46.94836a.37524.37524,0,0,0-.37545-.37545H66.69614a.3763.3763,0,0,0-.308.16023L62.902,51.72105a.37612.37612,0,0,0-.06746.21522v.69737a.37524.37524,0,0,0,.37545.37545h3.25439v1.75185a.37523.37523,0,0,0,.37545.37545h.998a.37523.37523,0,0,0,.37545-.37545V53.00909h.7179a.37317.37317,0,0,0,.37142-.35542.37316.37316,0,0,0,.37141.35542h3.25439v1.75185a.37523.37523,0,0,0,.37545.37545h.99729a.37523.37523,0,0,0,.37545-.37545V53.00909h.71863a.37523.37523,0,0,0,.37545-.37545v-.82936A.37523.37523,0,0,0,75.39528,51.42883Zm-8.93086,0H64.99488l1.46954-2.04408Zm6.464,0H71.45893l1.46953-2.04408Z" style="fill:#a56140"/><path d="M82.72315,48.43586a2.73009,2.73009,0,0,0-1.75992.58334l-.00513-.09386a.37518.37518,0,0,0-.37472-.35712h-.94962a.37592.37592,0,0,0-.37545.392c.0242.54814.04766,1.144.04766,1.88238v6.29832a.37524.37524,0,0,0,.37545.37545h1.04569a.37524.37524,0,0,0,.37545-.37545V54.86324a2.63516,2.63516,0,0,0,1.4402.40551c1.45413,0,3.01973-1.09555,3.01973-3.50077C85.56249,49.8372,84.36868,48.43586,82.72315,48.43586Zm-.32485,1.59236c.93642,0,1.35514.89793,1.35514,1.78816,0,1.17218-.51991,1.87211-1.39107,1.87211a1.25066,1.25066,0,0,1-1.21728-.92836,2.07063,2.07063,0,0,1-.04253-.367v-.99766a1.41371,1.41371,0,0,1,.06086-.33878A1.31372,1.31372,0,0,1,82.3983,50.02822Z" style="fill:#a56140"/><path d="M91.503,54.54975l-1.89632-2.78947L91.43916,49.16a.375.375,0,0,0-.30652-.59178h-1.141a.37547.37547,0,0,0-.31312.16866L88.85428,49.985l-.12393.20019c-.05207.0836-.10413.16756-.1562.25262-.09166-.14886-.18625-.29772-.28892-.45171l-.82936-1.24991a.37566.37566,0,0,0-.31312-.16793H85.96507a.37583.37583,0,0,0-.30872.58921l1.823,2.634-1.91832,2.755a.37524.37524,0,0,0,.308.58994H87.035a.37531.37531,0,0,0,.31605-.17269l.99289-1.55276c.05353-.08543.10633-.16976.15839-.25409.10266.16719.20826.33255.32119.499l.85356,1.31a.37609.37609,0,0,0,.31458.17049h1.20115a.375.375,0,0,0,.31019-.58664Z" style="fill:#a56140"/><path d="M35.36,81.5583h-.71864V77.07784a.37523.37523,0,0,0-.37545-.37545H33.12419a.37626.37626,0,0,0-.308.16023l-3.48538,4.9879a.3735.3735,0,0,0-.05866.18713v-.1039a.37524.37524,0,0,0-.37545-.37545h-.71864V77.07784a.37523.37523,0,0,0-.37545-.37545H26.66088a.37627.37627,0,0,0-.308.16023l-3.48538,4.9879a.37617.37617,0,0,0-.06746.21523v.69737a.37524.37524,0,0,0,.37545.37545h3.25439v1.75185a.37523.37523,0,0,0,.37545.37545h.99728a.37523.37523,0,0,0,.37545-.37545V83.13857h.71864a.37289.37289,0,0,0,.37105-.35364.37288.37288,0,0,0,.37105.35364H32.8932v1.75185a.37523.37523,0,0,0,.37545.37545h.99728a.37523.37523,0,0,0,.37545-.37545V83.13857H35.36a.37524.37524,0,0,0,.37545-.37545v-.82937A.37524.37524,0,0,0,35.36,81.5583Zm-8.93013,0H24.95962l1.47027-2.04517Zm6.46331,0H31.42366l1.46954-2.04407Z" style="fill:#a56140"/><path d="M42.68789,78.56534a2.73009,2.73009,0,0,0-1.75992.58334l-.00514-.09386a.37516.37516,0,0,0-.37471-.35712h-.94963a.37592.37592,0,0,0-.37545.392c.0242.54814.0484,1.14395.0484,1.88238v6.29832a.37524.37524,0,0,0,.37545.37545h1.04569a.37524.37524,0,0,0,.37545-.37545V84.99272a2.63445,2.63445,0,0,0,1.43947.40551c1.45413,0,3.01973-1.09555,3.01973-3.50077C45.52723,79.96668,44.33341,78.56534,42.68789,78.56534ZM42.363,80.1577c.93642,0,1.35513.89793,1.35513,1.78815,0,1.17218-.51991,1.87212-1.39107,1.87212a1.25129,1.25129,0,0,1-1.21727-.92836,2.07308,2.07308,0,0,1-.0418-.367v-.99765a1.44517,1.44517,0,0,1,.06013-.33879A1.31371,1.31371,0,0,1,42.363,80.1577Z" style="fill:#a56140"/><path d="M51.46843,84.67923l-1.89632-2.78947,1.83252-2.60029a.375.375,0,0,0-.30652-.59177H49.95636a.37545.37545,0,0,0-.31312.16866L48.819,80.11444l-.11733.18992c-.05426.08726-.10852.17453-.16206.26326-.09239-.14886-.187-.29809-.28965-.45208l-.82936-1.24991a.37565.37565,0,0,0-.31312-.16793H45.92981a.37582.37582,0,0,0-.30872.58921l1.823,2.634-1.91831,2.755a.37524.37524,0,0,0,.308.58994h1.16594a.37534.37534,0,0,0,.31606-.17269l.99582-1.55753c.0528-.084.10486-.16683.15619-.24932.10193.16719.20752.33218.32045.499l.85356,1.31a.37613.37613,0,0,0,.31459.17049h1.20188a.375.375,0,0,0,.31019-.58664Z" style="fill:#a56140"/></svg>