<svg xmlns="http://www.w3.org/2000/svg" viewBox="0 0 110 110"><title>02_</title><path d="M44.85619,41.19764H28.06361a.7509.7509,0,0,1,0-1.5018H44.85619a.7509.7509,0,0,1,0,1.5018Z" style="fill:#515151"/><path d="M44.85619,45.7859H28.06361a.7509.7509,0,1,1,0-1.5018H44.85619a.7509.7509,0,0,1,0,1.5018Z" style="fill:#515151"/><circle cx="24.88296" cy="40.44682" r="1.06692" style="fill:#515151"/><circle cx="24.88296" cy="45.03487" r="1.06692" style="fill:#515151"/><path d="M44.85619,50.37416H28.06361a.7509.7509,0,1,1,0-1.5018H44.85619a.7509.7509,0,0,1,0,1.5018Z" style="fill:#515151"/><circle cx="24.88296" cy="49.62293" r="1.06692" style="fill:#515151"/><path d="M62.32047,57.0252H24.88329a.7509.7509,0,1,1,0-1.5018H62.32047a.7509.7509,0,0,1,0,1.5018Z" style="fill:#515151"/><path d="M53.24954,61.65452H24.88329a.7509.7509,0,1,1,0-1.5018H53.24954a.7509.7509,0,0,1,0,1.5018Z" style="fill:#515151"/><path d="M48.91281,66.28385H24.88329a.7509.7509,0,1,1,0-1.5018H48.91281a.7509.7509,0,0,1,0,1.5018Z" style="fill:#515151"/><path d="M53.24954,70.91317H24.88329a.7509.7509,0,0,1,0-1.5018H53.24954a.7509.7509,0,1,1,0,1.5018Z" style="fill:#515151"/><path d="M48.91281,75.5425H24.88329a.7509.7509,0,1,1,0-1.5018H48.91281a.7509.7509,0,0,1,0,1.5018Z" style="fill:#515151"/><path d="M53.24954,80.17182H24.88329a.7509.7509,0,1,1,0-1.5018H53.24954a.7509.7509,0,0,1,0,1.5018Z" style="fill:#515151"/><path d="M48.91281,84.80188H24.88329a.7509.7509,0,1,1,0-1.5018H48.91281a.7509.7509,0,0,1,0,1.5018Z" style="fill:#515151"/><path d="M93.51733,15.30242H16.48267a5.63791,5.63791,0,0,0-5.63175,5.63175V89.06583a5.63791,5.63791,0,0,0,5.63175,5.63175H93.51733a5.63791,5.63791,0,0,0,5.63175-5.63175V20.93417A5.63791,5.63791,0,0,0,93.51733,15.30242Zm-7.58012,8.06337h5.59068a1.12635,1.12635,0,1,1,0,2.2527H85.93721a1.12635,1.12635,0,1,1,0-2.2527Zm-12.23512,0h5.59068a1.12635,1.12635,0,1,1,0,2.2527H73.70209a1.12635,1.12635,0,0,1,0-2.2527Zm-55.23,0H29.65347a1.12635,1.12635,0,1,1,0,2.2527H18.47211a1.12635,1.12635,0,1,1,0-2.2527Zm78.42427,65.7a3.38274,3.38274,0,0,1-3.379,3.379H16.48267a3.38274,3.38274,0,0,1-3.379-3.379V32.888H96.89638Z" style="fill:#515151"/></svg>