<svg xmlns="http://www.w3.org/2000/svg" viewBox="0 0 110 110"><title>02_</title><path d="M93.51733,15.30242H16.48267a5.63791,5.63791,0,0,0-5.63175,5.63175V89.06583a5.63791,5.63791,0,0,0,5.63175,5.63175H93.51733a5.63791,5.63791,0,0,0,5.63175-5.63175V20.93417A5.63791,5.63791,0,0,0,93.51733,15.30242Zm-7.58012,8.06337h5.59068a1.12635,1.12635,0,1,1,0,2.2527H85.93721a1.12635,1.12635,0,1,1,0-2.2527Zm-12.23512,0h5.59068a1.12635,1.12635,0,1,1,0,2.2527H73.70209a1.12635,1.12635,0,0,1,0-2.2527Zm-55.23,0H29.65347a1.12635,1.12635,0,1,1,0,2.2527H18.47211a1.12635,1.12635,0,1,1,0-2.2527Zm78.42427,65.7a3.38274,3.38274,0,0,1-3.379,3.379H16.48267a3.38274,3.38274,0,0,1-3.379-3.379V32.888H96.89638Z" style="fill:#515151"/><path d="M46.89483,44.02029H24.964a.7509.7509,0,1,1,0-1.50179H46.89483a.7509.7509,0,1,1,0,1.50179Z" style="fill:#515151"/><path d="M46.89483,68.25074H24.964a.7509.7509,0,0,1,0-1.5018H46.89483a.7509.7509,0,1,1,0,1.5018Z" style="fill:#515151"/><path d="M85.036,83.54885H24.964a1.12641,1.12641,0,0,1-1.12635-1.12635V73.88322A1.1264,1.1264,0,0,1,24.964,72.75687H85.036a1.1264,1.1264,0,0,1,1.12635,1.12635V82.4225A1.12641,1.12641,0,0,1,85.036,83.54885Zm-58.94561-2.2527H83.90963V75.00957H26.09037Z" style="fill:#515151"/><path d="M85.15991,42.76342a.1839.1839,0,0,0-.14886-.04473L83.84,42.876l.75383-1.00646a.18686.18686,0,0,0,.03373-.15032.18921.18921,0,0,0-.09019-.125l-.63431-.36482a.19483.19483,0,0,0-.15326-.0154.18858.18858,0,0,0-.11293.10413l-.48544,1.12929-.49278-1.12012a.18773.18773,0,0,0-.26619-.0869l-.6453.37545a.18841.18841,0,0,0-.055.27609l.74063.97419-1.12708-.14776a.19457.19457,0,0,0-.14812.0451.18882.18882,0,0,0-.0638.14116v.72927a.18944.18944,0,0,0,.0638.14116.18181.18181,0,0,0,.14812.04509l1.13442-.14776-.74724.97346a.185.185,0,0,0-.03593.14666.18761.18761,0,0,0,.0836.12576l.60277.38645a.18834.18834,0,0,0,.1012.0297.184.184,0,0,0,.05279-.0077.18749.18749,0,0,0,.11807-.1023l.52137-1.14651.47811,1.13075a.18746.18746,0,0,0,.26693.08946l.66657-.38572a.18815.18815,0,0,0,.05353-.27865l-.75237-.954,1.16375.14042a.17852.17852,0,0,0,.14739-.04583.18717.18717,0,0,0,.06307-.14042v-.72927A.18826.18826,0,0,0,85.15991,42.76342Z" style="fill:#515151"/><path d="M79.19,57.06571H26.09038V50.77913H83.90965v2.00924a6.93053,6.93053,0,0,1,1.77935-.23878c.15977,0,.31623.01329.47334.02392V49.65278A1.1264,1.1264,0,0,0,85.036,48.52643H24.964a1.1264,1.1264,0,0,0-1.12635,1.12635v8.53928A1.1264,1.1264,0,0,0,24.964,59.31841H78.75372A6.90876,6.90876,0,0,1,79.19,57.06571Z" style="fill:#515151"/><path d="M85.689,52.54959a6.94408,6.94408,0,1,0,6.94408,6.94408A6.94407,6.94407,0,0,0,85.689,52.54959Zm-3.24953,8.76468a.75128.75128,0,0,1-.88289-1.21581.74731.74731,0,0,0-.00074-1.21068.75112.75112,0,0,1,.88436-1.21435,2.25057,2.25057,0,0,1-.00073,3.64084Zm2.47342,1.78192A.75069.75069,0,0,1,84.03,61.88184a2.95167,2.95167,0,0,0,0-4.77671.75069.75069,0,0,1,.88289-1.21435,4.45245,4.45245,0,0,1,0,7.20541ZM87.76983,64.125a.75069.75069,0,0,1-.88289-1.21435,4.22251,4.22251,0,0,0,0-6.83362.75069.75069,0,0,1,.88289-1.21435,5.72329,5.72329,0,0,1,0,9.26232Z" style="fill:#515151"/></svg>