<svg xmlns="http://www.w3.org/2000/svg" viewBox="0 0 110 110"><title>02_</title><path d="M93.51733,15.30242H16.48267a5.63791,5.63791,0,0,0-5.63175,5.63175V89.06583a5.63791,5.63791,0,0,0,5.63175,5.63175H93.51733a5.63791,5.63791,0,0,0,5.63175-5.63175V20.93417A5.63791,5.63791,0,0,0,93.51733,15.30242Zm-7.58012,8.06337h5.59068a1.12635,1.12635,0,1,1,0,2.2527H85.93721a1.12635,1.12635,0,1,1,0-2.2527Zm-12.23512,0h5.59068a1.12635,1.12635,0,1,1,0,2.2527H73.70209a1.12635,1.12635,0,0,1,0-2.2527Zm-55.23,0H29.65347a1.12635,1.12635,0,1,1,0,2.2527H18.47211a1.12635,1.12635,0,1,1,0-2.2527Zm78.42427,65.7a3.38274,3.38274,0,0,1-3.379,3.379H16.48267a3.38274,3.38274,0,0,1-3.379-3.379V32.888H96.89638Z" style="fill:#515151"/><path d="M35.84508,70.33533A12.86438,12.86438,0,0,1,22.99546,57.48571a1.12664,1.12664,0,0,1,1.12635-1.12635H34.71874V45.7617a1.12664,1.12664,0,0,1,1.12634-1.12635,12.85,12.85,0,1,1,0,25.7ZM25.30756,58.61206A10.59764,10.59764,0,1,0,36.97143,46.94745V57.48571a1.12664,1.12664,0,0,1-1.12635,1.12635Z" style="fill:#515151"/><path d="M30.92244,53.68941H19.19917a1.12664,1.12664,0,0,1-1.12635-1.12635A12.86453,12.86453,0,0,1,30.92244,39.71271a1.12664,1.12664,0,0,1,1.12635,1.12635v11.724A1.12664,1.12664,0,0,1,30.92244,53.68941Zm-10.53753-2.2527h9.41118v-9.4119A10.61839,10.61839,0,0,0,20.38491,51.43671Z" style="fill:#515151"/><path d="M63.74716,84.76228h-8.0465a.75047.75047,0,0,1-.7509-.7509V47.78928a.75047.75047,0,0,1,.7509-.7509h8.0465a.75047.75047,0,0,1,.7509.7509v36.2221A.75047.75047,0,0,1,63.74716,84.76228Zm-7.2956-1.5018h6.5447V48.54018h-6.5447Z" style="fill:#515151"/><path d="M60.16279,59.26176h-.51038a.18719.18719,0,0,0-.08873.022l-.96649.51771a.18784.18784,0,0,0-.09313.21192l.11587.45538a.18794.18794,0,0,0,.27132.1188l.50524-.27279v3.55871a.18809.18809,0,0,0,.18773.18772h.57857a.18809.18809,0,0,0,.18772-.18772v-4.424A.18809.18809,0,0,0,60.16279,59.26176Z" style="fill:#515151"/><path d="M70.60134,51.25771c-.02423-.06934-.04621-.13868-.06751-.20606-.019.06543-.03882.12988-.05938.19531l-.36664,1.083h.858Z" style="fill:#515151"/><path d="M90.9482,47.038h-27.201a.75056.75056,0,0,0-.75092.751v8.64941H55.82241a.751.751,0,0,0,0,1.502h7.17382v7.32032H55.82241a.75049.75049,0,1,0,0,1.501h7.17382v7.498H55.82241a.751.751,0,0,0,0,1.502h7.17382v8.25a.75056.75056,0,0,0,.75092.751H90.9482a.75056.75056,0,0,0,.75092-.751V47.789A.75056.75056,0,0,0,90.9482,47.038ZM70.0154,49.77626a.18618.18618,0,0,1,.17749-.12793h.715a.18649.18649,0,0,1,.17742.127L72.6509,54.3622a.18766.18766,0,0,1-.17749.249h-.63355a.18733.18733,0,0,1-.17743-.12793l-.44659-1.31543H69.85921l-.43408,1.31446a.188.188,0,0,1-.17822.1289H68.6346a.1872.1872,0,0,1-.17743-.248Zm6.58136,33.48438H64.49807v-7.499H76.59676Zm0-9.001H64.49807v-7.498H76.59676Zm0-8.999H64.49807V57.94032H76.59676Zm6.03583-15.36328a.18711.18711,0,0,1,.14886-.1836,5.96147,5.96147,0,0,1,1.12122-.09961,2.07566,2.07566,0,0,1,1.37713.376,1.14007,1.14007,0,0,1,.451.95508,1.20644,1.20644,0,0,1-.53167.99218,1.31457,1.31457,0,0,1,.70178,1.17969,1.4194,1.4194,0,0,1-.44513,1.05371,2.47952,2.47952,0,0,1-1.71662.48145,7.078,7.078,0,0,1-.94525-.05664.18724.18724,0,0,1-.16131-.18653Zm7.56469,33.36328H78.09859v-7.499H90.19728Zm0-9.001H78.09859v-7.498H90.19728Zm0-8.999H78.09859V57.94032H90.19728Z" style="fill:#515151"/><path d="M84.89919,53.11025c0-.60645-.624-.69727-.99652-.69727h-.30213v1.39258c.08283.00586.18476.00879.30872.00879C84.361,53.81435,84.89919,53.6913,84.89919,53.11025Z" style="fill:#515151"/><path d="M84.75624,51.00673c0-.15332,0-.56055-.81988-.56055a3.31012,3.31012,0,0,0-.33582.01465v1.12793h.3498C84.44014,51.58876,84.75624,51.36025,84.75624,51.00673Z" style="fill:#515151"/><path d="M61.10875,72.18838h-1.5216l.01906-.0176c.92616-.89243,1.58173-1.59493,1.58173-2.51009a1.42845,1.42845,0,0,0-1.54213-1.47393,2.1275,2.1275,0,0,0-1.37347.49351.18732.18732,0,0,0-.04986.22072l.19065.42165a.18717.18717,0,0,0,.29112.06747,1.33313,1.33313,0,0,1,.8191-.33072.60494.60494,0,0,1,.69.6739c-.00587.58151-.473,1.119-1.5898,2.18157l-.46931.45611a.18871.18871,0,0,0-.0572.13493v.36738a.18809.18809,0,0,0,.18773.18773h2.82394a.18809.18809,0,0,0,.18772-.18773V72.3761A.18809.18809,0,0,0,61.10875,72.18838Z" style="fill:#515151"/><path d="M60.50011,79.44732a1.2044,1.2044,0,0,0,.54484-1.01709,1.2817,1.2817,0,0,0-1.4534-1.24294,2.29606,2.29606,0,0,0-1.26861.37691.18755.18755,0,0,0-.06526.21413l.15619.43558a.18725.18725,0,0,0,.12026.11586.183.183,0,0,0,.165-.02567,1.44,1.44,0,0,1,.77657-.25812c.37911,0,.5881.17013.5881.47958,0,.41138-.47811.561-.79929.561h-.33366a.18809.18809,0,0,0-.18772.18772V79.723a.18809.18809,0,0,0,.18772.18773h.33366c.15839,0,.94815.03373.95549.701a.62919.62919,0,0,1-.17233.44878.86031.86031,0,0,1-.64017.21706,1.80136,1.80136,0,0,1-.87849-.24932.18954.18954,0,0,0-.16206-.01907.18619.18619,0,0,0-.11586.11513l-.16353.46271a.18643.18643,0,0,0,.07406.21926,2.42115,2.42115,0,0,0,1.25248.33,1.59543,1.59543,0,0,0,1.801-1.515A1.28993,1.28993,0,0,0,60.50011,79.44732Z" style="fill:#515151"/></svg>