<svg xmlns="http://www.w3.org/2000/svg" viewBox="0 0 110 110"><title>02_</title><path d="M77.73818,72.64174H69.63667a.75071.75071,0,0,1-.7509-.7509v-8.1015a.75071.75071,0,0,1,.7509-.7509h8.10151a.75071.75071,0,0,1,.7509.7509v8.1015A.75071.75071,0,0,1,77.73818,72.64174Zm-7.35061-1.5018h6.59971v-6.5997H70.38757Z" style="fill:#515151"/><path d="M89.27006,84.13255H81.16855a.75069.75069,0,0,1-.75089-.75089V75.28015a.7507.7507,0,0,1,.75089-.7509h8.10151a.75071.75071,0,0,1,.7509.7509v8.10151A.7507.7507,0,0,1,89.27006,84.13255Zm-7.35061-1.50179h6.59971V76.031H81.91945Z" style="fill:#515151"/><path d="M66.23636,84.13255h-8.1015a.75069.75069,0,0,1-.7509-.75089V75.28015a.7507.7507,0,0,1,.7509-.7509h8.1015a.7507.7507,0,0,1,.7509.7509v8.10151A.75069.75069,0,0,1,66.23636,84.13255Zm-7.3506-1.50179h6.5997V76.031h-6.5997Z" style="fill:#515151"/><path d="M73.41773,66.50739,72.014,68.93872a.31118.31118,0,0,0,.26949.46676h2.80745a.31117.31117,0,0,0,.26948-.46676l-1.40373-2.43133A.31117.31117,0,0,0,73.41773,66.50739Z" style="fill:#515151"/><path d="M77.73818,74.52925H69.63667a.75071.75071,0,0,0-.7509.7509v8.10151a.7507.7507,0,0,0,.7509.75089h8.10151a.7507.7507,0,0,0,.7509-.75089V75.28015A.75071.75071,0,0,0,77.73818,74.52925Zm-2.31063,4.47442-1.53792,2.66385a.23371.23371,0,0,1-.40478,0l-1.53791-2.66385a.23361.23361,0,0,1,.2023-.35052h3.07592A.23371.23371,0,0,1,75.42755,79.00367Z" style="fill:#515151"/><path d="M60.409,80.04427,62.84035,81.448a.31117.31117,0,0,0,.46676-.26948V78.37106a.31117.31117,0,0,0-.46676-.26948L60.409,79.50531A.31117.31117,0,0,0,60.409,80.04427Z" style="fill:#515151"/><path d="M86.99582,79.50531,84.5645,78.10158a.31117.31117,0,0,0-.46676.26948v2.80746a.31117.31117,0,0,0,.46676.26948l2.43132-1.40373A.31117.31117,0,0,0,86.99582,79.50531Z" style="fill:#515151"/><path d="M93.51733,15.30242H16.48267a5.63791,5.63791,0,0,0-5.63175,5.63175V89.06583a5.63791,5.63791,0,0,0,5.63175,5.63175H93.51733a5.63791,5.63791,0,0,0,5.63175-5.63175V20.93417A5.63791,5.63791,0,0,0,93.51733,15.30242Zm-7.58012,8.06337h5.59068a1.12635,1.12635,0,1,1,0,2.2527H85.93721a1.12635,1.12635,0,1,1,0-2.2527Zm-12.23512,0h5.59068a1.12635,1.12635,0,1,1,0,2.2527H73.70209a1.12635,1.12635,0,0,1,0-2.2527Zm-55.23,0H29.65347a1.12635,1.12635,0,1,1,0,2.2527H18.47211a1.12635,1.12635,0,1,1,0-2.2527Zm78.42427,65.7a3.38274,3.38274,0,0,1-3.379,3.379H16.48267a3.38274,3.38274,0,0,1-3.379-3.379V41.32908H96.89638Zm0-49.98945H13.10362V32.888H96.89638Z" style="fill:#515151"/><path d="M34.57172,46.013H17.97127a.7509.7509,0,0,1,0-1.5018H34.57172a.7509.7509,0,1,1,0,1.5018Z" style="fill:#515151"/><path d="M34.57172,55.18919H20.73581a.7509.7509,0,0,1,0-1.5018H34.57172a.7509.7509,0,0,1,0,1.5018Z" style="fill:#515151"/><path d="M34.57172,59.77745H17.97127a.7509.7509,0,0,1,0-1.5018H34.57172a.7509.7509,0,0,1,0,1.5018Z" style="fill:#515151"/><path d="M34.57172,64.36534H20.73581a.7509.7509,0,1,1,0-1.50179H34.57172a.7509.7509,0,1,1,0,1.50179Z" style="fill:#515151"/><path d="M34.57172,68.95324H17.97127a.7509.7509,0,0,1,0-1.5018H34.57172a.7509.7509,0,0,1,0,1.5018Z" style="fill:#515151"/><path d="M34.57172,73.5415H20.73581a.7509.7509,0,0,1,0-1.5018H34.57172a.7509.7509,0,0,1,0,1.5018Z" style="fill:#515151"/><path d="M34.57172,78.12939H20.73581a.7509.7509,0,0,1,0-1.5018H34.57172a.7509.7509,0,0,1,0,1.5018Z" style="fill:#515151"/><path d="M41.69207,87.91345H10.85092V39.07638H41.69207Zm-28.58845-2.2527H39.43937V41.32908H13.10362Z" style="fill:#515151"/><path d="M39.25427,37.12193l.95529-1.6546a.5.5,0,0,0-.433-.75H37.866a.5.5,0,0,0-.433.75l.95529,1.6546A.5.5,0,0,0,39.25427,37.12193Z" style="fill:#515151"/><path d="M31.45373,36.89885H21.08926a.7509.7509,0,0,1,0-1.5018H31.45373a.7509.7509,0,0,1,0,1.5018Z" style="fill:#515151"/><path d="M60.18223,36.89885H49.81777a.7509.7509,0,0,1,0-1.5018H60.18223a.7509.7509,0,0,1,0,1.5018Z" style="fill:#515151"/><path d="M88.91074,36.89885H78.54627a.7509.7509,0,0,1,0-1.5018H88.91074a.7509.7509,0,0,1,0,1.5018Z" style="fill:#515151"/><path d="M12.62377,47.6389V52.103H40.56544V47.6389Zm5.3475,3.00621a.79488.79488,0,1,1,.7948-.79485A.79485.79485,0,0,1,17.97127,50.64511Zm16.60045-.04381H20.73581a.7509.7509,0,1,1,0-1.5018H34.57172a.7509.7509,0,0,1,0,1.5018Z" style="fill:#515151"/><circle cx="17.97121" cy="54.43832" r="0.79487" style="fill:#515151"/><circle cx="17.97121" cy="63.61443" r="0.79487" style="fill:#515151"/><circle cx="17.97121" cy="72.79054" r="0.79487" style="fill:#515151"/><circle cx="17.97121" cy="77.3786" r="0.79487" style="fill:#515151"/></svg>