<svg xmlns="http://www.w3.org/2000/svg" viewBox="0 0 110 110"><title>02_</title><path d="M72.37993,66.91815H37.62a.7509.7509,0,0,1,0-1.5018h34.7599a.7509.7509,0,0,1,0,1.5018Z" style="fill:#515151"/><path d="M81.06074,71.17276H28.93922a.7509.7509,0,1,1,0-1.5018H81.06074a.7509.7509,0,0,1,0,1.5018Z" style="fill:#515151"/><path d="M61.70063,45.03835,48.29937,37.30113a2,2,0,0,0-3,1.73205V54.50762a2,2,0,0,0,3,1.732l13.40126-7.73722A2,2,0,0,0,61.70063,45.03835Z" style="fill:#515151"/><path d="M93.51733,15.30242H16.48267a5.63791,5.63791,0,0,0-5.63175,5.63175V89.06583a5.63791,5.63791,0,0,0,5.63175,5.63175H93.51733a5.63791,5.63791,0,0,0,5.63175-5.63175V20.93417A5.63791,5.63791,0,0,0,93.51733,15.30242ZM23.7049,85.99193l-3.97985,2.29775a.75089.75089,0,0,1-1.12635-.6503v-4.5955a.75089.75089,0,0,1,1.12635-.6503l3.97985,2.29775A.75093.75093,0,0,1,23.7049,85.99193Zm10.48592,1.51129a.75091.75091,0,0,1-.7509.75089H29.12559a.7509.7509,0,0,1-.7509-.75089V83.18884a.75091.75091,0,0,1,.7509-.7509h4.31433a.75091.75091,0,0,1,.7509.7509Zm6.55671,0a.75093.75093,0,0,1-.7509.75089h-.76057a.75093.75093,0,0,1-.7509-.75089V83.18884a.75094.75094,0,0,1,.7509-.7509h.76057a.75094.75094,0,0,1,.7509.7509Zm3.92471,0a.7509.7509,0,0,1-.7509.75089h-.76052a.7509.7509,0,0,1-.7509-.75089V83.18884a.75091.75091,0,0,1,.7509-.7509h.76052a.75091.75091,0,0,1,.7509.7509ZM96.89638,77.112H13.10362V20.93417a3.38274,3.38274,0,0,1,3.379-3.37905H93.51733a3.38274,3.38274,0,0,1,3.379,3.37905Z" style="fill:#515151"/></svg>