<svg xmlns="http://www.w3.org/2000/svg" viewBox="0 0 110 110"><title>02_</title><path d="M93.51733,15.30242H16.48267a5.63791,5.63791,0,0,0-5.63175,5.63175V89.06583a5.63791,5.63791,0,0,0,5.63175,5.63175H93.51733a5.63791,5.63791,0,0,0,5.63175-5.63175V20.93417A5.63791,5.63791,0,0,0,93.51733,15.30242Zm-7.58012,8.06337h5.59068a1.12635,1.12635,0,1,1,0,2.2527H85.93721a1.12635,1.12635,0,1,1,0-2.2527Zm-12.23512,0h5.59068a1.12635,1.12635,0,1,1,0,2.2527H73.70209a1.12635,1.12635,0,0,1,0-2.2527Zm-55.23,0H29.65347a1.12635,1.12635,0,1,1,0,2.2527H18.47211a1.12635,1.12635,0,1,1,0-2.2527Zm78.42427,65.7a3.38274,3.38274,0,0,1-3.379,3.379H16.48267a3.38274,3.38274,0,0,1-3.379-3.379V32.888H96.89638Z" style="fill:#515151"/><path d="M72.60287,75.715H37.39713a1.12635,1.12635,0,1,1,0-2.2527H72.60287a1.12635,1.12635,0,0,1,0,2.2527Z" style="fill:#515151"/><path d="M66.70861,82.11855H43.29139a1.12635,1.12635,0,0,1,0-2.2527H66.70861a1.12635,1.12635,0,0,1,0,2.2527Z" style="fill:#515151"/><path d="M53.54147,66.58871a2.25122,2.25122,0,0,1-1.59273-.66L46.02,59.99964a2.25246,2.25246,0,1,1,3.18546-3.18546L53.02522,60.634l8.9514-16.06625A2.2529,2.2529,0,0,1,65.913,46.76027L55.50964,65.4323a2.25387,2.25387,0,0,1-1.65725,1.13478A2.21538,2.21538,0,0,1,53.54147,66.58871Z" style="fill:#515151"/></svg>