<svg xmlns="http://www.w3.org/2000/svg" viewBox="0 0 110 110"><title>02_</title><path d="M93.51733,15.30242H16.48267a5.63791,5.63791,0,0,0-5.63175,5.63175V89.06583a5.63791,5.63791,0,0,0,5.63175,5.63175H93.51733a5.63791,5.63791,0,0,0,5.63175-5.63175V20.93417A5.63791,5.63791,0,0,0,93.51733,15.30242Zm-7.58012,8.06337h5.59068a1.12635,1.12635,0,1,1,0,2.2527H85.93721a1.12635,1.12635,0,1,1,0-2.2527Zm-12.23512,0h5.59068a1.12635,1.12635,0,1,1,0,2.2527H73.70209a1.12635,1.12635,0,0,1,0-2.2527Zm-55.23,0H29.65347a1.12635,1.12635,0,1,1,0,2.2527H18.47211a1.12635,1.12635,0,1,1,0-2.2527Zm78.42427,65.7a3.38274,3.38274,0,0,1-3.379,3.379H16.48267a3.38274,3.38274,0,0,1-3.379-3.379V32.888H96.89638Z" style="fill:#515151"/><path d="M29.90353,49.38567h-2.1317l.13126-.121c1.19821-1.15495,2.04664-2.06277,2.04664-3.23386a1.80946,1.80946,0,0,0-1.955-1.86624,2.71806,2.71806,0,0,0-1.75479.6299.18731.18731,0,0,0-.04986.22072l.24859.55071a.18864.18864,0,0,0,.12906.10633.18635.18635,0,0,0,.16206-.03886,1.79641,1.79641,0,0,1,1.10508-.44512.849.849,0,0,1,.95769.93789c-.00807.77877-.62257,1.4886-2.09211,2.88627l-.6123.59471a.18871.18871,0,0,0-.0572.13493v.47958a.18809.18809,0,0,0,.18773.18772h3.68483a.18809.18809,0,0,0,.18773-.18772V49.5734A.18809.18809,0,0,0,29.90353,49.38567Z" style="fill:#515151"/><path d="M86.56125,29.63716H22.84991a1.12664,1.12664,0,0,0-1.12634,1.12635V54.301a1.12664,1.12664,0,0,0,1.12634,1.12634H86.56125A1.12664,1.12664,0,0,0,87.68759,54.301V30.76351A1.12664,1.12664,0,0,0,86.56125,29.63716ZM85.4349,38.76382H69.94833v-6.874H85.4349Zm-17.73927,0H52.20979v-6.874H67.69563Zm-17.73854,0H34.47126v-6.874H49.95709Zm-17.73853-6.874v6.874h-8.2423v-6.874Zm-8.2423,9.12666h8.2423V53.17464h-8.2423Zm10.495,0H49.95709V53.17464H34.47126Zm17.73853,0H67.69563V53.17464H52.20979ZM69.94833,53.17464V41.01652H85.4349V53.17464Z" style="fill:#515151"/><path d="M68.822,58.07528H22.84991a1.12635,1.12635,0,0,0,0,2.2527H68.822a1.12635,1.12635,0,0,0,0-2.2527Z" style="fill:#515151"/><path d="M81.35408,86.46647H28.17661a.75047.75047,0,0,1-.7509-.7509V69.34831a.75047.75047,0,0,1,.7509-.7509h4.4746l3.46851-3.459a.75066.75066,0,0,1,1.28107.53164v2.92734H81.35408a.75047.75047,0,0,1,.7509.7509V85.71557A.75047.75047,0,0,1,81.35408,86.46647Zm-52.42657-1.5018H80.60318V70.09921H36.64989a.75047.75047,0,0,1-.7509-.7509V67.47913l-2.40742,2.40082a.74924.74924,0,0,1-.53018.21926H28.92751Z" style="fill:#515151"/><path d="M37.9603,75.14138,33.782,77.29288a.37474.37474,0,0,0-.20386.33366v.48691a.37474.37474,0,0,0,.20386.33365l4.17834,2.15223a.37508.37508,0,0,0,.547-.33365v-.6211a.37558.37558,0,0,0-.20679-.33585L35.43041,77.87l2.86941-1.438a.37494.37494,0,0,0,.20752-.33585V75.475a.37509.37509,0,0,0-.547-.33365Z" style="fill:#515151"/><path d="M43.12933,75.706a2.9996,2.9996,0,0,0-1.26567-.26472,2.58657,2.58657,0,0,0-2.71688,2.68975,2.43615,2.43615,0,0,0,2.54529,2.60028,3.271,3.271,0,0,0,1.42627-.29479.37568.37568,0,0,0,.19212-.41651l-.13566-.594a.37507.37507,0,0,0-.51624-.26032,1.89275,1.89275,0,0,1-.822.18406,1.12467,1.12467,0,0,1-1.13735-1.25468,1.1402,1.1402,0,0,1,1.16448-1.27227,1.46842,1.46842,0,0,1,.73183.15692.3687.3687,0,0,0,.32632.02274.37464.37464,0,0,0,.22-.242l.18039-.61231A.37481.37481,0,0,0,43.12933,75.706Z" style="fill:#515151"/><path d="M47.76159,77.59134a1.90985,1.90985,0,0,0-2.03271-2.15884,3.07232,3.07232,0,0,0-1.63672.448.37564.37564,0,0,0-.1496.437l.17966.52211a.37549.37549,0,0,0,.55878.19286,1.80884,1.80884,0,0,1,.93129-.264c.33878,0,.51918.10413.58517.35712a3.11549,3.11549,0,0,0-2.08917.73623,1.72543,1.72543,0,0,0-.50158,1.251,1.61359,1.61359,0,0,0,1.70786,1.6272,2.10521,2.10521,0,0,0,1.09115-.29919.376.376,0,0,0,.33219.20019h.7201a.37574.37574,0,0,0,.36958-.44218,5.75857,5.75857,0,0,1-.066-.97822Zm-2.2395,1.81271a.33393.33393,0,0,1-.37178-.38131.40956.40956,0,0,1,.121-.319,1.49057,1.49057,0,0,1,.97383-.28232v.37619a.45907.45907,0,0,1-.0242.13052A.70908.70908,0,0,1,45.52209,79.40405Z" style="fill:#515151"/><path d="M51.3973,75.4325a2.18038,2.18038,0,0,0-1.24588.35858.375.375,0,0,0-.35712-.25958h-.712a.37595.37595,0,0,0-.37545.39231c.01833.40918.03666.8543.03666,1.40647v4.71806a.37524.37524,0,0,0,.37545.37545h.78317a.37524.37524,0,0,0,.37545-.37545V80.50621c1.19454.63137,3.34091-.02347,3.34091-2.483A2.347,2.347,0,0,0,51.3973,75.4325ZM51.15384,76.814c.6365,0,.92176.6255.92176,1.24514,0,.30726-.0682,1.30821-.94889,1.30821a.843.843,0,0,1-.8191-.61671,1.475,1.475,0,0,1-.03006-.25885v-.748a1.05144,1.05144,0,0,1,.04253-.231A.8894.8894,0,0,1,51.15384,76.814Z" style="fill:#515151"/><path d="M56.78559,75.5315h-.7597v-.8763a.37569.37569,0,0,0-.47225-.363l-.77436.20679a.37589.37589,0,0,0-.27866.363v.66951H54.2007a.37523.37523,0,0,0-.37545.37545v.6035a.37523.37523,0,0,0,.37545.37545h.29992v2.00191a1.927,1.927,0,0,0,.39965,1.383,1.47757,1.47757,0,0,0,1.13735.46051,2.30266,2.30266,0,0,0,.84623-.13713.375.375,0,0,0,.231-.36958l-.03593-.594a.37588.37588,0,0,0-.15473-.28158.38234.38234,0,0,0-.31679-.05867,1.40739,1.40739,0,0,1-.36225.0418c-.11292,0-.21925,0-.21925-.47151V76.8859h.7597a.37523.37523,0,0,0,.37545-.37545V75.907A.37523.37523,0,0,0,56.78559,75.5315Z" style="fill:#515151"/><path d="M58.921,75.5315h-.25519a.86471.86471,0,0,0,.48911-.24859.83363.83363,0,0,0,.23172-.60718.84678.84678,0,0,0-.86163-.86456.86143.86143,0,0,0-.87116.87043.849.849,0,0,0,.70471.8499H58.129a.37523.37523,0,0,0-.37545.37545v4.35873a.37523.37523,0,0,0,.37545.37545h.792a.37523.37523,0,0,0,.37545-.37545V75.907A.37523.37523,0,0,0,58.921,75.5315Z" style="fill:#515151"/><path d="M62.53393,75.4325a2.50287,2.50287,0,0,0-2.53649,2.68975,2.43444,2.43444,0,0,0,2.46462,2.61788,2.50659,2.50659,0,0,0,2.546-2.68975A2.43848,2.43848,0,0,0,62.53393,75.4325Zm-.0176,1.34487c.7355,0,.92982.8499.92982,1.29941,0,.7641-.39891,1.31848-.94815,1.31848s-.94816-.547-.94816-1.30015C61.54984,77.96019,61.577,76.77737,62.51633,76.77737Z" style="fill:#515151"/><path d="M68.25514,75.4325a2.04155,2.04155,0,0,0-1.15349.33879.37631.37631,0,0,0-.35051-.23979h-.7025a.37656.37656,0,0,0-.37472.40331c.02713.352.03593.71277.03593,1.152v3.17885a.37523.37523,0,0,0,.37545.37545h.792a.37522.37522,0,0,0,.37544-.37545V77.64487a.77406.77406,0,0,1,.03814-.25886.75614.75614,0,0,1,.70323-.54557c.17306,0,.63357,0,.63357.91222v2.513a.37523.37523,0,0,0,.37545.37545h.792a.37523.37523,0,0,0,.37545-.37545V77.6632A1.94781,1.94781,0,0,0,68.25514,75.4325Z" style="fill:#515151"/><path d="M75.82426,77.28335l-4.17834-2.1427a.37577.37577,0,0,0-.547.33438v.62111a.3748.3748,0,0,0,.20826.33585l2.88994,1.438-2.88994,1.43874a.3748.3748,0,0,0-.20826.33585v.6211a.37522.37522,0,0,0,.37545.37545.38373.38373,0,0,0,.1716-.04106l4.17834-2.14344a.37584.37584,0,0,0,.20386-.33438v-.50451A.37585.37585,0,0,0,75.82426,77.28335Z" style="fill:#515151"/></svg>