<svg xmlns="http://www.w3.org/2000/svg" viewBox="0 0 110 110"><title>02_</title><path d="M93.51733,15.30242H16.48267a5.63791,5.63791,0,0,0-5.63175,5.63175V89.06583a5.63791,5.63791,0,0,0,5.63175,5.63175H93.51733a5.63791,5.63791,0,0,0,5.63175-5.63175V20.93417A5.63791,5.63791,0,0,0,93.51733,15.30242Zm-7.58012,8.06337h5.59068a1.12635,1.12635,0,1,1,0,2.2527H85.93721a1.12635,1.12635,0,1,1,0-2.2527Zm-12.23512,0h5.59068a1.12635,1.12635,0,1,1,0,2.2527H73.70209a1.12635,1.12635,0,0,1,0-2.2527Zm-55.23,0H29.65347a1.12635,1.12635,0,1,1,0,2.2527H18.47211a1.12635,1.12635,0,1,1,0-2.2527Zm78.42427,65.7a3.38274,3.38274,0,0,1-3.379,3.379H16.48267a3.38274,3.38274,0,0,1-3.379-3.379V32.888H96.89638Z" style="fill:#515151"/><path d="M30.42124,40.7562h-.92542a.37523.37523,0,0,0-.37545.37545V43.7224h-2.678V41.13165a.37523.37523,0,0,0-.37545-.37545h-.91516a.37523.37523,0,0,0-.37545.37545v7.08954a.37523.37523,0,0,0,.37545.37545h.91516a.37523.37523,0,0,0,.37545-.37545v-2.9486h2.678v2.9486a.37523.37523,0,0,0,.37545.37545h.92542a.37523.37523,0,0,0,.37545-.37545V41.13165A.37523.37523,0,0,0,30.42124,40.7562Z" style="fill:#515151"/><path d="M34.51966,42.63931a2.829,2.829,0,0,0-2.76308,3.12019,2.72785,2.72785,0,0,0,2.87894,2.942,4.464,4.464,0,0,0,1.84791-.34905.374.374,0,0,0,.21046-.42824l-.15766-.66291a.3768.3768,0,0,0-.19579-.24859.37263.37263,0,0,0-.31605-.01026,2.97023,2.97023,0,0,1-1.26275.23319,1.23431,1.23431,0,0,1-1.3324-1.01636H36.592a.426.426,0,0,0,.37839-.37985,3.46515,3.46515,0,0,0,.02859-.42678A2.51051,2.51051,0,0,0,34.51966,42.63931Zm-.07333,1.41307a.81658.81658,0,0,1,.6145.22366,1.05782,1.05782,0,0,1,.25812.52944H33.5011A1.00657,1.00657,0,0,1,34.44633,44.05238Z" style="fill:#515151"/><path d="M42.24424,45.09733a2.15315,2.15315,0,0,0-2.31063-2.458,3.5265,3.5265,0,0,0-1.87725.51258.375.375,0,0,0-.15032.437l.21045.61011a.37549.37549,0,0,0,.55878.19286,2.17811,2.17811,0,0,1,1.12121-.31825c.45318,0,.69151.16426.76044.53971a3.63618,3.63618,0,0,0-2.472.84549,1.923,1.923,0,0,0-.56757,1.416,1.82421,1.82421,0,0,0,1.93224,1.83765,2.37321,2.37321,0,0,0,1.30308-.37985.37474.37474,0,0,0,.35858.264h.84183a.37573.37573,0,0,0,.36958-.44218,6.76738,6.76738,0,0,1-.07846-1.15348Zm-2.55262,2.18011a.45018.45018,0,0,1-.49791-.50818.54387.54387,0,0,1,.16059-.41725,1.86133,1.86133,0,0,1,1.24515-.35125v.506a.60171.60171,0,0,1-.03227.17232A.88914.88914,0,0,1,39.69162,47.27744Z" style="fill:#515151"/><path d="M48.657,40.75326a.37523.37523,0,0,0-.37545-.37545h-.92542a.37523.37523,0,0,0-.37545.37545V42.9341a2.37569,2.37569,0,0,0-1.18135-.29479,2.50009,2.50009,0,0,0-1.78485.745,3.27712,3.27712,0,0,0-.87336,2.3649,2.68859,2.68859,0,0,0,2.55262,2.96326,2.41537,2.41537,0,0,0,1.42553-.448.376.376,0,0,0,.37325.33218h.83083a.37587.37587,0,0,0,.374-.40918c-.02566-.28672-.04033-.74137-.04033-1.28107Zm-2.7,6.46111c-.8323,0-1.12855-.77876-1.12855-1.50693,0-.734.30139-1.592,1.14982-1.592a.99177.99177,0,0,1,.97309.79564,1.286,1.286,0,0,1,.02933.29112v.88362a1.233,1.233,0,0,1-.03227.31165A1.01077,1.01077,0,0,1,45.95694,47.21437Z" style="fill:#515151"/><path d="M52.35939,42.63931a2.829,2.829,0,0,0-2.76308,3.12019,2.72785,2.72785,0,0,0,2.87894,2.942,4.464,4.464,0,0,0,1.84791-.34905.374.374,0,0,0,.21046-.42824L54.376,47.2613a.3768.3768,0,0,0-.19579-.24859.37272.37272,0,0,0-.316-.01026,2.97023,2.97023,0,0,1-1.26275.23319,1.23431,1.23431,0,0,1-1.3324-1.01636h3.16272a.426.426,0,0,0,.37839-.37985,3.46515,3.46515,0,0,0,.02859-.42678A2.51051,2.51051,0,0,0,52.35939,42.63931Zm-.07333,1.41307a.81658.81658,0,0,1,.6145.22366,1.05782,1.05782,0,0,1,.25812.52944H51.34083A1.00657,1.00657,0,0,1,52.28606,44.05238Z" style="fill:#515151"/><path d="M58.73763,42.68258a1.70393,1.70393,0,0,0-1.47173.36445A.375.375,0,0,0,56.9,42.75444h-.80956a.37523.37523,0,0,0-.37472.40038c.0286.42532.04107.90783.04107,1.5634v3.503a.37523.37523,0,0,0,.37545.37545h.91515a.37523.37523,0,0,0,.37545-.37545V45.50725a2.21857,2.21857,0,0,1,.03594-.36445.94394.94394,0,0,1,.87189-.88.99682.99682,0,0,1,.23319.02273.38686.38686,0,0,0,.31679-.07333.376.376,0,0,0,.14079-.29332v-.87263A.37422.37422,0,0,0,58.73763,42.68258Z" style="fill:#515151"/><path d="M65.4576,41.00845h-.7883a.37711.37711,0,0,0-.17746.04473l-1.49373.7993a.37519.37519,0,0,0-.18626.42311l.17892.70471a.37521.37521,0,0,0,.54191.23832l.65557-.35419v5.35676a.37523.37523,0,0,0,.37545.37545h.8939a.37523.37523,0,0,0,.37545-.37545V41.3839A.37524.37524,0,0,0,65.4576,41.00845Z" style="fill:#515151"/><path d="M29.54861,53.443h-.792a.28166.28166,0,0,0-.28159.28159v2.25783h-2.373V53.72461a.28166.28166,0,0,0-.28159-.28159h-.78389a.28166.28166,0,0,0-.28159.28159v6.06953a.28166.28166,0,0,0,.28159.28159h.78389a.28166.28166,0,0,0,.28159-.28159V57.23052h2.373v2.56362a.28166.28166,0,0,0,.28159.28159h.792a.28166.28166,0,0,0,.28159-.28159V53.72461A.28166.28166,0,0,0,29.54861,53.443Z" style="fill:#515151"/><path d="M33.06479,55.05555a2.38376,2.38376,0,0,0-2.326,2.63108,2.29877,2.29877,0,0,0,2.425,2.48,3.791,3.791,0,0,0,1.5656-.29552.28231.28231,0,0,0,.15839-.32191l-.13492-.56758a.284.284,0,0,0-.1474-.18626.28686.28686,0,0,0-.23685-.00806,2.57875,2.57875,0,0,1-1.097.20312,1.09308,1.09308,0,0,1-1.18868-.94962h2.75574a.32745.32745,0,0,0,.28452-.29186,2.957,2.957,0,0,0,.0242-.35858A2.11205,2.11205,0,0,0,33.06479,55.05555Zm-.92836,1.85452a.91943.91943,0,0,1,.86529-.7245.73291.73291,0,0,1,.55365.20385.97085.97085,0,0,1,.24125.52065Z" style="fill:#515151"/><path d="M39.644,57.11979a1.80777,1.80777,0,0,0-1.93885-2.06424,2.975,2.975,0,0,0-1.58539.43265.28229.28229,0,0,0-.1122.32778l.17966.52211a.28072.28072,0,0,0,.17453.17453.28977.28977,0,0,0,.24419-.02933,1.90843,1.90843,0,0,1,.98262-.27939c.42458,0,.6453.16793.69737.53971a3.117,3.117,0,0,0-2.13537.71423,1.60792,1.60792,0,0,0-.47372,1.18355,1.52307,1.52307,0,0,0,1.614,1.53406A1.98846,1.98846,0,0,0,38.434,59.8242l.00074.0022a.281.281,0,0,0,.27938.24933h.7201a.28151.28151,0,0,0,.27719-.33146,5.86906,5.86906,0,0,1-.06746-.99435Zm-2.14564,1.90732a.4256.4256,0,0,1-.46564-.47518.50612.50612,0,0,1,.14959-.38645,1.66754,1.66754,0,0,1,1.13295-.31312v.47371a.55009.55009,0,0,1-.02933.16133A.80082.80082,0,0,1,37.49832,59.02711Z" style="fill:#515151"/><path d="M45.14,53.40049a.28165.28165,0,0,0-.28158-.28158h-.7927a.28166.28166,0,0,0-.28159.28158v1.93738a1.97363,1.97363,0,0,0-1.05082-.28232,2.1023,2.1023,0,0,0-1.50106.62624,2.76886,2.76886,0,0,0-.73477,1.996,2.26409,2.26409,0,0,0,2.14564,2.49762,2.01444,2.01444,0,0,0,1.25614-.42091l.0022.0528a.282.282,0,0,0,.28159.26839h.7113a.28059.28059,0,0,0,.28012-.30726c-.022-.24565-.03447-.63577-.03447-1.09921Zm-2.27176,5.57235c-.7421,0-1.00609-.6871-1.00609-1.3302,0-.64751.26839-1.40354,1.02442-1.40354a.88787.88787,0,0,1,.8719.71277,1.136,1.136,0,0,1,.02566.25812v.75676a1.09716,1.09716,0,0,1-.02786.27572A.906.906,0,0,1,42.86828,58.97284Z" style="fill:#515151"/><path d="M48.3563,55.05555a2.38376,2.38376,0,0,0-2.326,2.63108,2.29877,2.29877,0,0,0,2.425,2.48,3.791,3.791,0,0,0,1.5656-.29552.2823.2823,0,0,0,.15839-.32191l-.13492-.56758a.284.284,0,0,0-.1474-.18626.287.287,0,0,0-.23685-.00806,2.57872,2.57872,0,0,1-1.097.20312,1.09308,1.09308,0,0,1-1.18868-.94962h2.75574a.32744.32744,0,0,0,.28452-.29186,2.957,2.957,0,0,0,.0242-.35858A2.11205,2.11205,0,0,0,48.3563,55.05555Zm-.92836,1.85452a.91944.91944,0,0,1,.8653-.7245.7329.7329,0,0,1,.55364.20385.97085.97085,0,0,1,.24125.52065Z" style="fill:#515151"/><path d="M53.81059,55.09a1.43146,1.43146,0,0,0-1.27961.35491l-.00074-.01833a.28231.28231,0,0,0-.28158-.27279H51.555a.28231.28231,0,0,0-.28086.30066c.0264.39965.03593.83523.03593,1.3412v2.99847a.28166.28166,0,0,0,.28159.28159h.78316a.28166.28166,0,0,0,.28159-.28159V57.471a1.955,1.955,0,0,1,.03153-.319.84708.84708,0,0,1,.78537-.78683.87252.87252,0,0,1,.209.02126.28164.28164,0,0,0,.34318-.275v-.748A.28157.28157,0,0,0,53.81059,55.09Z" style="fill:#515151"/><path d="M60.83414,58.85551H58.90409c1.174-1.13368,2.06791-2.10237,2.06791-3.31158a1.92168,1.92168,0,0,0-2.07378-1.98431,2.84734,2.84734,0,0,0-1.83911.66144.28073.28073,0,0,0-.0748.33071l.25226.55805a.28161.28161,0,0,0,.19359.15839.27848.27848,0,0,0,.24345-.05793,1.73862,1.73862,0,0,1,1.06256-.42972.76518.76518,0,0,1,.88.85943c-.00734.75677-.62258,1.46294-2.09431,2.86281l-.62111.60424a.28116.28116,0,0,0-.08506.20165v.48545a.28166.28166,0,0,0,.28159.28159h3.7369a.28166.28166,0,0,0,.28158-.28159v-.657A.28166.28166,0,0,0,60.83414,58.85551Z" style="fill:#515151"/><path d="M28.68259,65.17143h-.66a.18809.18809,0,0,0-.18772.18772v1.92858H25.76332V65.35915a.18809.18809,0,0,0-.18773-.18772H24.923a.18809.18809,0,0,0-.18772.18772v5.05831a.18808.18808,0,0,0,.18772.18772h.65264a.18808.18808,0,0,0,.18773-.18772V68.23369h2.07157v2.18377a.18808.18808,0,0,0,.18772.18772h.66a.18808.18808,0,0,0,.18772-.18772V65.35915A.18809.18809,0,0,0,28.68259,65.17143Z" style="fill:#515151"/><path d="M31.61212,66.51484a1.94275,1.94275,0,0,0-1.89118,2.14637A1.87139,1.87139,0,0,0,31.695,70.68a3.10634,3.10634,0,0,0,1.28475-.242.18747.18747,0,0,0,.10559-.21412l-.11219-.473a.18563.18563,0,0,0-.09827-.12466.19349.19349,0,0,0-.15766-.00513,2.177,2.177,0,0,1-.93275.17305.96952.96952,0,0,1-1.04422-.88509h2.35022a.20851.20851,0,0,0,.18846-.18552,2.30727,2.30727,0,0,0,.022-.31019A1.71564,1.71564,0,0,0,31.61212,66.51484Zm-.0528.84842a.664.664,0,0,1,.49571.18406.89414.89414,0,0,1,.22146.51331h-1.5018A.84357.84357,0,0,1,31.55932,67.36326Z" style="fill:#515151"/><path d="M37.04881,68.18823a1.46405,1.46405,0,0,0-1.56853-1.67339,2.435,2.435,0,0,0-1.29574.35271.18835.18835,0,0,0-.07553.21926l.15032.43485a.1881.1881,0,0,0,.27939.09606,1.61366,1.61366,0,0,1,.844-.23979c.39745,0,.60057.17306.63284.54264a2.58794,2.58794,0,0,0-1.79805.58224,1.29673,1.29673,0,0,0-.38132.954,1.2236,1.2236,0,0,0,1.29867,1.23047,1.59864,1.59864,0,0,0,.98923-.33218l.01026.0836a.18789.18789,0,0,0,.18626.16645h.60057a.18747.18747,0,0,0,.1848-.22145,4.75876,4.75876,0,0,1-.0572-.8367Zm-1.74159,1.636a.4019.4019,0,0,1-.43485-.44291.47226.47226,0,0,1,.1386-.35565,1.55586,1.55586,0,0,1,1.02442-.275v.44364a.52245.52245,0,0,1-.02713.14886A.71374.71374,0,0,1,35.30722,69.82422Z" style="fill:#515151"/><path d="M41.62827,65.08857a.18809.18809,0,0,0-.18773-.18773h-.6607a.18809.18809,0,0,0-.18772.18773v1.70272a1.56563,1.56563,0,0,0-.9225-.27645,1.70586,1.70586,0,0,0-1.21654.50744,2.26266,2.26266,0,0,0-.59984,1.63159,1.84079,1.84079,0,0,0,1.74085,2.03344,1.61886,1.61886,0,0,0,1.08895-.40038l.0066.13933a.18785.18785,0,0,0,.18773.17892h.59324a.18742.18742,0,0,0,.187-.20459c-.01906-.206-.02933-.53311-.02933-.92175Zm-1.84645,4.69092c-.65264,0-.88509-.59691-.88509-1.15568,0-.561.23612-1.21581.90049-1.21581a.78749.78749,0,0,1,.77216.62623,1.01128,1.01128,0,0,1,.02274.22879v.63064a.98718.98718,0,0,1-.0242.24126A.80982.80982,0,0,1,39.78182,69.77949Z" style="fill:#515151"/><path d="M44.35468,66.51484a1.94275,1.94275,0,0,0-1.89118,2.14637,1.87139,1.87139,0,0,0,1.974,2.01877,3.10625,3.10625,0,0,0,1.28474-.242.18746.18746,0,0,0,.1056-.21412l-.1122-.473a.18558.18558,0,0,0-.09826-.12466.19349.19349,0,0,0-.15766-.00513,2.17568,2.17568,0,0,1-.932.17305.97012.97012,0,0,1-1.04495-.88509H45.833a.20851.20851,0,0,0,.18846-.18552,2.30727,2.30727,0,0,0,.022-.31019A1.71564,1.71564,0,0,0,44.35468,66.51484Zm-.0528.84842a.664.664,0,0,1,.49571.18406.89414.89414,0,0,1,.22146.51331h-1.5018A.84357.84357,0,0,1,44.30188,67.36326Z" style="fill:#515151"/><path d="M48.89014,66.542a1.15734,1.15734,0,0,0-1.09922.35931l-.00366-.12246a.18837.18837,0,0,0-.18773-.18185h-.57784a.187.187,0,0,0-.187.20019c.02053.305.02933.65043.02933,1.12121v2.49909a.18808.18808,0,0,0,.18773.18772h.65264a.18808.18808,0,0,0,.18772-.18772V68.48081a1.69926,1.69926,0,0,1,.02713-.27352.74058.74058,0,0,1,.701-.69443.75562.75562,0,0,1,.18332.01833.194.194,0,0,0,.15913-.03667.18631.18631,0,0,0,.0704-.14666v-.6233A.1883.1883,0,0,0,48.89014,66.542Z" style="fill:#515151"/><path d="M54.04451,67.74311a1.311,1.311,0,0,0,.61964-1.12341A1.39506,1.39506,0,0,0,53.081,65.269a2.51343,2.51343,0,0,0-1.3874.41211.18755.18755,0,0,0-.06526.21413l.17232.48031a.18675.18675,0,0,0,.121.11586.17958.17958,0,0,0,.165-.0264,1.61054,1.61054,0,0,1,.86676-.28819c.43045,0,.6673.19433.6673.54778,0,.46784-.53824.638-.90049.638h-.36738a.18809.18809,0,0,0-.18773.18773V68.046a.18809.18809,0,0,0,.18773.18772h.36738c.51478,0,1.06695.20753,1.07355.79123a.71839.71839,0,0,1-.19652.51038.97038.97038,0,0,1-.71937.24419,2.00333,2.00333,0,0,1-.97969-.27866.19213.19213,0,0,0-.16206-.01906.18452.18452,0,0,0-.11586.11513l-.17966.51037a.187.187,0,0,0,.07333.21926,2.65338,2.65338,0,0,0,1.37127.36078,1.74048,1.74048,0,0,0,1.96671-1.65065A1.40836,1.40836,0,0,0,54.04451,67.74311Z" style="fill:#515151"/><path d="M27.81656,75.41123h-.528a.09358.09358,0,0,0-.09386.09387v1.59933H25.42527V75.5051a.09358.09358,0,0,0-.09387-.09387h-.52284a.09358.09358,0,0,0-.09386.09387v4.04708a.09357.09357,0,0,0,.09386.09386h.52284a.09357.09357,0,0,0,.09387-.09386V77.749h1.76945v1.80318a.09357.09357,0,0,0,.09386.09386h.528a.09357.09357,0,0,0,.09386-.09386V75.5051A.09358.09358,0,0,0,27.81656,75.41123Z" style="fill:#515151"/><path d="M30.16092,76.48625a1.50043,1.50043,0,0,0-1.45707,1.66093,1.44406,1.44406,0,0,0,1.52307,1.559,2.43948,2.43948,0,0,0,1.00535-.18845.09487.09487,0,0,0,.0528-.1078l-.0902-.37838a.09641.09641,0,0,0-.04913-.0616.09913.09913,0,0,0-.0792-.00293,1.80331,1.80331,0,0,1-.76776.143.83073.83073,0,0,1-.89829-.82129h1.94324a.0937.0937,0,0,0,.09313-.0836l.00293-.02347a1.90267,1.90267,0,0,0,.0154-.23245A1.3101,1.3101,0,0,0,30.16092,76.48625Zm-.7421,1.23708a.7536.7536,0,0,1,.69957-.671.58912.58912,0,0,1,.437.16353.8166.8166,0,0,1,.19873.50744Z" style="fill:#515151"/><path d="M34.45219,77.7688A1.12034,1.12034,0,0,0,33.254,76.48625a1.89178,1.89178,0,0,0-1.00609.27352.094.094,0,0,0-.0374.10927l.12026.34831a.09454.09454,0,0,0,.05794.05793.08626.08626,0,0,0,.08212-.01026,1.35277,1.35277,0,0,1,.70544-.20093.49677.49677,0,0,1,.56537.54558,2.06858,2.06858,0,0,0-1.4578.451.98156.98156,0,0,0-.28818.723.92442.92442,0,0,0,.98189.92836,1.20518,1.20518,0,0,0,.836-.32265l.0198.17379a.09365.09365,0,0,0,.09313.08286h.48031a.09338.09338,0,0,0,.07186-.03373.092.092,0,0,0,.02053-.077,4.00944,4.00944,0,0,1-.04693-.67977Zm-.6981.393v.41139a.46713.46713,0,0,1-.0242.13786.63347.63347,0,0,1-.61377.42311.37443.37443,0,0,1-.40478-.41065.432.432,0,0,1,.12759-.32485A1.33383,1.33383,0,0,1,33.75409,78.16184Z" style="fill:#515151"/><path d="M38.11723,75.28951a.09358.09358,0,0,0-.09387-.09387h-.528a.09357.09357,0,0,0-.09386.09387v1.482a1.15086,1.15086,0,0,0-.7949-.28526,1.31046,1.31046,0,0,0-.93349.38939,1.75563,1.75563,0,0,0-.46345,1.26567A1.41942,1.41942,0,0,0,36.5465,79.712a1.21557,1.21557,0,0,0,.921-.39525l.01174.23979a.09417.09417,0,0,0,.09386.08946h.47444a.09455.09455,0,0,0,.06967-.03079.09148.09148,0,0,0,.02346-.07187c-.02053-.22365-.02346-.561-.02346-.7421Zm-1.42041,3.80876c-.56464,0-.76483-.52871-.76483-.98116,0-.62477.30506-1.02882.77657-1.02882a.68338.68338,0,0,1,.6717.54264.88393.88393,0,0,1,.02127.198v.50451a.85558.85558,0,0,1-.02127.20605A.70384.70384,0,0,1,36.69682,79.09827Z" style="fill:#515151"/><path d="M40.35453,76.48625a1.50042,1.50042,0,0,0-1.45707,1.66093,1.44405,1.44405,0,0,0,1.52306,1.559,2.4395,2.4395,0,0,0,1.00536-.18845.09488.09488,0,0,0,.0528-.1078l-.0902-.37838a.09641.09641,0,0,0-.04913-.0616.099.099,0,0,0-.0792-.00293,1.80331,1.80331,0,0,1-.76776.143.83074.83074,0,0,1-.8983-.82129h1.94325a.09371.09371,0,0,0,.09313-.0836l.00293-.02347a1.90267,1.90267,0,0,0,.0154-.23245A1.3101,1.3101,0,0,0,40.35453,76.48625Zm-.7421,1.23708a.75358.75358,0,0,1,.69956-.671.58912.58912,0,0,1,.437.16353.81666.81666,0,0,1,.19873.50744Z" style="fill:#515151"/><path d="M43.97043,76.50752a.64151.64151,0,0,0-.17379-.02127.91181.91181,0,0,0-.745.40552l-.00806-.24859a.094.094,0,0,0-.09386-.09093h-.462a.09549.09549,0,0,0-.0682.02933.09366.09366,0,0,0-.02567.0704c.01687.25152.0242.53751.0242.90049v1.99971a.09357.09357,0,0,0,.09387.09386H43.034a.09357.09357,0,0,0,.09386-.09386V78.00272a1.35838,1.35838,0,0,1,.02273-.22879.6448.6448,0,0,1,.616-.60131.71505.71505,0,0,1,.1606.0154.09367.09367,0,0,0,.11366-.09166v-.49791A.09486.09486,0,0,0,43.97043,76.50752Z" style="fill:#515151"/><path d="M48.86008,77.98145h-.45245V75.64956a.09358.09358,0,0,0-.09386-.09387h-.57051a.09267.09267,0,0,0-.077.04034l-1.74085,2.49175a.09276.09276,0,0,0-.01687.05353v.34832a.09358.09358,0,0,0,.09387.09386h1.71885v.96869a.09357.09357,0,0,0,.09386.09386h.49865a.09357.09357,0,0,0,.09386-.09386v-.96869h.45245a.09358.09358,0,0,0,.09386-.09386v-.41432A.09358.09358,0,0,0,48.86008,77.98145Zm-2.14931,0,.8609-1.19674c.055-.0924.10486-.17673.15252-.26179-.0022.08506-.00293.16792-.00293.24932v1.20921Z" style="fill:#515151"/><path d="M25.3754,84.28637a.47237.47237,0,1,0,.44805.47151A.44745.44745,0,0,0,25.3754,84.28637Z" style="fill:#515151"/><path d="M27.21965,84.28637a.47237.47237,0,1,0,.448.47151A.44745.44745,0,0,0,27.21965,84.28637Z" style="fill:#515151"/><path d="M29.0639,84.28637a.47237.47237,0,1,0,.448.47151A.44745.44745,0,0,0,29.0639,84.28637Z" style="fill:#515151"/></svg>