<svg xmlns="http://www.w3.org/2000/svg" viewBox="0 0 110 110"><title>02_</title><path d="M93.51733,15.30242H16.48267a5.63791,5.63791,0,0,0-5.63175,5.63175V89.06583a5.63791,5.63791,0,0,0,5.63175,5.63175H93.51733a5.63791,5.63791,0,0,0,5.63175-5.63175V20.93417A5.63791,5.63791,0,0,0,93.51733,15.30242Zm-7.58012,8.06337h5.59068a1.12635,1.12635,0,1,1,0,2.2527H85.93721a1.12635,1.12635,0,1,1,0-2.2527Zm-12.23512,0h5.59068a1.12635,1.12635,0,1,1,0,2.2527H73.70209a1.12635,1.12635,0,0,1,0-2.2527Zm-55.23,0H29.65347a1.12635,1.12635,0,1,1,0,2.2527H18.47211a1.12635,1.12635,0,1,1,0-2.2527Zm78.42427,65.7a3.38274,3.38274,0,0,1-3.379,3.379H16.48267a3.38274,3.38274,0,0,1-3.379-3.379V32.888H96.89638Z" style="fill:#515151"/><path d="M85.036,48.66539H24.964A1.12641,1.12641,0,0,1,23.83767,47.539V38.99975A1.12641,1.12641,0,0,1,24.964,37.8734H85.036a1.12641,1.12641,0,0,1,1.12635,1.12635V47.539A1.12641,1.12641,0,0,1,85.036,48.66539Zm-58.94561-2.2527H83.90963V40.1261H26.09037Z" style="fill:#515151"/><path d="M85.036,65.24091H37.54672a1.12641,1.12641,0,0,1-1.12635-1.12635V55.57527a1.12641,1.12641,0,0,1,1.12635-1.12635H85.036a1.12641,1.12641,0,0,1,1.12635,1.12635v8.53929A1.12641,1.12641,0,0,1,85.036,65.24091Zm-46.36291-2.2527H83.90963V56.70162H38.67307Z" style="fill:#515151"/><path d="M32.18629,65.24091H24.964a1.12641,1.12641,0,0,1-1.12635-1.12635V55.57527A1.12641,1.12641,0,0,1,24.964,54.44892h7.22227a1.12641,1.12641,0,0,1,1.12635,1.12635v8.53929A1.12641,1.12641,0,0,1,32.18629,65.24091Zm-6.09592-2.2527h4.96957V56.70162H26.09037Z" style="fill:#515151"/><path d="M85.65855,79.18791l-3.16639-3.61884a1.12639,1.12639,0,0,0-1.69539,1.48347l1.53187,1.75075H77.29013a1.12635,1.12635,0,0,0,0,2.2527h5.03869l-1.532,1.75112a1.12639,1.12639,0,0,0,1.69539,1.48347l3.16639-3.6192A1.126,1.126,0,0,0,85.65855,79.18791Z" style="fill:#515151"/><path d="M43.46812,75.59841h-.902a.381.381,0,0,0-.17746.04436l-1.70639.91369a.37569.37569,0,0,0-.18626.42348l.20459.80517a.37479.37479,0,0,0,.54191.23795l.8279-.44694v6.21032a.37523.37523,0,0,0,.37545.37545h1.02222a.37524.37524,0,0,0,.37545-.37545V75.97386A.37523.37523,0,0,0,43.46812,75.59841Z" style="fill:#515151"/><path d="M57.2967,82.53359H54.71915C56.28694,81.02043,57.48,79.72835,57.48,78.11326a2.56426,2.56426,0,0,0-2.76747-2.64685,3.80083,3.80083,0,0,0-2.45363.8818.37442.37442,0,0,0-.09973.44144l.33732.7454a.37509.37509,0,0,0,.58224.13346,2.31535,2.31535,0,0,1,1.41747-.57381,1.0213,1.0213,0,0,1,1.17548,1.14689c-.011,1.00975-.83156,1.95278-2.79534,3.82086L52.047,82.868a.37634.37634,0,0,0-.11366.26949v.649a.37523.37523,0,0,0,.37545.37545H57.2967a.37524.37524,0,0,0,.37545-.37545V82.909A.37524.37524,0,0,0,57.2967,82.53359Z" style="fill:#515151"/><path d="M68.46339,79.49516a2.15738,2.15738,0,0,0,.9225-1.79035,2.30493,2.30493,0,0,0-2.61129-2.2384,4.10877,4.10877,0,0,0-2.26589.6739.37493.37493,0,0,0-.13127.42972l.27719.76923a.37793.37793,0,0,0,.242.23136.36982.36982,0,0,0,.33-.05317,2.48515,2.48515,0,0,1,1.3434-.44694c.65117,0,.99509.27755.99509.80259,0,.69444-.81763.94669-1.3676.94669h-.58884a.37523.37523,0,0,0-.37545.37545v.79307a.37523.37523,0,0,0,.37545.37545h.58884c.272,0,1.63159.05756,1.644,1.19418a1.07554,1.07554,0,0,1-.29332.76263,1.48351,1.48351,0,0,1-1.09848.36922,3.182,3.182,0,0,1-1.5282-.43338.37045.37045,0,0,0-.32412-.03887.37567.37567,0,0,0-.23245.22989l-.28819.81726a.37571.37571,0,0,0,.14813.43888,4.33293,4.33293,0,0,0,2.2373.59068c2.2153,0,3.22432-1.40977,3.22432-2.71945A2.31893,2.31893,0,0,0,68.46339,79.49516Z" style="fill:#515151"/><path d="M32.45028,78.91806H27.41141l1.5315-1.75076a1.12639,1.12639,0,0,0-1.69539-1.48346l-3.16566,3.61883a1.126,1.126,0,0,0,0,1.48347l3.16566,3.6192a1.12639,1.12639,0,0,0,1.69539-1.48346l-1.5315-1.75113h5.03887a1.12635,1.12635,0,1,0,0-2.25269Z" style="fill:#515151"/></svg>
