<svg xmlns="http://www.w3.org/2000/svg" viewBox="0 0 110 110"><path d="M31.12741,75.56463a.37627.37627,0,0,0-.35565-.25409H29.7466a.376.376,0,0,0-.35565.25482l-2.2351,6.57954a.37586.37586,0,0,0,.35565.49608H28.39a.37486.37486,0,0,0,.35639-.25776l.59838-1.81162h1.79291l.616,1.81455a.376.376,0,0,0,.35565.25483h.90782a.37614.37614,0,0,0,.35565-.49682ZM29.77227,79.1567l.46565-1.376.46857,1.376Z" style="fill:#a56140"/><path d="M39.652,78.69a1.81614,1.81614,0,0,0,.68124-1.4127,1.73626,1.73626,0,0,0-.68637-1.45377,3.07673,3.07673,0,0,0-2.04224-.56171,8.65241,8.65241,0,0,0-1.62866.14446.37584.37584,0,0,0-.29845.36739v6.47247a.3751.3751,0,0,0,.32412.37179,10.22828,10.22828,0,0,0,1.36907.08176,3.60207,3.60207,0,0,0,2.53648-.7212,2.1399,2.1399,0,0,0,.67024-1.58723A1.96648,1.96648,0,0,0,39.652,78.69Zm-.92909-1.32507c0,.44878-.40185.7278-1.04935.7278h-.396V76.67851c.10926-.0077.23539-.01173.37618-.01173C38.72293,76.66678,38.72293,77.15589,38.72293,77.36488Zm-1.44533,2.1229h.327c.49424,0,1.32361.11623,1.32361.89353,0,.59947-.44218.90343-1.31334.90343-.12906,0-.24126-.00184-.33732-.00587Z" style="fill:#a56140"/><path d="M48.19791,81.28217a.37536.37536,0,0,0-.52725-.24272,3.057,3.057,0,0,1-1.22167.23575,2.015,2.015,0,0,1-2.153-2.27029,2.084,2.084,0,0,1,2.19183-2.33813,2.68652,2.68652,0,0,1,1.16448.23575.37587.37587,0,0,0,.52358-.23172l.20459-.693a.37524.37524,0,0,0-.18626-.43888,3.78809,3.78809,0,0,0-1.73572-.33585,3.65608,3.65608,0,0,0-3.8117,3.83113A3.4352,3.4352,0,0,0,46.273,82.7385a4.5741,4.5741,0,0,0,1.90585-.352.37525.37525,0,0,0,.19506-.43081Z" style="fill:#a56140"/><path d="M66.98066,76.2268h-.902a.38115.38115,0,0,0-.17746.04436l-1.70639.91369a.3757.3757,0,0,0-.18626.42349l.2046.80516a.37479.37479,0,0,0,.5419.238l.8279-.447v6.21032a.37524.37524,0,0,0,.37545.37545h1.02222a.37524.37524,0,0,0,.37545-.37545V76.60225A.37523.37523,0,0,0,66.98066,76.2268Z" style="fill:#a56140"/><path d="M72.73487,76.0948c-1.878,0-3.0916,1.742-3.0916,4.4416.02567,2.70552,1.15935,4.38624,2.9596,4.38624,1.96452,0,3.0916-1.63966,3.0916-4.49806C75.69447,77.71356,74.58792,76.0948,72.73487,76.0948ZM72.663,83.35411c-.73623,0-1.21141-1.10288-1.21141-2.80964,0-1.75039.48031-2.8815,1.22315-2.8815,1.05375,0,1.21141,1.76028,1.21141,2.80964C73.88615,81.339,73.76662,83.35411,72.663,83.35411Z" style="fill:#a56140"/><path d="M82.81481,78.08975a2.73152,2.73152,0,0,0-1.75992.58334l-.0044-.0935a.37521.37521,0,0,0-.37471-.35748h-.94963a.37664.37664,0,0,0-.27132.11549.38081.38081,0,0,0-.10413.27572c.02347.54851.04767,1.14432.04767,1.88312v6.29832a.37522.37522,0,0,0,.37545.37544H80.8195a.37522.37522,0,0,0,.37545-.37544V84.51712a2.63437,2.63437,0,0,0,1.43947.40552c1.45414,0,3.01973-1.09555,3.01973-3.50078C85.65415,79.49108,84.46034,78.08975,82.81481,78.08975Zm-.32411,1.59236c.93642,0,1.35513.89793,1.35513,1.78815,0,1.17218-.52064,1.87212-1.3918,1.87212a1.24926,1.24926,0,0,1-1.21654-.93056A1.97185,1.97185,0,0,1,81.195,82.047v-.99765a1.40573,1.40573,0,0,1,.06087-.33915A1.31311,1.31311,0,0,1,82.4907,79.68211Z" style="fill:#a56140"/><path d="M89.699,79.77817a.37523.37523,0,0,0,.37545-.37545v-.80516a.37523.37523,0,0,0-.37545-.37545H88.56022V76.92673a.37585.37585,0,0,0-.14666-.29772.37187.37187,0,0,0-.32558-.06489l-1.034.27645a.37545.37545,0,0,0-.27864.36262v1.01892h-.52578a.37523.37523,0,0,0-.37545.37545v.80516a.37523.37523,0,0,0,.37545.37545h.52578v2.79754a2.45739,2.45739,0,0,0,.50158,1.76212,1.82353,1.82353,0,0,0,1.42407.57271,2.9645,2.9645,0,0,0,1.08088-.17269.37641.37641,0,0,0,.23172-.36995l-.04839-.79307a.37257.37257,0,0,0-.1562-.28232.377.377,0,0,0-.31678-.05719,1.98784,1.98784,0,0,1-.51478.059c-.18626,0-.41725,0-.41725-.75457V79.77817Z" style="fill:#a56140"/><path d="M61.12892,74.52554H56.963a.7509.7509,0,0,0,0,1.5018h3.415v8.738H56.963a.7509.7509,0,0,0,0,1.5018h4.16588a.7507.7507,0,0,0,.7509-.7509V75.27644A.7507.7507,0,0,0,61.12892,74.52554Z" style="fill:#a56140"/><path d="M93.51733,15.30242H16.48267a5.63791,5.63791,0,0,0-5.63175,5.63175V89.06583a5.63791,5.63791,0,0,0,5.63175,5.63175H93.51733a5.63791,5.63791,0,0,0,5.63175-5.63175V20.93417A5.63791,5.63791,0,0,0,93.51733,15.30242Zm-7.58012,8.06337h5.59068a1.12635,1.12635,0,1,1,0,2.2527H85.93721a1.12635,1.12635,0,1,1,0-2.2527Zm-12.23512,0h5.59068a1.12635,1.12635,0,1,1,0,2.2527H73.70209a1.12635,1.12635,0,0,1,0-2.2527Zm-55.23,0H29.65347a1.12635,1.12635,0,1,1,0,2.2527H18.47211a1.12635,1.12635,0,1,1,0-2.2527Zm78.42427,65.7a3.38274,3.38274,0,0,1-3.379,3.379H16.48267a3.38274,3.38274,0,0,1-3.379-3.379V32.888H96.89638Z" style="fill:#a56140"/><path d="M26.141,38.16265V69.5831H83.859V38.16265ZM37.24533,67.3304l8.59355-13.06851L54.43243,67.3304Zm19.88271,0-5.202-7.91121,8.57228-12.6311L74.43979,67.3304Zm24.4783,0H77.16249L61.43031,44.14968a1.16862,1.16862,0,0,0-1.864,0l-8.98,13.23222L46.7797,51.593a1.169,1.169,0,0,0-1.88165,0L34.54977,67.3304H28.39366V40.41534H81.60634Z" style="fill:#a56140"/><circle cx="36.94398" cy="47.10124" r="3.50954" transform="translate(-9.83341 9.74806) rotate(-13.2826)" style="fill:#a56140"/><path d="M50.5716,86.26715H26.73127a.7509.7509,0,1,1,0-1.5018H50.5716a.7509.7509,0,1,1,0,1.5018Z" style="fill:#a56140"/></svg>