<svg xmlns="http://www.w3.org/2000/svg" viewBox="0 0 110 110"><title>03_</title><path d="M93.51733,15.30242H16.48267a5.63791,5.63791,0,0,0-5.63175,5.63175V89.06583a5.63791,5.63791,0,0,0,5.63175,5.63175H93.51733a5.63791,5.63791,0,0,0,5.63175-5.63175V20.93417A5.63791,5.63791,0,0,0,93.51733,15.30242Zm-7.58012,8.06337h5.59068a1.12635,1.12635,0,1,1,0,2.2527H85.93721a1.12635,1.12635,0,1,1,0-2.2527Zm-12.23512,0h5.59068a1.12635,1.12635,0,1,1,0,2.2527H73.70209a1.12635,1.12635,0,0,1,0-2.2527Zm-55.23,0H29.65347a1.12635,1.12635,0,1,1,0,2.2527H18.47211a1.12635,1.12635,0,1,1,0-2.2527Zm78.42427,65.7a3.38274,3.38274,0,0,1-3.379,3.379H16.48267a3.38274,3.38274,0,0,1-3.379-3.379V32.888H96.89638Z" style="fill:#515151"/><path d="M46.89483,44.02029H24.964a.7509.7509,0,1,1,0-1.50179H46.89483a.7509.7509,0,1,1,0,1.50179Z" style="fill:#515151"/><path d="M85.036,59.31841H24.964a1.12641,1.12641,0,0,1-1.12635-1.12635V49.65277A1.12641,1.12641,0,0,1,24.964,48.52642H85.036a1.12641,1.12641,0,0,1,1.12635,1.12635v8.53929A1.12641,1.12641,0,0,1,85.036,59.31841Zm-58.94561-2.2527H83.90963V50.77912H26.09037Z" style="fill:#515151"/><path d="M46.89483,68.25074H24.964a.7509.7509,0,0,1,0-1.5018H46.89483a.7509.7509,0,1,1,0,1.5018Z" style="fill:#515151"/><path d="M85.036,83.54885H24.964a1.12641,1.12641,0,0,1-1.12635-1.12635V73.88322A1.1264,1.1264,0,0,1,24.964,72.75687H85.036a1.1264,1.1264,0,0,1,1.12635,1.12635V82.4225A1.12641,1.12641,0,0,1,85.036,83.54885Zm-58.94561-2.2527H83.90963V75.00957H26.09037Z" style="fill:#515151"/></svg>