<svg xmlns="http://www.w3.org/2000/svg" viewBox="0 0 110 110"><path d="M93.51733,15.30242H16.48267a5.63791,5.63791,0,0,0-5.63175,5.63175V89.06583a5.63791,5.63791,0,0,0,5.63175,5.63175H93.51733a5.63791,5.63791,0,0,0,5.63175-5.63175V20.93417A5.63791,5.63791,0,0,0,93.51733,15.30242Zm-7.58012,8.06337h5.59068a1.12635,1.12635,0,1,1,0,2.2527H85.93721a1.12635,1.12635,0,1,1,0-2.2527Zm-12.23512,0h5.59068a1.12635,1.12635,0,1,1,0,2.2527H73.70209a1.12635,1.12635,0,0,1,0-2.2527Zm-55.23,0H29.65347a1.12635,1.12635,0,1,1,0,2.2527H18.47211a1.12635,1.12635,0,1,1,0-2.2527Zm78.42427,65.7a3.38274,3.38274,0,0,1-3.379,3.379H16.48267a3.38274,3.38274,0,0,1-3.379-3.379V32.888H96.89638Z" style="fill:#a56140"/><path d="M56.90658,86.29469h-14.064a3.89969,3.89969,0,1,1,0-7.79938h14.064a3.89969,3.89969,0,1,1,0,7.79938Zm-14.064-6.29758a2.39789,2.39789,0,1,0,0,4.79578h14.064a2.39789,2.39789,0,1,0,0-4.79578Z" style="fill:#a56140"/><path d="M81.93192,78.49531h-14.064a3.89969,3.89969,0,1,0,0,7.79938h14.064a3.89969,3.89969,0,0,0,0-7.79938Z" style="fill:#a56140"/><path d="M60.1705,59.25314H24.964a1.12635,1.12635,0,0,1,0-2.2527H60.1705a1.12635,1.12635,0,1,1,0,2.2527Z" style="fill:#a56140"/><path d="M48.38123,65.65705H24.964a1.12635,1.12635,0,1,1,0-2.2527H48.38123a1.12635,1.12635,0,1,1,0,2.2527Z" style="fill:#a56140"/><rect x="23.83767" y="47.96875" width="50.56326" height="4.5054" rx="1.12635" style="fill:#a56140"/></svg>