<svg xmlns="http://www.w3.org/2000/svg" viewBox="0 0 110 110"><path d="M93.51733,15.30242H16.48267a5.63791,5.63791,0,0,0-5.63175,5.63175V89.06583a5.63791,5.63791,0,0,0,5.63175,5.63175H93.51733a5.63791,5.63791,0,0,0,5.63175-5.63175V20.93417A5.63791,5.63791,0,0,0,93.51733,15.30242Zm-7.58012,8.06337h5.59068a1.12635,1.12635,0,1,1,0,2.2527H85.93721a1.12635,1.12635,0,1,1,0-2.2527Zm-12.23512,0h5.59068a1.12635,1.12635,0,1,1,0,2.2527H73.70209a1.12635,1.12635,0,0,1,0-2.2527Zm-55.23,0H29.65347a1.12635,1.12635,0,1,1,0,2.2527H18.47211a1.12635,1.12635,0,1,1,0-2.2527Zm78.42427,65.7a3.38274,3.38274,0,0,1-3.379,3.379H16.48267a3.38274,3.38274,0,0,1-3.379-3.379V32.888H96.89638Z" style="fill:#a56140"/><path d="M85.036,61.50584H24.964a1.12635,1.12635,0,1,1,0-2.2527H85.036a1.12635,1.12635,0,1,1,0,2.2527Z" style="fill:#a56140"/><path d="M85.036,69.8497H24.964a1.12635,1.12635,0,0,1,0-2.2527H85.036a1.12635,1.12635,0,0,1,0,2.2527Z" style="fill:#a56140"/><path d="M54.43683,78.52574H24.964a1.12635,1.12635,0,0,1,0-2.2527H54.43683a1.12635,1.12635,0,0,1,0,2.2527Z" style="fill:#a56140"/><rect x="23.83767" y="47.96875" width="50.56326" height="4.5054" rx="1.12635" style="fill:#a56140"/><path d="M61.86534,70.996a9.38625,9.38625,0,1,0,9.38624,9.38624A9.38624,9.38624,0,0,0,61.86534,70.996Zm1.25083,12.43182-2.33556,2.33556a2.94673,2.94673,0,0,1-4.16735,0l-.12833-.128A2.9454,2.9454,0,0,1,56.4842,81.467l.6629-.66291a.75082.75082,0,0,1,1.06182,1.06182l-.6629.66291a1.44415,1.44415,0,0,0,0,2.04407l.12833.128a1.47929,1.47929,0,0,0,2.04444.00074L62.05435,82.366a1.44771,1.44771,0,0,0,0-2.04407l-.12833-.128a.75082.75082,0,0,1,1.06035-1.06329l.12906.1287A2.95182,2.95182,0,0,1,63.11617,83.42785Zm3.33358-3.27858-.6629.6629A.75082.75082,0,0,1,64.725,79.75035l.6629-.6629a1.4477,1.4477,0,0,0,0-2.04408l-.12833-.128a1.48072,1.48072,0,0,0-2.04444-.00073L60.8796,79.25024a1.44416,1.44416,0,0,0,0,2.04408l.12906.12942a.75082.75082,0,1,1-1.06328,1.06036l-.12833-.1287a2.94543,2.94543,0,0,1,.00073-4.167l2.33556-2.33556a3.01768,3.01768,0,0,1,4.16735,0l.12833.128A2.95184,2.95184,0,0,1,66.44975,80.14927Z" style="fill:#a56140"/><path d="M53.2603,81.3452H24.6856a.5.5,0,1,1,0-1H53.2603a.5.5,0,0,1,0,1Z" style="fill:#a56140"/></svg>