<svg xmlns="http://www.w3.org/2000/svg" viewBox="0 0 110 110"><title>03_</title><path d="M93.51733,15.30242H16.48267a5.63791,5.63791,0,0,0-5.63175,5.63175V89.06583a5.63791,5.63791,0,0,0,5.63175,5.63175H93.51733a5.63791,5.63791,0,0,0,5.63175-5.63175V20.93417A5.63791,5.63791,0,0,0,93.51733,15.30242Zm-7.58012,8.06337h5.59068a1.12635,1.12635,0,1,1,0,2.2527H85.93721a1.12635,1.12635,0,1,1,0-2.2527Zm-12.23512,0h5.59068a1.12635,1.12635,0,1,1,0,2.2527H73.70209a1.12635,1.12635,0,0,1,0-2.2527Zm-55.23,0H29.65347a1.12635,1.12635,0,1,1,0,2.2527H18.47211a1.12635,1.12635,0,1,1,0-2.2527Zm78.42427,65.7a3.38274,3.38274,0,0,1-3.379,3.379H16.48267a3.38274,3.38274,0,0,1-3.379-3.379V32.888H96.89638Z" style="fill:#515151"/><path d="M46.89483,44.02029H24.964a.7509.7509,0,1,1,0-1.50179H46.89483a.7509.7509,0,1,1,0,1.50179Z" style="fill:#515151"/><path d="M60.82387,55.04876H30.70723a1.12635,1.12635,0,1,1,0-2.25269H60.82387a1.12635,1.12635,0,1,1,0,2.25269Z" style="fill:#515151"/><path d="M91.54035,52.157l-7.839-13.57742a1.12607,1.12607,0,0,0-1.95057,0l-5.74285,9.94685H24.964a1.12641,1.12641,0,0,0-1.12635,1.12635v8.53929A1.12641,1.12641,0,0,0,24.964,59.31841H85.036a1.12641,1.12641,0,0,0,1.12635-1.12635V53.84652h4.40273a1.12636,1.12636,0,0,0,.97529-1.68953ZM81.81093,41.26125a.28.28,0,0,1,.20165-.08543h1.40207a.28239.28239,0,0,1,.28159.28966l-.20459,7.01218a.28146.28146,0,0,1-.28159.27352h-.99289a.28146.28146,0,0,1-.28158-.27352L81.731,41.46548A.27993.27993,0,0,1,81.81093,41.26125Zm.90269,8.1103a1.11546,1.11546,0,0,1,1.14321,1.18722A1.12776,1.12776,0,0,1,82.71362,51.746a1.18806,1.18806,0,0,1,0-2.37443Zm1.196,7.69416H26.09037V50.77912H74.70745L73.91181,52.157a1.12636,1.12636,0,0,0,.97529,1.68953h9.02253Z" style="fill:#515151"/><path d="M46.89483,68.25074H24.964a.7509.7509,0,0,1,0-1.5018H46.89483a.7509.7509,0,1,1,0,1.5018Z" style="fill:#515151"/><path d="M85.036,83.54885H24.964a1.12641,1.12641,0,0,1-1.12635-1.12635V73.88322A1.1264,1.1264,0,0,1,24.964,72.75687H85.036a1.1264,1.1264,0,0,1,1.12635,1.12635V82.4225A1.12641,1.12641,0,0,1,85.036,83.54885Zm-58.94561-2.2527H83.90963V75.00957H26.09037Z" style="fill:#515151"/><path d="M79.29277,79.27921H30.70723a1.12635,1.12635,0,1,1,0-2.2527H79.29277a1.12635,1.12635,0,0,1,0,2.2527Z" style="fill:#515151"/></svg>