<svg xmlns="http://www.w3.org/2000/svg" viewBox="0 0 110 110"><title>03_</title><path d="M93.51733,15.30242H16.48267a5.63791,5.63791,0,0,0-5.63175,5.63175V89.06583a5.63791,5.63791,0,0,0,5.63175,5.63175H93.51733a5.63791,5.63791,0,0,0,5.63175-5.63175V20.93417A5.63791,5.63791,0,0,0,93.51733,15.30242Zm-7.58012,8.06337h5.59068a1.12635,1.12635,0,1,1,0,2.2527H85.93721a1.12635,1.12635,0,1,1,0-2.2527Zm-12.23512,0h5.59068a1.12635,1.12635,0,1,1,0,2.2527H73.70209a1.12635,1.12635,0,0,1,0-2.2527Zm-55.23,0H29.65347a1.12635,1.12635,0,1,1,0,2.2527H18.47211a1.12635,1.12635,0,1,1,0-2.2527Zm78.42427,65.7a3.38274,3.38274,0,0,1-3.379,3.379H16.48267a3.38274,3.38274,0,0,1-3.379-3.379V32.888H96.89638Z" style="fill:#515151"/><path d="M48.69837,65.5995H36.959a.75143.75143,0,0,1-.62771-.33805l-3.48391-5.2981a.75142.75142,0,0,1,.0066-.83449l5.81361-8.56642a.7786.7786,0,0,1,1.24221,0L49.31948,64.427a.75075.75075,0,0,1-.62111,1.17255ZM37.36375,64.0977H47.2809L39.28866,52.3209l-4.91091,7.2362Z" style="fill:#515151"/><path d="M36.959,65.5995H24.4474a.75147.75147,0,0,1-.62771-1.16375l6.25579-9.5131a.78028.78028,0,0,1,1.25541,0l6.25578,9.5131a.75147.75147,0,0,1-.6277,1.16375Zm-11.119-1.5018h9.72649l-4.86325-7.39534Z" style="fill:#515151"/><circle cx="25.49419" cy="52.34224" r="2.05535" style="fill:#515151"/><path d="M49.81152,70.18849H25.60821a.7509.7509,0,0,1,0-1.5018H49.81152a.7509.7509,0,0,1,0,1.5018Z" style="fill:#515151"/><path d="M52.27028,74.00825H23.14872a.7509.7509,0,1,1,0-1.5018H52.27028a.7509.7509,0,0,1,0,1.5018Z" style="fill:#515151"/><path d="M57.55609,36.22752a9.38625,9.38625,0,1,0,9.38624,9.38624A9.38624,9.38624,0,0,0,57.55609,36.22752Zm1.25083,12.432-2.33556,2.33556a2.95117,2.95117,0,0,1-4.16808,0l-.1298-.13053a2.945,2.945,0,0,1,.00147-4.16588l.6629-.6629a.75082.75082,0,0,1,1.06182,1.06182l-.6629.6629a1.44371,1.44371,0,0,0,0,2.04371l.12979.13053a1.44772,1.44772,0,0,0,2.043-.00147l2.33556-2.33556a1.44816,1.44816,0,0,0,0-2.04444l-.1276-.12686a.75083.75083,0,0,1,1.05889-1.06476l.12906.12833A2.9525,2.9525,0,0,1,58.80692,48.65953Zm3.33358-3.27859-.6629.6629A.75082.75082,0,0,1,60.41578,44.982l.6629-.66291a1.44814,1.44814,0,0,0,0-2.04444l-.12759-.12686a1.48094,1.48094,0,0,0-2.04518-.00147l-2.33556,2.33557a1.4437,1.4437,0,0,0,0,2.0437l.1298.13053A.75083.75083,0,1,1,55.63539,47.715l-.12832-.12906a2.945,2.945,0,0,1,.00146-4.16588l2.33556-2.33557a2.945,2.945,0,0,1,4.16735,0l.12759.12687A2.95249,2.95249,0,0,1,62.1405,45.38094Z" style="fill:#515151"/><path d="M57.27212,59.42933V54.98571a9.43376,9.43376,0,0,1-1.5018-.16023v3.57961Z" style="fill:#515151"/><path d="M51.80353,64.0977H21.80165V45.10082h26.394a9.40767,9.40767,0,0,1,.19653-1.5018H20.29985V65.5995H51.91619Z" style="fill:#515151"/><path d="M66.46279,89.4022a1.12481,1.12481,0,0,1-.97529-.56317L59.638,78.70849l-4.51273,4.63372a1.12628,1.12628,0,0,1-1.93005-.70177L51.31427,57.5799A1.1265,1.1265,0,0,1,53.072,56.565L73.83465,70.72431a1.12615,1.12615,0,0,1-.35711,2.02244l-6.269,1.59053,5.84881,10.13055a1.1259,1.1259,0,0,1-.41212,1.53846L67.026,89.25114A1.12583,1.12583,0,0,1,66.46279,89.4022ZM59.869,75.72982a1.11007,1.11007,0,0,1,.13933.0088,1.123,1.123,0,0,1,.836.55437l6.03066,10.4444,3.6687-2.1185-6.02993-10.4444a1.12663,1.12663,0,0,1,.69811-1.65506l5.28929-1.34194L53.73563,59.74461,55.255,79.98l3.80729-3.91A1.12628,1.12628,0,0,1,59.869,75.72982Z" style="fill:#515151"/></svg>