<svg xmlns="http://www.w3.org/2000/svg" viewBox="0 0 110 110"><title>03_</title><path d="M24.0133,39.82692H13.6492a.7509.7509,0,1,1,0-1.50179H24.0133a.7509.7509,0,1,1,0,1.50179Z" style="fill:#515151"/><path d="M88.91074,36.89886H78.54664a.7509.7509,0,0,1,0-1.5018h10.3641a.7509.7509,0,0,1,0,1.5018Z" style="fill:#515151"/><path d="M96.89638,41.32872H52.66151a1.12635,1.12635,0,1,1,0-2.25269H96.89638a1.12635,1.12635,0,1,1,0,2.25269Z" style="fill:#515151"/><path d="M93.51733,15.30243H50.08212a25.87225,25.87225,0,0,1,5.297,15.70876c0,.63174-.03062,1.25614-.07512,1.87679H96.89638V89.06584a3.38274,3.38274,0,0,1-3.379,3.37905H16.48267a3.38274,3.38274,0,0,1-3.379-3.37905V51.285a26.22515,26.22515,0,0,1-2.2527-2.0339V89.06584a5.63791,5.63791,0,0,0,5.63175,5.63175H93.51733a5.63791,5.63791,0,0,0,5.63175-5.63175V20.93418A5.63791,5.63791,0,0,0,93.51733,15.30243ZM79.29277,25.6185H73.70209a1.12635,1.12635,0,0,1,0-2.2527h5.59068a1.12635,1.12635,0,1,1,0,2.2527Zm12.23512,0H85.93721a1.12635,1.12635,0,1,1,0-2.2527h5.59068a1.12635,1.12635,0,1,1,0,2.2527Z" style="fill:#515151"/><path d="M57.686,42.88411h6.723a0,0,0,0,1,0,0V82.29416a3.36149,3.36149,0,0,1-3.36149,3.36149h0A3.36149,3.36149,0,0,1,57.686,82.29416V42.88411A0,0,0,0,1,57.686,42.88411Z" transform="translate(-27.56526 61.99129) rotate(-44.99997)" style="fill:#515151"/><path d="M40.35563,36.89886H28.97994a.75078.75078,0,0,1-.62734-.33805l-3.37648-5.13457a.75141.75141,0,0,1,.00587-.8345l5.63357-8.301a.77934.77934,0,0,1,1.243,0L40.9771,35.72631a.751.751,0,0,1-.62147,1.17255Zm-10.97091-1.5018h9.5538L31.237,24.04924,26.50652,31.02Z" style="fill:#515151"/><path d="M28.97994,36.89886H16.85518a.75089.75089,0,0,1-.62733-1.16375l6.06219-9.219a.77956.77956,0,0,1,1.25468,0l6.06256,9.21905a.75089.75089,0,0,1-.62734,1.16375Zm-10.73222-1.5018H27.5874l-4.67-7.10128Z" style="fill:#515151"/><circle cx="17.86934" cy="24.02837" r="1.99177" style="fill:#515151"/><line x1="42.81656" y1="10.07856" x2="15.91385" y2="10.07856" style="fill:none;stroke:#515151;stroke-linecap:round;stroke-miterlimit:10;stroke-width:3px"/><path d="M49.15743,47.22519H9.58341a1.12635,1.12635,0,1,1,0-2.2527h39.574a1.12635,1.12635,0,1,1,0,2.2527Z" style="fill:#515151"/><path d="M29.37042,43.28737H13.5634a.7509.7509,0,1,1,0-1.5018h15.807a.7509.7509,0,1,1,0,1.5018Z" style="fill:#515151"/><path d="M60.18187,35.39706h-5.18q-.12945.75868-.303,1.5018h5.483a.7509.7509,0,1,0,0-1.5018Z" style="fill:#515151"/><path d="M52.83406,19.797a9.40989,9.40989,0,0,1-1.53952,2.07176A23.77784,23.77784,0,1,1,37.82148,8.81346a9.41555,9.41555,0,0,1,2.02666-1.59979A26.00748,26.00748,0,1,0,52.83406,19.797Z" style="fill:#515151"/><path d="M41.6059,24.195V35.39706H14.3143V18.2591H35.6895a9.32436,9.32436,0,0,1-.35854-1.5018H12.8125V36.89886H43.1077V24.56A9.32033,9.32033,0,0,1,41.6059,24.195Z" style="fill:#515151"/><path d="M44.59319,5.91619a9.38624,9.38624,0,1,0,9.38624,9.38624A9.38624,9.38624,0,0,0,44.59319,5.91619ZM45.844,18.34783l-2.33556,2.33556a2.94543,2.94543,0,0,1-4.16771,0l-.128-.1276A2.95161,2.95161,0,0,1,39.212,16.387l.66217-.6629a.75108.75108,0,0,1,1.06256,1.06182l-.66254.6629a1.44782,1.44782,0,0,0-.00037,2.04444l.128.12759a1.48047,1.48047,0,0,0,2.04481.00074L44.78219,17.286a1.44547,1.44547,0,0,0,0-2.04371l-.12942-.1298a.75082.75082,0,0,1,1.06328-1.06035l.1287.12906a2.94674,2.94674,0,0,1-.00074,4.16662Zm3.33359-3.27859-.66291.6629a.75082.75082,0,1,1-1.06182-1.06182l.66291-.6629a1.4455,1.4455,0,0,0,0-2.04371l-.12943-.12979a1.4486,1.4486,0,0,0-2.04371.00073l-2.33519,2.33556a1.44815,1.44815,0,0,0,0,2.04445l.128.12759a.75082.75082,0,1,1-1.06035,1.06328l-.1287-.12832a2.95162,2.95162,0,0,1-.00073-4.16882l2.33519-2.33556a2.95207,2.95207,0,0,1,4.16808,0l.12943.1298a2.94674,2.94674,0,0,1-.00073,4.16661Z" style="fill:#515151"/></svg>