<svg xmlns="http://www.w3.org/2000/svg" viewBox="0 0 110 110"><path d="M93.51733,94.69758H16.48267a5.63791,5.63791,0,0,1-5.63175-5.63175V20.93417a5.63791,5.63791,0,0,1,5.63175-5.63175H93.51733a5.63791,5.63791,0,0,1,5.63175,5.63175V89.06583A5.63791,5.63791,0,0,1,93.51733,94.69758ZM16.48267,17.55512a3.38274,3.38274,0,0,0-3.379,3.37905V89.06583a3.38274,3.38274,0,0,0,3.379,3.379H93.51733a3.38274,3.38274,0,0,0,3.379-3.379V20.93417a3.38274,3.38274,0,0,0-3.379-3.37905Z" style="fill:#a56140"/><path d="M38.0307,78.932H27.1944l1.53145-1.75076a1.12639,1.12639,0,0,0-1.69539-1.48346L23.8648,79.3166a1.126,1.126,0,0,0,0,1.48347l3.16566,3.61921a1.12639,1.12639,0,0,0,1.69539-1.48347l-1.53154-1.75112H38.0307a1.12635,1.12635,0,0,0,0-2.2527Z" style="fill:#a56140"/><path d="M85.88368,79.3166l-3.16639-3.61883a1.12639,1.12639,0,0,0-1.6954,1.48346L82.55376,78.932H71.71705a1.12635,1.12635,0,0,0,0,2.2527H82.5539l-1.532,1.75112a1.1264,1.1264,0,0,0,1.6954,1.48347l3.16639-3.61921A1.126,1.126,0,0,0,85.88368,79.3166Z" style="fill:#a56140"/><path d="M44.89805,75.59841H43.9961a.381.381,0,0,0-.17746.04436l-1.70639.91369a.37568.37568,0,0,0-.18626.42348l.20459.80517a.37479.37479,0,0,0,.54191.23795l.82789-.44694v6.21032a.37524.37524,0,0,0,.37545.37545h1.02222a.37523.37523,0,0,0,.37545-.37545V75.97386A.37523.37523,0,0,0,44.89805,75.59841Z" style="fill:#a56140"/><path d="M50.65226,75.46641c-1.878,0-3.09159,1.742-3.09159,4.4416.02566,2.70551,1.15935,4.38624,2.9596,4.38624,1.96451,0,3.09159-1.63966,3.09159-4.49807C53.61186,77.08517,52.50531,75.46641,50.65226,75.46641Zm-.07186,7.25931c-.73623,0-1.21141-1.10289-1.21141-2.80964,0-1.75039.48031-2.88151,1.22314-2.88151,1.05375,0,1.21141,1.76029,1.21141,2.80964C51.80354,80.71061,51.684,82.72572,50.5804,82.72572Z" style="fill:#a56140"/><path d="M57.11557,75.46641c-1.878,0-3.09159,1.742-3.09159,4.4416.02566,2.70551,1.15935,4.38624,2.9596,4.38624,1.96451,0,3.09159-1.63966,3.09159-4.49807C60.07517,77.08517,58.96862,75.46641,57.11557,75.46641Zm-.07186,7.25931c-.73624,0-1.21141-1.10289-1.21141-2.80964,0-1.75039.48031-2.88151,1.22314-2.88151,1.05375,0,1.21141,1.76029,1.21141,2.80964C58.26685,80.71061,58.14732,82.72572,57.04371,82.72572Z" style="fill:#a56140"/><path d="M66.85967,79.06582a2.07752,2.07752,0,0,1,1.03982.227.37513.37513,0,0,0,.5463-.22035l.23979-.81727a.37421.37421,0,0,0-.19212-.44108,3.86052,3.86052,0,0,0-1.63379-.34062,3.33222,3.33222,0,0,0-3.50078,3.46448,3.13227,3.13227,0,0,0,3.272,3.34422,4.2394,4.2394,0,0,0,1.845-.37912.375.375,0,0,0,.19212-.41615l-.18039-.79343a.37491.37491,0,0,0-.517-.26032,2.64763,2.64763,0,0,1-1.14762.25666,1.618,1.618,0,0,1-1.64333-1.79989A1.65684,1.65684,0,0,1,66.85967,79.06582Z" style="fill:#a56140"/><path d="M85.036,56.12635H24.964a1.12635,1.12635,0,0,1,0-2.2527H85.036a1.12635,1.12635,0,0,1,0,2.2527Z" style="fill:#a56140"/><path d="M85.036,67.11045H24.964a1.12635,1.12635,0,1,1,0-2.25269H85.036a1.12635,1.12635,0,1,1,0,2.25269Z" style="fill:#a56140"/><path d="M85.036,34.15814H24.964a1.12635,1.12635,0,0,1,0-2.2527H85.036a1.12635,1.12635,0,0,1,0,2.2527Z" style="fill:#a56140"/><path d="M85.036,45.14224H24.964a1.12635,1.12635,0,1,1,0-2.25269H85.036a1.12635,1.12635,0,1,1,0,2.25269Z" style="fill:#a56140"/></svg>