<svg xmlns="http://www.w3.org/2000/svg" viewBox="0 0 110 110"><title>03_</title><path d="M93.51733,15.30242H16.48267a5.63791,5.63791,0,0,0-5.63175,5.63175V89.06583a5.63791,5.63791,0,0,0,5.63175,5.63175H93.51733a5.63791,5.63791,0,0,0,5.63175-5.63175V20.93417A5.63791,5.63791,0,0,0,93.51733,15.30242Zm-7.58012,8.06337h5.59068a1.12635,1.12635,0,1,1,0,2.2527H85.93721a1.12635,1.12635,0,1,1,0-2.2527Zm-12.23512,0h5.59068a1.12635,1.12635,0,1,1,0,2.2527H73.70209a1.12635,1.12635,0,0,1,0-2.2527Zm-55.23,0H29.65347a1.12635,1.12635,0,1,1,0,2.2527H18.47211a1.12635,1.12635,0,1,1,0-2.2527Zm78.42427,65.7a3.38274,3.38274,0,0,1-3.379,3.379H16.48267a3.38274,3.38274,0,0,1-3.379-3.379V32.888H96.89638Z" style="fill:#515151"/><path d="M69.69387,38.54657a4.72683,4.72683,0,0,0-4.58111,3.59648H59.58184a4.71682,4.71682,0,0,0-9.16368,0H44.88724a4.72283,4.72283,0,1,0,0,2.25269h5.53092a4.71682,4.71682,0,0,0,9.16368,0h5.53092a4.7206,4.7206,0,1,0,4.58111-5.84917ZM55,45.73952a2.47013,2.47013,0,1,1,2.47049-2.47013A2.47291,2.47291,0,0,1,55,45.73952Zm14.69387,0a2.47013,2.47013,0,1,1,2.47049-2.47013A2.47274,2.47274,0,0,1,69.69387,45.73952Z" style="fill:#515151"/><path d="M85.036,85.68055H37.54672a1.1264,1.1264,0,0,1-1.12635-1.12635V76.01492a1.1264,1.1264,0,0,1,1.12635-1.12635H85.036a1.1264,1.1264,0,0,1,1.12635,1.12635V84.5542A1.1264,1.1264,0,0,1,85.036,85.68055Zm-46.36291-2.2527H83.90963V77.14127H38.67307Z" style="fill:#515151"/><path d="M32.18629,85.68055H24.964a1.1264,1.1264,0,0,1-1.12635-1.12635V76.01492A1.1264,1.1264,0,0,1,24.964,74.88857h7.22227a1.1264,1.1264,0,0,1,1.12635,1.12635V84.5542A1.1264,1.1264,0,0,1,32.18629,85.68055Zm-6.09592-2.2527h4.96957V77.14127H26.09037Z" style="fill:#515151"/><path d="M85.036,69.105H24.964a1.1264,1.1264,0,0,1-1.12635-1.12635V59.4394A1.1264,1.1264,0,0,1,24.964,58.31305H85.036a1.1264,1.1264,0,0,1,1.12635,1.12635v8.53928A1.1264,1.1264,0,0,1,85.036,69.105Zm-58.94561-2.2527H83.90963V60.56575H26.09037Z" style="fill:#515151"/></svg>
