<svg xmlns="http://www.w3.org/2000/svg" viewBox="0 0 110 110"><path d="M93.51733,15.30242H16.48267a5.63791,5.63791,0,0,0-5.63175,5.63175V89.06583a5.63791,5.63791,0,0,0,5.63175,5.63175H93.51733a5.63791,5.63791,0,0,0,5.63175-5.63175V20.93417A5.63791,5.63791,0,0,0,93.51733,15.30242Zm-7.58012,8.06337h5.59068a1.12635,1.12635,0,1,1,0,2.2527H85.93721a1.12635,1.12635,0,1,1,0-2.2527Zm-12.23512,0h5.59068a1.12635,1.12635,0,1,1,0,2.2527H73.70209a1.12635,1.12635,0,0,1,0-2.2527Zm-55.23,0H29.65347a1.12635,1.12635,0,1,1,0,2.2527H18.47211a1.12635,1.12635,0,1,1,0-2.2527Zm78.42427,65.7a3.38274,3.38274,0,0,1-3.379,3.379H16.48267a3.38274,3.38274,0,0,1-3.379-3.379V32.888H96.89638Z" style="fill:#a56140"/><path d="M80.06017,62.9701l-4.61466-7.9937a3.37207,3.37207,0,0,0-5.57455-.39379,3.372,3.372,0,0,0-5.22769.75127,3.37225,3.37225,0,0,0-4.07862.81323l-2.08972-3.61842a5.90455,5.90455,0,0,0-5.07132-8.94948H32.00737a5.91682,5.91682,0,1,0,0,11.83364H51.82563c.04556.09826.07783.19982.133.29538l6.13112,10.61929a4.83032,4.83032,0,0,0-1.20628,2.90057A7.91057,7.91057,0,0,0,57.993,73.79068a8.51174,8.51174,0,0,0,.67756,1.00646c1.58247,2.2219,6.70017,6.00353,11.26716,6.00353a6.63307,6.63307,0,0,0,3.36292-.8521l5.65374-3.26392a6.66047,6.66047,0,0,0,3.42818-4.09621C83.0667,70.05965,82.285,66.8236,80.06017,62.9701ZM51.566,53.16015H32.00737a3.66412,3.66412,0,1,1,0-7.32824H53.40361a3.66856,3.66856,0,0,1,3.6643,3.6643,3.62368,3.62368,0,0,1-.23429,1.25088A3.58072,3.58072,0,0,0,51.566,53.16015ZM80.20756,72a4.47109,4.47109,0,0,1-2.37,2.72825L72.17426,77.998a4.459,4.459,0,0,1-2.275.553c-3.572-.01311-8.07025-3.20122-9.4263-5.10455a6.61744,6.61744,0,0,1-.52945-.78243,5.72789,5.72789,0,0,1-.81543-3.24156,3.27212,3.27212,0,0,1,.21413-.92611v0l1.03688,1.79654a1.12621,1.12621,0,1,0,1.95058-1.12635l-1.81125-3.13816-4.36992-7.56825-1.80676-3.12895h0l-.43255-.74925a1.36463,1.36463,0,0,1,.26114-1.68618l.00523-.00568a1.35016,1.35016,0,0,1,.91277-.35368h0a1.36564,1.36564,0,0,1,.28856.03731h0a1.3539,1.3539,0,0,1,.895.64429l.609,1.05476h0l3.32368,5.75614v.00036l.0011.00147,2.67471,4.63372A1.12621,1.12621,0,1,0,64.831,63.538l-2.67581-4.63555-.00074-.00184a1.11835,1.11835,0,0,1,1.04679-1.67385,1.11888,1.11888,0,0,1,.89206.55667l.39617.68582.00275.00605L67.39534,63.504a1.12621,1.12621,0,0,0,1.95058-1.12635l-2.757-4.77562-.00385-.00843v-.00037l-.00146-.00257a1.116,1.116,0,0,1,1.04165-1.6711,1.14169,1.14169,0,0,1,.21816.03621,1.11082,1.11082,0,0,1,.6805.51881l.92469,1.60144.0022.00485,2.47342,4.285a1.12621,1.12621,0,1,0,1.95058-1.12635l-2.31631-4.013-.00238-.00513a1.12453,1.12453,0,0,1,.40991-1.5282v-.00037a1.106,1.106,0,0,1,.62936-.14547,1.15,1.15,0,0,1,.21907.03658,1.11079,1.11079,0,0,1,.6805.51881l4.61466,7.9937C80.02351,67.41207,80.72967,70.071,80.20756,72Z" style="fill:#a56140"/></svg>