<svg xmlns="http://www.w3.org/2000/svg" viewBox="0 0 110 110"><title>04_</title><path d="M93.51733,15.30242H16.48267a5.63791,5.63791,0,0,0-5.63175,5.63175V89.06583a5.63791,5.63791,0,0,0,5.63175,5.63175H93.51733a5.63791,5.63791,0,0,0,5.63175-5.63175V20.93417A5.63791,5.63791,0,0,0,93.51733,15.30242Zm-7.58012,8.06337h5.59068a1.12635,1.12635,0,1,1,0,2.2527H85.93721a1.12635,1.12635,0,1,1,0-2.2527Zm-12.23512,0h5.59068a1.12635,1.12635,0,1,1,0,2.2527H73.70209a1.12635,1.12635,0,0,1,0-2.2527Zm-55.23,0H29.65347a1.12635,1.12635,0,1,1,0,2.2527H18.47211a1.12635,1.12635,0,1,1,0-2.2527Zm78.42427,65.7a3.38274,3.38274,0,0,1-3.379,3.379H16.48267a3.38274,3.38274,0,0,1-3.379-3.379V32.888H96.89638Z" style="fill:#515151"/><path d="M46.89483,44.02029H24.964a.7509.7509,0,1,1,0-1.50179H46.89483a.7509.7509,0,1,1,0,1.50179Z" style="fill:#515151"/><path d="M60.82387,55.04876H30.70723a1.12635,1.12635,0,1,1,0-2.25269H60.82387a1.12635,1.12635,0,1,1,0,2.25269Z" style="fill:#515151"/><path d="M91.54035,52.157l-7.839-13.57742a1.12607,1.12607,0,0,0-1.95057,0l-5.74285,9.94685H24.964a1.12641,1.12641,0,0,0-1.12635,1.12635v8.53929A1.12641,1.12641,0,0,0,24.964,59.31841H85.036a1.12641,1.12641,0,0,0,1.12635-1.12635V53.84652h4.40273a1.12636,1.12636,0,0,0,.97529-1.68953ZM81.81093,41.26125a.28.28,0,0,1,.20165-.08543h1.40207a.28239.28239,0,0,1,.28159.28966l-.20459,7.01218a.28146.28146,0,0,1-.28159.27352h-.99289a.28146.28146,0,0,1-.28158-.27352L81.731,41.46548A.27993.27993,0,0,1,81.81093,41.26125Zm.90269,8.1103a1.11546,1.11546,0,0,1,1.14321,1.18722A1.12776,1.12776,0,0,1,82.71362,51.746a1.18806,1.18806,0,0,1,0-2.37443Zm1.196,7.69416H26.09037V50.77912H74.70745L73.91181,52.157a1.12636,1.12636,0,0,0,.97529,1.68953h9.02253Z" style="fill:#515151"/><path d="M85.036,67.47857H54.38274l-5.13768-3.85569a1.12624,1.12624,0,0,0-1.80245.90086v2.95483H45.76555a1.12641,1.12641,0,0,0-1.12635,1.12635V84.761a1.1264,1.1264,0,0,0,1.12635,1.12635H85.036A1.1264,1.1264,0,0,0,86.16233,84.761V68.60492A1.12641,1.12641,0,0,0,85.036,67.47857Zm-35.53573,15.047a1.25468,1.25468,0,1,1,1.25394-1.25468A1.25629,1.25629,0,0,1,49.50025,82.52553Zm0-4.5879A1.25468,1.25468,0,1,1,50.75419,76.683,1.25628,1.25628,0,0,1,49.50025,77.93763Zm0-4.58826a1.25468,1.25468,0,1,1,1.25394-1.25467A1.25628,1.25628,0,0,1,49.50025,73.34937Zm28.73,8.67238H52.68057a.7509.7509,0,1,1,0-1.5018H78.23022a.7509.7509,0,0,1,0,1.5018ZM51.92967,76.683a.7507.7507,0,0,1,.7509-.7509H73.43224a.7509.7509,0,0,1,0,1.5018H52.68057A.7507.7507,0,0,1,51.92967,76.683ZM81.07616,72.8456H52.68057a.7509.7509,0,0,1,0-1.5018H81.07616a.7509.7509,0,0,1,0,1.5018Z" style="fill:#515151"/></svg>