<svg xmlns="http://www.w3.org/2000/svg" viewBox="0 0 110 110"><path d="M93.51733,94.69758H16.48267a5.63791,5.63791,0,0,1-5.63175-5.63175V20.93417a5.63791,5.63791,0,0,1,5.63175-5.63175H93.51733a5.63791,5.63791,0,0,1,5.63175,5.63175V89.06583A5.63791,5.63791,0,0,1,93.51733,94.69758ZM16.48267,17.55512a3.38274,3.38274,0,0,0-3.379,3.37905V89.06583a3.38274,3.38274,0,0,0,3.379,3.379H93.51733a3.38274,3.38274,0,0,0,3.379-3.379V20.93417a3.38274,3.38274,0,0,0-3.379-3.37905Z" style="fill:#a56140"/><path d="M52.40778,45.14224H24.964a1.12635,1.12635,0,1,1,0-2.25269H52.40778a1.12635,1.12635,0,1,1,0,2.25269Z" style="fill:#a56140"/><path d="M52.40778,34.15814H24.964a1.12635,1.12635,0,0,1,0-2.2527H52.40778a1.12635,1.12635,0,0,1,0,2.2527Z" style="fill:#a56140"/><path d="M85.036,56.12635H24.964a1.12635,1.12635,0,0,1,0-2.2527H85.036a1.12635,1.12635,0,0,1,0,2.2527Z" style="fill:#a56140"/><path d="M85.036,67.11045H24.964a1.12635,1.12635,0,1,1,0-2.25269H85.036a1.12635,1.12635,0,1,1,0,2.25269Z" style="fill:#a56140"/><path d="M85.036,78.09456H24.964a1.12635,1.12635,0,0,1,0-2.2527H85.036a1.12635,1.12635,0,0,1,0,2.2527Z" style="fill:#a56140"/><path d="M64.6385,32.28089H60.47189a.7509.7509,0,0,0,0,1.5018H63.8876V43.265H60.47189a.7509.7509,0,1,0,0,1.50179H64.6385a.7507.7507,0,0,0,.7509-.7509V33.03179A.7507.7507,0,0,0,64.6385,32.28089Z" style="fill:#a56140"/><path d="M72.22522,34.3466H71.324a.38115.38115,0,0,0-.17746.04436l-1.70639.91369a.37521.37521,0,0,0-.18626.42312l.20386.80516a.37467.37467,0,0,0,.54191.23832l.82863-.44731v6.21069a.37523.37523,0,0,0,.37545.37545h1.02148a.37523.37523,0,0,0,.37545-.37545V34.72205A.37523.37523,0,0,0,72.22522,34.3466Z" style="fill:#a56140"/><path d="M76.17771,40.77691a1.13359,1.13359,0,0,0-.01246,2.26553,1.13362,1.13362,0,0,0,.01246-2.26553Z" style="fill:#a56140"/><path d="M82.05365,37.66955a3.641,3.641,0,0,0-1.87578-.47445c-.07113,0-.13493.00147-.19506.00367l.18186-1.21178h2.65748a.37524.37524,0,0,0,.37545-.37545v-.88949a.37523.37523,0,0,0-.37545-.37545H79.08452a.37516.37516,0,0,0-.37179.32522l-.50451,3.75009a.39092.39092,0,0,0,.13713.31056.43515.43515,0,0,0,.34465.10412,7.28656,7.28656,0,0,1,.97089-.07333c1.23194,0,1.86185.45758,1.87285,1.35551a1.351,1.351,0,0,1-1.4754,1.31921,3.11124,3.11124,0,0,1-1.4798-.38022.37994.37994,0,0,0-.32339-.0286.37538.37538,0,0,0-.22439.23429l-.26472.80517a.37534.37534,0,0,0,.15253.43264,4.16108,4.16108,0,0,0,2.1515.54118,3.10081,3.10081,0,0,0,3.28372-3.04393A2.59389,2.59389,0,0,0,82.05365,37.66955Z" style="fill:#a56140"/><path d="M92.6601,42.32344,90.76379,39.534l1.83252-2.60028a.375.375,0,0,0-.30652-.59177H91.14731a.37449.37449,0,0,0-.31312.16866l-.8235,1.24807-.11733.18993c-.05426.08726-.10853.17452-.16206.26325-.09239-.14886-.187-.29808-.28965-.45208l-.82936-1.24991a.37568.37568,0,0,0-.31312-.16792H87.12149a.37582.37582,0,0,0-.30872.5892l1.823,2.634-1.919,2.755a.37524.37524,0,0,0,.308.58994h1.16595a.37585.37585,0,0,0,.31605-.17233l.99656-1.55789c.05279-.084.10486-.16683.15546-.24933.10266.1672.20825.33219.32118.499l.85283,1.31a.37517.37517,0,0,0,.31459.17049h1.20261a.375.375,0,0,0,.31018-.58664Z" style="fill:#a56140"/></svg>