<svg xmlns="http://www.w3.org/2000/svg" viewBox="0 0 110 110"><title>05_</title><rect x="34.70585" y="41.38545" width="40.58891" height="4.5054" rx="1.12635" style="fill:#515151"/><rect x="37.68524" y="48.3078" width="34.62937" height="4.5054" rx="1.12635" style="fill:#515151"/><path d="M30.77976,62.01832a.75047.75047,0,0,1-.7509-.7509V32.888a.7509.7509,0,1,1,1.50179,0V61.26742A.75046.75046,0,0,1,30.77976,62.01832Z" style="fill:#515151"/><path d="M79.05658,62.01832a.75047.75047,0,0,1-.7509-.7509V32.888a.7509.7509,0,1,1,1.5018,0V61.26742A.75047.75047,0,0,1,79.05658,62.01832Z" style="fill:#515151"/><path d="M30.77976,94.13467a.75047.75047,0,0,1-.7509-.7509V68.45963a.7509.7509,0,1,1,1.50179,0V93.38377A.75046.75046,0,0,1,30.77976,94.13467Z" style="fill:#515151"/><path d="M79.05658,94.13467a.75047.75047,0,0,1-.7509-.7509V68.45963a.7509.7509,0,0,1,1.5018,0V93.38377A.75047.75047,0,0,1,79.05658,94.13467Z" style="fill:#515151"/><path d="M97.90167,62.01832h-86.022a.7509.7509,0,0,1,0-1.5018h86.022a.7509.7509,0,0,1,0,1.5018Z" style="fill:#515151"/><path d="M97.90167,69.01832h-86.022a.7509.7509,0,0,1,0-1.5018h86.022a.7509.7509,0,0,1,0,1.5018Z" style="fill:#515151"/><path d="M27.03846,53.00092H22.27127a.7514.7514,0,0,1-.6277-.33805L20.2283,50.51064a.75144.75144,0,0,1,.0066-.8345l2.36122-3.47878a.75.75,0,0,1,.62111-.32925h0a.75.75,0,0,1,.6211.32925l3.82123,5.631a.75075.75075,0,0,1-.6211,1.17254Zm-4.36241-1.50179h2.94567l-2.40449-3.54331-1.45854,2.14857Z" style="fill:#515151"/><path d="M22.27127,53.00092H17.1895a.75146.75146,0,0,1-.6277-1.16374l2.54088-3.86376a.78029.78029,0,0,1,1.25541,0L22.899,51.83718a.75146.75146,0,0,1-.62771,1.16374ZM18.582,51.49913h2.29669l-1.14834-1.746Z" style="fill:#515151"/><circle cx="17.61469" cy="47.17052" r="0.83475" style="fill:#515151"/><path d="M28.87024,52.99652H14.24163V42.88725H28.87024ZM15.74343,51.49473h11.625V44.38905h-11.625Z" style="fill:#515151"/><path d="M94.21536,85.97891H89.44818a.75144.75144,0,0,1-.62771-.33806L87.4052,83.48862a.75147.75147,0,0,1,.0066-.8345L89.773,79.17535a.75.75,0,0,1,.62111-.32926h0a.75.75,0,0,1,.6211.32926l3.82123,5.631a.75075.75075,0,0,1-.62111,1.17255Zm-4.3624-1.5018h2.94567L90.39414,80.9338,88.9356,83.08237Z" style="fill:#515151"/><path d="M89.44818,85.97891H84.36641a.75147.75147,0,0,1-.62771-1.16375l2.54089-3.86376a.78029.78029,0,0,1,1.25541,0l2.54088,3.86376a.75147.75147,0,0,1-.6277,1.16375ZM85.759,84.47711h2.29669l-1.14835-1.746Z" style="fill:#515151"/><circle cx="84.79148" cy="80.14859" r="0.83475" style="fill:#515151"/><path d="M96.04715,85.97451H81.41854V75.86523H96.04715Zm-13.12681-1.5018h11.625V77.367h-11.625Z" style="fill:#515151"/><path d="M31.90684,65.15611H21.5431a.7509.7509,0,0,1,0-1.5018H31.90684a.7509.7509,0,1,1,0,1.5018Z" style="fill:#515151"/><path d="M60.63534,65.15611H50.27161a.7509.7509,0,0,1,0-1.5018H60.63534a.7509.7509,0,0,1,0,1.5018Z" style="fill:#515151"/><path d="M89.36385,65.15611H79.00012a.7509.7509,0,0,1,0-1.5018H89.36385a.7509.7509,0,1,1,0,1.5018Z" style="fill:#515151"/><path d="M74.1684,75.31745H36.14678a.7509.7509,0,0,1,0-1.5018H74.1684a.7509.7509,0,1,1,0,1.5018Z" style="fill:#515151"/><path d="M92.86756,38.8299h-9.6693a.7509.7509,0,0,1,0-1.5018h9.6693a.7509.7509,0,0,1,0,1.5018Z" style="fill:#515151"/><path d="M89.06173,41.93029H83.19826a.7509.7509,0,0,1,0-1.5018h5.86347a.7509.7509,0,0,1,0,1.5018Z" style="fill:#515151"/><path d="M68.35553,79.94678H36.14678a.7509.7509,0,1,1,0-1.5018H68.35553a.7509.7509,0,0,1,0,1.5018Z" style="fill:#515151"/><path d="M74.1684,84.57684H36.14678a.7509.7509,0,0,1,0-1.5018H74.1684a.7509.7509,0,1,1,0,1.5018Z" style="fill:#515151"/><path d="M68.35553,89.20616H36.14678a.7509.7509,0,1,1,0-1.5018H68.35553a.7509.7509,0,0,1,0,1.5018Z" style="fill:#515151"/><path d="M98.01148,57.24673a7.83415,7.83415,0,0,1-1.11517-.08863V89.06582a3.38274,3.38274,0,0,1-3.37905,3.379H16.4826a3.38274,3.38274,0,0,1-3.37905-3.379V32.888H96.89631v8.82326a7.06779,7.06779,0,0,1,2.2527.00339V20.93416a5.63791,5.63791,0,0,0-5.63175-5.63175H16.4826a5.63791,5.63791,0,0,0-5.63175,5.63175V89.06582a5.63791,5.63791,0,0,0,5.63175,5.63175H93.51726A5.63791,5.63791,0,0,0,99.149,89.06582V57.1547A7.83261,7.83261,0,0,1,98.01148,57.24673ZM85.93714,23.36578h5.59068a1.12635,1.12635,0,1,1,0,2.2527H85.93714a1.12635,1.12635,0,0,1,0-2.2527Zm-12.23512,0H79.2927a1.12635,1.12635,0,1,1,0,2.2527H73.702a1.12635,1.12635,0,0,1,0-2.2527Zm-55.23,0H29.65341a1.12635,1.12635,0,1,1,0,2.2527H18.472a1.12635,1.12635,0,1,1,0-2.2527Z" style="fill:#515151"/><path d="M98.01148,41.62258a7.81208,7.81208,0,1,0,7.81221,7.812A7.8121,7.8121,0,0,0,98.01148,41.62258Zm3.27418,9.4933a1.12623,1.12623,0,1,1-1.59273,1.59273l-1.68109-1.68109-1.68109,1.68109A1.12623,1.12623,0,0,1,94.738,51.11588l1.68109-1.68109L94.738,47.7537A1.12623,1.12623,0,1,1,96.33075,46.161l1.68109,1.68109L99.69293,46.161a1.12623,1.12623,0,0,1,1.59273,1.59273l-1.68109,1.68109Z" style="fill:#515151"/></svg>