<svg xmlns="http://www.w3.org/2000/svg" viewBox="0 0 110 110"><path d="M60.17013,59.25314H24.964a1.12635,1.12635,0,0,1,0-2.2527H60.17013a1.12635,1.12635,0,0,1,0,2.2527Z" style="fill:#a56140"/><path d="M48.3816,65.65705H24.964a1.12635,1.12635,0,1,1,0-2.2527H48.3816a1.12635,1.12635,0,1,1,0,2.2527Z" style="fill:#a56140"/><path d="M93.517,15.30242H16.483a5.6379,5.6379,0,0,0-5.63174,5.63175V89.06583H13.104V32.888H96.896V89.06583h2.2527V20.93417A5.6379,5.6379,0,0,0,93.517,15.30242ZM29.65347,25.61849H18.47211a1.12635,1.12635,0,1,1,0-2.2527H29.65347a1.12635,1.12635,0,1,1,0,2.2527Zm49.63967,0H73.70246a1.12635,1.12635,0,0,1,0-2.2527h5.59068a1.12635,1.12635,0,1,1,0,2.2527Zm12.23475,0H85.93721a1.12635,1.12635,0,1,1,0-2.2527h5.59068a1.12635,1.12635,0,1,1,0,2.2527Z" style="fill:#a56140"/><path d="M8.06878,81.48864H4.31428a1.12635,1.12635,0,1,1,0-2.2527h3.7545a1.12635,1.12635,0,0,1,0,2.2527Z" style="fill:#a56140"/><path d="M94.71078,81.48864H87.4907a1.12635,1.12635,0,0,1,0-2.2527h7.22008a1.12635,1.12635,0,0,1,0,2.2527Zm-14.44015,0H73.05019a1.12635,1.12635,0,0,1,0-2.2527h7.22044a1.12635,1.12635,0,1,1,0,2.2527Zm-14.44052,0H58.61a1.12635,1.12635,0,1,1,0-2.2527h7.22007a1.12635,1.12635,0,1,1,0,2.2527Zm-14.44015,0H44.16952a1.12635,1.12635,0,1,1,0-2.2527H51.39a1.12635,1.12635,0,0,1,0,2.2527Zm-14.44051,0H29.72937a1.12635,1.12635,0,1,1,0-2.2527h7.22008a1.12635,1.12635,0,0,1,0,2.2527Zm-14.44052,0H15.28886a1.12635,1.12635,0,1,1,0-2.2527h7.22007a1.12635,1.12635,0,0,1,0,2.2527Z" style="fill:#a56140"/><path d="M105.68572,81.48864h-3.7545a1.12635,1.12635,0,0,1,0-2.2527h3.7545a1.12635,1.12635,0,0,1,0,2.2527Z" style="fill:#a56140"/><rect x="23.83767" y="47.96875" width="50.56326" height="4.5054" rx="1.12635" style="fill:#a56140"/></svg>