<svg xmlns="http://www.w3.org/2000/svg" viewBox="0 0 110 110"><path d="M93.517,94.69758H16.483a5.6379,5.6379,0,0,1-5.63174-5.63175V20.93417A5.6379,5.6379,0,0,1,16.483,15.30242H93.517a5.6379,5.6379,0,0,1,5.63174,5.63175V89.06583A5.6379,5.6379,0,0,1,93.517,94.69758ZM16.483,17.55512a3.38274,3.38274,0,0,0-3.379,3.37905V89.06583a3.38274,3.38274,0,0,0,3.379,3.379H93.517a3.38274,3.38274,0,0,0,3.379-3.379V20.93417a3.38274,3.38274,0,0,0-3.379-3.37905Z" style="fill:#a56140"/><path d="M26.08707,80.00334c-1.16192,0-1.88385,1.04385-1.88385,2.72641.0154,1.66056.7058,2.69231,1.80135,2.69231,1.19712,0,1.88385-1.00682,1.88385-2.762C27.88842,80.9966,27.21488,80.00334,26.08707,80.00334Zm-.0451,4.5329c-.49534,0-.803-.69-.803-1.801,0-1.12158.31788-1.84608.81029-1.84608.69847,0,.803,1.12855.803,1.801C26.85227,83.24526,26.77344,84.53624,26.042,84.53624Z" style="fill:#a56140"/><path d="M30.38164,80.08584h-.56281a.18864.18864,0,0,0-.08873.02236l-1.06548.57051a.18759.18759,0,0,0-.09313.21156l.12759.50267a.18761.18761,0,0,0,.271.11917l.58627-.31642v3.95615a.18763.18763,0,0,0,.18773.18773h.6376a.18763.18763,0,0,0,.18773-.18773V80.27356A.18762.18762,0,0,0,30.38164,80.08584Z" style="fill:#a56140"/><path d="M36.013,79.82332h-.51038a.18748.18748,0,0,0-.17525.12026l-2.09358,5.44108a.18779.18779,0,0,0,.17526.25519h.50268a.18786.18786,0,0,0,.17526-.12026l2.10127-5.44109a.18778.18778,0,0,0-.17526-.25518Z" style="fill:#a56140"/><path d="M39.5501,80.00334c-1.16192,0-1.88385,1.04385-1.88385,2.72641.0154,1.66056.7058,2.69231,1.80135,2.69231,1.19711,0,1.88385-1.00682,1.88385-2.762C41.35145,80.9966,40.67791,80.00334,39.5501,80.00334Zm-.0451,4.5329c-.49535,0-.803-.69-.803-1.801,0-1.12158.31789-1.84608.8103-1.84608.69847,0,.803,1.12855.803,1.801C40.31529,83.24526,40.23646,84.53624,39.505,84.53624Z" style="fill:#a56140"/><path d="M43.84467,80.08584h-.56281a.18861.18861,0,0,0-.08873.02236l-1.06548.57051a.18759.18759,0,0,0-.09313.21156l.12759.50267a.18761.18761,0,0,0,.271.11917l.58627-.31642v3.95615a.18762.18762,0,0,0,.18772.18773h.63761a.18762.18762,0,0,0,.18772-.18773V80.27356A.18761.18761,0,0,0,43.84467,80.08584Z" style="fill:#a56140"/><path d="M49.47642,79.82332H48.966a.1875.1875,0,0,0-.17526.12026l-2.09357,5.44108a.18778.18778,0,0,0,.17526.25519h.50267a.18786.18786,0,0,0,.17526-.12026l2.10127-5.44109a.18778.18778,0,0,0-.17525-.25518Z" style="fill:#a56140"/><path d="M53.01349,80.00334c-1.16191,0-1.88385,1.04385-1.88385,2.72641.0154,1.66056.7058,2.69231,1.80135,2.69231,1.19712,0,1.88385-1.00682,1.88385-2.762C54.81484,80.9966,54.14131,80.00334,53.01349,80.00334Zm-.0451,4.5329c-.49534,0-.803-.69-.803-1.801,0-1.12158.31788-1.84608.81029-1.84608.69847,0,.803,1.12855.803,1.801C53.77869,83.24526,53.69986,84.53624,52.96839,84.53624Z" style="fill:#a56140"/><path d="M56.86552,80.00334c-1.16192,0-1.88385,1.04385-1.88385,2.72641.0154,1.66056.7058,2.69231,1.80135,2.69231,1.19711,0,1.88385-1.00682,1.88385-2.762C58.66687,80.9966,57.99333,80.00334,56.86552,80.00334Zm-.0451,4.5329c-.49535,0-.803-.69-.803-1.801,0-1.12158.31789-1.84608.8103-1.84608.69847,0,.803,1.12855.803,1.801C57.63071,83.24526,57.55189,84.53624,56.82042,84.53624Z" style="fill:#a56140"/><path d="M60.71754,80.00334c-1.16191,0-1.88385,1.04385-1.88385,2.72641.0154,1.66056.70581,2.69231,1.80136,2.69231,1.19711,0,1.88384-1.00682,1.88384-2.762C62.51889,80.9966,61.84536,80.00334,60.71754,80.00334Zm-.0451,4.5329c-.49534,0-.803-.69-.803-1.801,0-1.12158.31789-1.84608.8103-1.84608.69847,0,.803,1.12855.803,1.801C61.48274,83.24526,61.40391,84.53624,60.67244,84.53624Z" style="fill:#a56140"/><path d="M64.56957,80.00334c-1.16192,0-1.88385,1.04385-1.88385,2.72641.0154,1.66056.7058,2.69231,1.80135,2.69231,1.19712,0,1.88385-1.00682,1.88385-2.762C66.37092,80.9966,65.69738,80.00334,64.56957,80.00334Zm-.0451,4.5329c-.49534,0-.803-.69-.803-1.801,0-1.12158.31788-1.84608.81029-1.84608.69847,0,.803,1.12855.803,1.801C65.33477,83.24526,65.25594,84.53624,64.52447,84.53624Z" style="fill:#a56140"/><path d="M85.036,56.12635H24.964a1.12635,1.12635,0,0,1,0-2.2527H85.036a1.12635,1.12635,0,0,1,0,2.2527Z" style="fill:#a56140"/><path d="M85.036,67.11045H24.964a1.12635,1.12635,0,1,1,0-2.25269H85.036a1.12635,1.12635,0,1,1,0,2.25269Z" style="fill:#a56140"/><path d="M85.036,34.15814H24.964a1.12635,1.12635,0,0,1,0-2.2527H85.036a1.12635,1.12635,0,0,1,0,2.2527Z" style="fill:#a56140"/><path d="M85.036,45.14224H24.964a1.12635,1.12635,0,1,1,0-2.25269H85.036a1.12635,1.12635,0,1,1,0,2.25269Z" style="fill:#a56140"/></svg>
