<svg xmlns="http://www.w3.org/2000/svg" viewBox="0 0 110 110"><rect x="23.8461" y="76.81752" width="17.27069" height="4.5054" rx="1.12635" style="fill:#a56140"/><path d="M96.896,20.93417V69.398H13.104V20.93417h-2.2527V89.06583A5.6379,5.6379,0,0,0,16.483,94.69758H93.517a5.6379,5.6379,0,0,0,5.63174-5.63175V20.93417Zm0,68.13166a3.38274,3.38274,0,0,1-3.379,3.379H16.483a3.38274,3.38274,0,0,1-3.379-3.379V71.65068H96.896Z" style="fill:#a56140"/><path d="M8.06878,31.19084H4.31428a1.12635,1.12635,0,0,1,0-2.2527h3.7545a1.12635,1.12635,0,0,1,0,2.2527Z" style="fill:#a56140"/><path d="M94.71078,31.19084H87.4907a1.12635,1.12635,0,0,1,0-2.2527h7.22008a1.12635,1.12635,0,1,1,0,2.2527Zm-14.44015,0H73.05019a1.12635,1.12635,0,0,1,0-2.2527h7.22044a1.12635,1.12635,0,1,1,0,2.2527Zm-14.44052,0H58.61a1.12635,1.12635,0,1,1,0-2.2527h7.22007a1.12635,1.12635,0,1,1,0,2.2527Zm-14.44015,0H44.16952a1.12635,1.12635,0,1,1,0-2.2527H51.39a1.12635,1.12635,0,0,1,0,2.2527Zm-14.44051,0H29.72937a1.12635,1.12635,0,1,1,0-2.2527h7.22008a1.12635,1.12635,0,1,1,0,2.2527Zm-14.44052,0H15.28886a1.12635,1.12635,0,1,1,0-2.2527h7.22007a1.12635,1.12635,0,1,1,0,2.2527Z" style="fill:#a56140"/><path d="M105.68572,31.19084h-3.7545a1.12635,1.12635,0,0,1,0-2.2527h3.7545a1.12635,1.12635,0,1,1,0,2.2527Z" style="fill:#a56140"/><path d="M55,87.21278H24.97245a1.12635,1.12635,0,1,1,0-2.2527H55a1.12635,1.12635,0,1,1,0,2.2527Z" style="fill:#a56140"/><path d="M90.52767,37.46239a1.12617,1.12617,0,0,0-1.58943-.106l-3.76367,3.293V30.06449a1.12635,1.12635,0,1,0-2.25269,0V40.6494l-3.76367-3.293a1.12639,1.12639,0,1,0-1.48346,1.69539l5.63174,4.92741c.00788.00692.01811.00889.02613.01554a1.11782,1.11782,0,0,0,.311.18515c.01471.00569.02947.00871.04436.01375a1.04261,1.04261,0,0,0,.72047,0c.01489-.005.02965-.00806.04436-.01375a1.11782,1.11782,0,0,0,.311-.18515c.008-.00665.01825-.00862.02613-.01554l5.63174-4.92741A1.12644,1.12644,0,0,0,90.52767,37.46239Z" style="fill:#a56140"/></svg>